<?xml version="1.0" encoding="UTF-8" standalone="no"?>
<!-- Created with Inkscape (http://www.inkscape.org/) -->

<svg
   xmlns:dc="http://purl.org/dc/elements/1.1/"
   xmlns:cc="http://creativecommons.org/ns#"
   xmlns:rdf="http://www.w3.org/1999/02/22-rdf-syntax-ns#"
   xmlns:svg="http://www.w3.org/2000/svg"
   xmlns="http://www.w3.org/2000/svg"
   xmlns:sodipodi="http://sodipodi.sourceforge.net/DTD/sodipodi-0.dtd"
   xmlns:inkscape="http://www.inkscape.org/namespaces/inkscape"
   width="36in"
   height="36in"
   viewBox="0 0 914.40001 914.40003"
   version="1.1"
   id="svg6870"
   inkscape:version="0.92.2 5c3e80d, 2017-08-06"
   sodipodi:docname="full_poster.svg">
  <defs
     id="defs6864">
    <clipPath
       id="clipPath11755"
       clipPathUnits="userSpaceOnUse">
      <path
         inkscape:connector-curvature="0"
         id="path11753"
         d="M 0,95.671 H 190.844 V 0 H 0 Z" />
    </clipPath>
  </defs>
  <sodipodi:namedview
     id="base"
     pagecolor="#ffffff"
     bordercolor="#666666"
     borderopacity="1.0"
     inkscape:pageopacity="0.0"
     inkscape:pageshadow="2"
     inkscape:zoom="0.26680795"
     inkscape:cx="627.99975"
     inkscape:cy="2344.8276"
     inkscape:document-units="mm"
     inkscape:current-layer="layer1"
     showgrid="false"
     units="in"
     inkscape:window-width="2560"
     inkscape:window-height="1395"
     inkscape:window-x="0"
     inkscape:window-y="1"
     inkscape:window-maximized="1" />
  <metadata
     id="metadata6867">
    <rdf:RDF>
      <cc:Work
         rdf:about="">
        <dc:format>image/svg+xml</dc:format>
        <dc:type
           rdf:resource="http://purl.org/dc/dcmitype/StillImage" />
        <dc:title></dc:title>
      </cc:Work>
    </rdf:RDF>
  </metadata>
  <g
     inkscape:label="Layer 1"
     inkscape:groupmode="layer"
     id="layer1"
     transform="translate(0,617.40002)">
    <flowRoot
       xml:space="preserve"
       id="flowRoot11612"
       style="font-style:normal;font-weight:normal;font-size:80px;line-height:1.25;font-family:sans-serif;text-align:center;letter-spacing:0px;word-spacing:0px;text-anchor:middle;fill:#000000;fill-opacity:1;stroke:none"
       transform="matrix(0.26458333,0,0,0.26458333,0.83698897,-613.16666)"><flowRegion
         id="flowRegion11614"
         style="font-size:80px;text-align:center;text-anchor:middle"><rect
           id="rect11616"
           width="3211.9802"
           height="439.80298"
           x="119.17242"
           y="39.724136"
           style="font-size:80px;text-align:center;text-anchor:middle" /></flowRegion><flowPara
         style="font-style:normal;font-variant:normal;font-weight:normal;font-stretch:normal;font-size:133.33332825px;font-family:Palatino;-inkscape-font-specification:Palatino"
         id="flowPara11620">Tensorized State Spaces for </flowPara><flowPara
         style="font-style:normal;font-variant:normal;font-weight:normal;font-stretch:normal;font-size:133.33332825px;font-family:Palatino;-inkscape-font-specification:Palatino"
         id="flowPara11624">Sequential Tensor Networks</flowPara></flowRoot>    <flowRoot
       transform="matrix(0.26458333,0,0,0.26458333,1.3743435,-516.85819)"
       style="font-style:normal;font-weight:normal;font-size:73.33333588px;line-height:1.25;font-family:sans-serif;text-align:center;letter-spacing:0px;word-spacing:0px;text-anchor:middle;fill:#000000;fill-opacity:1;stroke:none"
       id="flowRoot11634"
       xml:space="preserve"><flowRegion
         style="font-size:80px;text-align:center;text-anchor:middle"
         id="flowRegion11628"><rect
           style="font-size:80px;text-align:center;text-anchor:middle"
           y="39.724136"
           x="119.17242"
           height="212.80788"
           width="3209.1426"
           id="rect11626" /></flowRegion><flowPara
         id="flowPara11632"
         style="font-style:normal;font-variant:normal;font-weight:normal;font-stretch:normal;font-size:66.66666412px;font-family:Palatino;-inkscape-font-specification:Palatino">Jacob Miller<flowSpan
   style="font-style:normal;font-size:40px;baseline-shift:super"
   id="flowSpan11638">1,2,3</flowSpan>, Guillaume Rabusseau<flowSpan
   style="font-size:40px;baseline-shift:super"
   id="flowSpan11642">1,3</flowSpan>, and John Terilla<flowSpan
   style="font-size:40px;baseline-shift:super"
   id="flowSpan11640">2,4</flowSpan></flowPara></flowRoot>    <flowRoot
       xml:space="preserve"
       id="flowRoot11656"
       style="font-style:normal;font-weight:normal;font-size:53.33333588px;line-height:1.10000002;font-family:sans-serif;text-align:center;letter-spacing:0px;word-spacing:0px;text-anchor:middle;fill:#000000;fill-opacity:1;stroke:none"
       transform="matrix(0.26458333,0,0,0.26458333,199.09561,-489.61375)"><flowRegion
         id="flowRegion11646"
         style="font-size:80px;text-align:center;text-anchor:middle"><rect
           id="rect11644"
           width="1712.0598"
           height="234.33899"
           x="119.17242"
           y="39.724136"
           style="font-size:80px;text-align:center;text-anchor:middle" /></flowRegion><flowPara
         style="font-style:italic;font-variant:normal;font-weight:normal;font-stretch:normal;font-size:48px;line-height:0.25;font-family:Palatino;-inkscape-font-specification:Palatino;text-align:center;text-anchor:middle"
         id="flowPara11660"><flowSpan
   style="font-size:33.33333206px;text-align:center;baseline-shift:super;text-anchor:middle"
   id="flowSpan11692">1</flowSpan>Mila, <flowSpan
   style="font-size:33.33333206px;text-align:center;baseline-shift:super;text-anchor:middle"
   id="flowSpan11704">2</flowSpan>Tunnel Technologies, <flowSpan
   style="font-size:33.33333206px;text-align:center;baseline-shift:super;text-anchor:middle"
   id="flowSpan11702">3</flowSpan>Université de Montréal, <flowSpan
   style="font-size:33.33333206px;text-align:center;baseline-shift:super;text-anchor:middle"
   id="flowSpan11682">4</flowSpan>CUNY Queens College</flowPara></flowRoot>    <g
       transform="matrix(0.89760822,0,0,-0.89760822,31.275519,-516.75602)"
       inkscape:label="mila_logo"
       id="g11747"
       style="stroke-width:0.39301977">
      <g
         id="g11749"
         style="stroke-width:0.39301977">
        <g
           clip-path="url(#clipPath11755)"
           id="g11751"
           style="stroke-width:0.39301977">
          <g
             transform="translate(124.9594,29.3893)"
             id="g11757"
             style="stroke-width:0.39301977">
            <path
               inkscape:connector-curvature="0"
               id="path11759"
               style="fill:#6e006e;fill-opacity:1;fill-rule:nonzero;stroke:none;stroke-width:0.39301977"
               d="m 0,0 c 0,-0.4 -0.325,-0.725 -0.726,-0.725 h -4.335 c -0.401,0 -0.726,0.325 -0.726,0.725 v 23.184 c 0,0.258 -0.357,0.327 -0.453,0.087 l -9.361,-23.329 c -0.161,-0.403 -0.552,-0.667 -0.986,-0.667 h -4.143 c -0.435,0 -0.826,0.264 -0.987,0.666 l -9.334,23.229 c -0.097,0.241 -0.454,0.171 -0.454,-0.087 V 0 c 0,-0.4 -0.325,-0.725 -0.725,-0.725 h -4.182 c -0.401,0 -0.725,0.325 -0.725,0.725 v 36.844 c 0,0.4 0.324,0.725 0.725,0.725 h 4.321 c 0.355,0 0.674,-0.215 0.808,-0.542 l 12.4,-30.331 c 0.087,-0.212 0.387,-0.212 0.474,0 l 12.398,30.325 c 0.136,0.331 0.459,0.546 0.816,0.543 l 4.476,0.004 C -0.321,37.564 0,37.243 0,36.845 Z" />
          </g>
          <g
             transform="translate(136.1772,53.8175)"
             id="g11761"
             style="stroke-width:0.39301977">
            <path
               inkscape:connector-curvature="0"
               id="path11763"
               style="fill:#6e006e;fill-opacity:1;fill-rule:nonzero;stroke:none;stroke-width:0.39301977"
               d="m 0,0 v -24.426 c 0,-0.4 -0.324,-0.723 -0.723,-0.723 h -4.16 c -0.399,0 -0.723,0.323 -0.723,0.723 V 0 c 0,0.399 0.324,0.723 0.723,0.723 h 4.16 C -0.324,0.723 0,0.399 0,0 m -5.452,7.153 c -0.72,0.72 -1.08,1.594 -1.08,2.622 0,1.055 0.36,1.929 1.08,2.65 0.72,0.72 1.594,1.08 2.649,1.08 1.003,0 1.877,-0.36 2.597,-1.08 0.721,-0.721 1.081,-1.595 1.081,-2.65 0,-1.002 -0.36,-1.876 -1.081,-2.597 -0.72,-0.745 -1.594,-1.106 -2.597,-1.106 -1.055,0 -1.929,0.361 -2.649,1.081" />
          </g>
          <g
             transform="translate(142.5161,66.963)"
             id="g11765"
             style="stroke-width:0.39301977">
            <path
               inkscape:connector-curvature="0"
               id="path11767"
               style="fill:#6e006e;fill-opacity:1;fill-rule:nonzero;stroke:none;stroke-width:0.39301977"
               d="m 0,0 h 4.125 c 0.402,0 0.728,-0.326 0.728,-0.728 v -36.839 c 0,-0.402 -0.326,-0.728 -0.728,-0.728 H 0 c -0.402,0 -0.728,0.326 -0.728,0.728 V -0.728 C -0.728,-0.326 -0.402,0 0,0" />
          </g>
          <g
             transform="translate(169.6137,40.4728)"
             id="g11769"
             style="stroke-width:0.39301977">
            <path
               inkscape:connector-curvature="0"
               id="path11771"
               style="fill:#6e006e;fill-opacity:1;fill-rule:nonzero;stroke:none;stroke-width:0.39301977"
               d="m 0,0 h -6.867 c -1.62,0 -2.854,-0.36 -3.703,-1.08 -0.849,-0.72 -1.286,-1.724 -1.286,-3.035 0,-1.338 0.437,-2.341 1.337,-3.035 0.9,-0.694 2.135,-1.028 3.704,-1.028 1.929,0 3.549,0.642 4.86,1.903 C -0.643,-5.016 0,-3.138 0,-0.643 Z m 0.405,-11.314 c -0.125,0.663 -0.221,1.575 -0.302,2.724 -0.746,-1.157 -1.826,-2.109 -3.266,-2.829 -1.441,-0.72 -3.112,-1.08 -5.015,-1.08 -2.803,0 -5.067,0.746 -6.79,2.237 -1.723,1.492 -2.572,3.524 -2.572,6.095 0,2.521 0.849,4.501 2.546,5.941 1.698,1.441 3.987,2.161 6.867,2.161 H 0 v 1.003 c 0,3.523 -1.929,5.272 -5.812,5.272 -2.948,0 -5.096,-1.082 -6.443,-3.263 -0.209,-0.339 -0.657,-0.442 -1.002,-0.244 l -2.821,1.623 c -0.356,0.204 -0.492,0.66 -0.286,1.013 2.139,3.657 5.751,5.474 10.835,5.449 3.215,0 5.863,-0.823 7.921,-2.469 2.057,-1.646 3.086,-4.32 3.086,-7.998 V -6.275 c 0,-2.236 0.095,-3.841 0.284,-4.839 0.068,-0.361 -0.205,-0.691 -0.573,-0.691 H 1.005 c -0.293,0 -0.546,0.203 -0.6,0.491" />
          </g>
          <g
             transform="translate(63.5049,18.4499)"
             id="g11773"
             style="stroke-width:0.39301977">
            <path
               inkscape:connector-curvature="0"
               id="path11775"
               style="fill:#6e006e;fill-opacity:1;fill-rule:nonzero;stroke:none;stroke-width:0.39301977"
               d="m 0,0 c 0,-1.047 -0.856,-1.903 -1.909,-1.903 -1.047,0 -1.903,0.856 -1.903,1.903 0,1.053 0.856,1.903 1.903,1.903 C -0.856,1.903 0,1.053 0,0" />
          </g>
          <g
             transform="translate(63.5049,47.8117)"
             id="g11777"
             style="stroke-width:0.39301977">
            <path
               inkscape:connector-curvature="0"
               id="path11779"
               style="fill:#6e006e;fill-opacity:1;fill-rule:nonzero;stroke:none;stroke-width:0.39301977"
               d="m 0,0 c 0,-1.047 -0.855,-1.902 -1.909,-1.902 -1.047,0 -1.903,0.855 -1.903,1.902 0,1.054 0.856,1.903 1.903,1.903 C -0.855,1.903 0,1.054 0,0" />
          </g>
          <g
             transform="translate(80.8911,47.8117)"
             id="g11781"
             style="stroke-width:0.39301977">
            <path
               inkscape:connector-curvature="0"
               id="path11783"
               style="fill:#6e006e;fill-opacity:1;fill-rule:nonzero;stroke:none;stroke-width:0.39301977"
               d="m 0,0 c 0,-1.047 -0.856,-1.902 -1.909,-1.902 -1.047,0 -1.904,0.855 -1.904,1.902 0,1.054 0.857,1.903 1.904,1.903 C -0.856,1.903 0,1.054 0,0" />
          </g>
          <g
             transform="translate(72.1977,33.1305)"
             id="g11785"
             style="stroke-width:0.39301977">
            <path
               inkscape:connector-curvature="0"
               id="path11787"
               style="fill:#6e006e;fill-opacity:1;fill-rule:nonzero;stroke:none;stroke-width:0.39301977"
               d="m 0,0 c 0,-1.047 -0.855,-1.902 -1.909,-1.902 -1.047,0 -1.903,0.855 -1.903,1.902 0,1.054 0.856,1.903 1.903,1.903 C -0.855,1.903 0,1.054 0,0" />
          </g>
          <g
             transform="translate(54.8174,33.1305)"
             id="g11789"
             style="stroke-width:0.39301977">
            <path
               inkscape:connector-curvature="0"
               id="path11791"
               style="fill:#6e006e;fill-opacity:1;fill-rule:nonzero;stroke:none;stroke-width:0.39301977"
               d="m 0,0 c 0,-1.046 -0.856,-1.902 -1.909,-1.902 -1.047,0 -1.903,0.856 -1.903,1.902 0,1.054 0.856,1.903 1.903,1.903 C -0.856,1.903 0,1.054 0,0" />
          </g>
          <g
             transform="translate(72.143,62.4928)"
             id="g11793"
             style="stroke-width:0.39301977">
            <path
               inkscape:connector-curvature="0"
               id="path11795"
               style="fill:#6e006e;fill-opacity:1;fill-rule:nonzero;stroke:none;stroke-width:0.39301977"
               d="m 0,0 c 0,-1.047 -0.856,-1.903 -1.909,-1.903 -1.047,0 -1.904,0.856 -1.904,1.903 0,1.053 0.857,1.903 1.904,1.903 C -0.856,1.903 0,1.053 0,0" />
          </g>
          <g
             transform="translate(54.7529,62.4928)"
             id="g11797"
             style="stroke-width:0.39301977">
            <path
               inkscape:connector-curvature="0"
               id="path11799"
               style="fill:#6e006e;fill-opacity:1;fill-rule:nonzero;stroke:none;stroke-width:0.39301977"
               d="m 0,0 c 0,-1.047 -0.856,-1.903 -1.909,-1.903 -1.048,0 -1.903,0.856 -1.903,1.903 0,1.053 0.855,1.903 1.903,1.903 C -0.856,1.903 0,1.053 0,0" />
          </g>
          <g
             transform="translate(63.5049,77.1735)"
             id="g11801"
             style="stroke-width:0.39301977">
            <path
               inkscape:connector-curvature="0"
               id="path11803"
               style="fill:#6e006e;fill-opacity:1;fill-rule:nonzero;stroke:none;stroke-width:0.39301977"
               d="m 0,0 c 0,-1.047 -0.856,-1.902 -1.909,-1.902 -1.047,0 -1.903,0.855 -1.903,1.902 0,1.054 0.856,1.903 1.903,1.903 C -0.856,1.903 0,1.054 0,0" />
          </g>
          <g
             transform="translate(58.2739,76.7072)"
             id="g11805"
             style="stroke-width:0.39301977">
            <path
               inkscape:connector-curvature="0"
               id="path11807"
               style="fill:#6e006e;fill-opacity:1;fill-rule:nonzero;stroke:none;stroke-width:0.39301977"
               d="m 0,0 h -4.691 c -0.255,0 -0.461,0.207 -0.461,0.462 0,0.254 0.206,0.461 0.461,0.461 H 0 C 0.255,0.923 0.461,0.716 0.461,0.462 0.461,0.207 0.255,0 0,0" />
          </g>
          <g
             transform="translate(63.3022,50.1994)"
             id="g11809"
             style="stroke-width:0.39301977">
            <path
               inkscape:connector-curvature="0"
               id="path11811"
               style="fill:#6e006e;fill-opacity:1;fill-rule:nonzero;stroke:none;stroke-width:0.39301977"
               d="M 0,0 C -0.08,0 -0.16,0.021 -0.234,0.064 -0.453,0.193 -0.526,0.477 -0.396,0.696 L 4.886,9.648 C 5.015,9.868 5.298,9.941 5.518,9.812 5.737,9.682 5.81,9.399 5.68,9.18 L 0.398,0.227 C 0.312,0.081 0.158,0 0,0" />
          </g>
          <g
             transform="translate(54.6328,35.5065)"
             id="g11813"
             style="stroke-width:0.39301977">
            <path
               inkscape:connector-curvature="0"
               id="path11815"
               style="fill:#6e006e;fill-opacity:1;fill-rule:nonzero;stroke:none;stroke-width:0.39301977"
               d="m 0,0 c -0.08,0 -0.16,0.021 -0.234,0.063 -0.219,0.13 -0.292,0.414 -0.163,0.633 L 4.9,9.672 C 5.029,9.892 5.312,9.964 5.532,9.835 5.751,9.706 5.824,9.423 5.694,9.203 L 0.398,0.227 C 0.312,0.081 0.158,0 0,0" />
          </g>
          <g
             transform="translate(49.8374,27.4328)"
             id="g11817"
             style="stroke-width:0.39301977">
            <path
               inkscape:connector-curvature="0"
               id="path11819"
               style="fill:#6e006e;fill-opacity:1;fill-rule:nonzero;stroke:none;stroke-width:0.39301977"
               d="m 0,0 c -0.08,0 -0.16,0.021 -0.234,0.063 -0.219,0.13 -0.292,0.414 -0.163,0.632 L 1.027,3.054 C 1.156,3.273 1.438,3.346 1.659,3.217 1.877,3.088 1.951,2.805 1.821,2.585 L 0.398,0.227 C 0.312,0.081 0.158,0 0,0" />
          </g>
          <g
             transform="translate(71.9966,35.5182)"
             id="g11821"
             style="stroke-width:0.39301977">
            <path
               inkscape:connector-curvature="0"
               id="path11823"
               style="fill:#6e006e;fill-opacity:1;fill-rule:nonzero;stroke:none;stroke-width:0.39301977"
               d="m 0,0 c -0.08,0 -0.16,0.021 -0.234,0.064 -0.219,0.13 -0.292,0.413 -0.162,0.632 L 4.899,9.672 C 5.029,9.892 5.312,9.964 5.531,9.834 5.751,9.705 5.824,9.422 5.694,9.203 L 0.398,0.227 C 0.312,0.081 0.158,0 0,0" />
          </g>
          <g
             transform="translate(63.3252,20.8214)"
             id="g11825"
             style="stroke-width:0.39301977">
            <path
               inkscape:connector-curvature="0"
               id="path11827"
               style="fill:#6e006e;fill-opacity:1;fill-rule:nonzero;stroke:none;stroke-width:0.39301977"
               d="m 0,0 c -0.08,0 -0.16,0.021 -0.234,0.064 -0.219,0.13 -0.292,0.413 -0.163,0.632 L 4.9,9.673 C 5.029,9.892 5.312,9.965 5.532,9.836 5.751,9.706 5.824,9.423 5.695,9.204 L 0.398,0.227 C 0.312,0.081 0.158,0 0,0" />
          </g>
          <g
             transform="translate(54.5937,64.8522)"
             id="g11829"
             style="stroke-width:0.39301977">
            <path
               inkscape:connector-curvature="0"
               id="path11831"
               style="fill:#6e006e;fill-opacity:1;fill-rule:nonzero;stroke:none;stroke-width:0.39301977"
               d="M 0,0 C -0.08,0 -0.16,0.021 -0.234,0.064 -0.453,0.193 -0.526,0.477 -0.397,0.695 L 4.916,9.7 C 5.045,9.919 5.329,9.993 5.548,9.863 5.768,9.733 5.84,9.451 5.711,9.231 L 0.398,0.227 C 0.312,0.081 0.158,0 0,0" />
          </g>
          <g
             transform="translate(48.1591,53.9528)"
             id="g11833"
             style="stroke-width:0.39301977">
            <path
               inkscape:connector-curvature="0"
               id="path11835"
               style="fill:#6e006e;fill-opacity:1;fill-rule:nonzero;stroke:none;stroke-width:0.39301977"
               d="M 0,0 C -0.08,0 -0.16,0.021 -0.234,0.064 -0.453,0.193 -0.526,0.477 -0.397,0.696 L 2.667,5.88 C 2.795,6.1 3.079,6.173 3.298,6.043 3.518,5.914 3.59,5.631 3.46,5.412 L 0.398,0.227 C 0.312,0.081 0.158,0 0,0" />
          </g>
          <g
             transform="translate(51.1963,35.5114)"
             id="g11837"
             style="stroke-width:0.39301977">
            <path
               inkscape:connector-curvature="0"
               id="path11839"
               style="fill:#6e006e;fill-opacity:1;fill-rule:nonzero;stroke:none;stroke-width:0.39301977"
               d="m 0,0 c -0.158,0 -0.312,0.081 -0.397,0.227 l -2.997,5.077 c -0.129,0.219 -0.056,0.502 0.163,0.632 0.22,0.129 0.502,0.056 0.631,-0.163 L 0.397,0.696 C 0.526,0.477 0.454,0.193 0.234,0.064 0.161,0.021 0.08,0 0,0" />
          </g>
          <g
             transform="translate(59.8652,20.819)"
             id="g11841"
             style="stroke-width:0.39301977">
            <path
               inkscape:connector-curvature="0"
               id="path11843"
               style="fill:#6e006e;fill-opacity:1;fill-rule:nonzero;stroke:none;stroke-width:0.39301977"
               d="m 0,0 c -0.158,0 -0.312,0.081 -0.397,0.227 l -5.297,8.977 c -0.13,0.22 -0.057,0.503 0.163,0.632 0.219,0.129 0.502,0.057 0.632,-0.163 L 0.397,0.696 C 0.526,0.477 0.454,0.193 0.234,0.064 0.161,0.021 0.08,0 0,0" />
          </g>
          <g
             transform="translate(68.5659,64.902)"
             id="g11845"
             style="stroke-width:0.39301977">
            <path
               inkscape:connector-curvature="0"
               id="path11847"
               style="fill:#6e006e;fill-opacity:1;fill-rule:nonzero;stroke:none;stroke-width:0.39301977"
               d="m 0,0 c -0.158,0 -0.312,0.081 -0.398,0.227 l -5.281,8.951 c -0.13,0.219 -0.056,0.502 0.163,0.632 0.219,0.129 0.502,0.056 0.631,-0.163 L 0.397,0.695 C 0.526,0.477 0.454,0.193 0.234,0.064 0.16,0.021 0.08,0 0,0" />
          </g>
          <g
             transform="translate(51.25,64.9401)"
             id="g11849"
             style="stroke-width:0.39301977">
            <path
               inkscape:connector-curvature="0"
               id="path11851"
               style="fill:#6e006e;fill-opacity:1;fill-rule:nonzero;stroke:none;stroke-width:0.39301977"
               d="M 0,0 C -0.158,0 -0.312,0.081 -0.398,0.227 L -1.784,2.57 c -0.13,0.22 -0.057,0.502 0.163,0.632 0.219,0.129 0.502,0.056 0.632,-0.163 L 0.397,0.696 C 0.526,0.477 0.454,0.193 0.234,0.064 0.16,0.021 0.08,0 0,0" />
          </g>
          <g
             transform="translate(59.935,50.2213)"
             id="g11853"
             style="stroke-width:0.39301977">
            <path
               inkscape:connector-curvature="0"
               id="path11855"
               style="fill:#6e006e;fill-opacity:1;fill-rule:nonzero;stroke:none;stroke-width:0.39301977"
               d="m 0,0 c -0.158,0 -0.312,0.081 -0.398,0.227 l -5.314,9.006 c -0.13,0.22 -0.057,0.503 0.163,0.632 0.218,0.13 0.502,0.057 0.631,-0.162 L 0.397,0.695 C 0.526,0.477 0.453,0.193 0.234,0.064 0.16,0.021 0.08,0 0,0" />
          </g>
          <g
             transform="translate(68.6049,35.5265)"
             id="g11857"
             style="stroke-width:0.39301977">
            <path
               inkscape:connector-curvature="0"
               id="path11859"
               style="fill:#6e006e;fill-opacity:1;fill-rule:nonzero;stroke:none;stroke-width:0.39301977"
               d="m 0,0 c -0.158,0 -0.312,0.081 -0.398,0.228 l -5.298,8.98 c -0.13,0.219 -0.057,0.501 0.162,0.631 0.221,0.129 0.503,0.057 0.632,-0.163 L 0.397,0.696 C 0.526,0.477 0.453,0.194 0.234,0.064 0.16,0.021 0.08,0 0,0" />
          </g>
          <g
             transform="translate(66.9111,62.0314)"
             id="g11861"
             style="stroke-width:0.39301977">
            <path
               inkscape:connector-curvature="0"
               id="path11863"
               style="fill:#6e006e;fill-opacity:1;fill-rule:nonzero;stroke:none;stroke-width:0.39301977"
               d="m 0,0 h -10.741 c -0.255,0 -0.462,0.207 -0.462,0.461 0,0.255 0.207,0.462 0.462,0.462 H 0 C 0.255,0.923 0.462,0.716 0.462,0.461 0.462,0.207 0.255,0 0,0" />
          </g>
          <g
             transform="translate(77.2505,50.1828)"
             id="g11865"
             style="stroke-width:0.39301977">
            <path
               inkscape:connector-curvature="0"
               id="path11867"
               style="fill:#6e006e;fill-opacity:1;fill-rule:nonzero;stroke:none;stroke-width:0.39301977"
               d="m 0,0 c -0.158,0 -0.312,0.081 -0.397,0.227 l -5.31,8.998 c -0.129,0.219 -0.056,0.502 0.163,0.631 0.22,0.13 0.503,0.057 0.632,-0.163 L 0.397,0.696 C 0.526,0.477 0.454,0.193 0.234,0.064 0.161,0.021 0.08,0 0,0" />
          </g>
          <g
             transform="translate(49.5219,62.9543)"
             id="g11869"
             style="stroke-width:0.39301977">
            <path
               inkscape:connector-curvature="0"
               id="path11871"
               style="fill:#6e006e;fill-opacity:1;fill-rule:nonzero;stroke:none;stroke-width:0.39301977"
               d="M 0,0 C 0.255,0 0.461,-0.207 0.461,-0.461 0.461,-0.716 0.254,-0.923 0,-0.923 v 0 l -3.464,0.001 c -0.255,0 -0.461,0.207 -0.461,0.462 0,0.254 0.207,0.461 0.461,0.461 z" />
          </g>
          <g
             transform="translate(58.2739,47.3503)"
             id="g11873"
             style="stroke-width:0.39301977">
            <path
               inkscape:connector-curvature="0"
               id="path11875"
               style="fill:#6e006e;fill-opacity:1;fill-rule:nonzero;stroke:none;stroke-width:0.39301977"
               d="m 0,0 h -5.968 c -0.255,0 -0.462,0.207 -0.462,0.462 0,0.254 0.207,0.461 0.462,0.461 H 0 C 0.255,0.923 0.461,0.716 0.461,0.462 0.461,0.207 0.255,0 0,0" />
          </g>
          <g
             transform="translate(75.6606,47.3503)"
             id="g11877"
             style="stroke-width:0.39301977">
            <path
               inkscape:connector-curvature="0"
               id="path11879"
               style="fill:#6e006e;fill-opacity:1;fill-rule:nonzero;stroke:none;stroke-width:0.39301977"
               d="m 0,0 h -10.736 c -0.255,0 -0.462,0.207 -0.462,0.462 0,0.254 0.207,0.461 0.462,0.461 H 0 C 0.255,0.923 0.461,0.716 0.461,0.462 0.461,0.207 0.255,0 0,0" />
          </g>
          <g
             transform="translate(49.5874,32.6691)"
             id="g11881"
             style="stroke-width:0.39301977">
            <path
               inkscape:connector-curvature="0"
               id="path11883"
               style="fill:#6e006e;fill-opacity:1;fill-rule:nonzero;stroke:none;stroke-width:0.39301977"
               d="m 0,0 h -3.515 c -0.255,0 -0.462,0.207 -0.462,0.462 0,0.254 0.207,0.461 0.462,0.461 H 0 C 0.255,0.923 0.461,0.716 0.461,0.462 0.461,0.207 0.255,0 0,0" />
          </g>
          <g
             transform="translate(66.9673,32.6691)"
             id="g11885"
             style="stroke-width:0.39301977">
            <path
               inkscape:connector-curvature="0"
               id="path11887"
               style="fill:#6e006e;fill-opacity:1;fill-rule:nonzero;stroke:none;stroke-width:0.39301977"
               d="m 0,0 h -10.732 c -0.255,0 -0.461,0.207 -0.461,0.462 0,0.254 0.206,0.461 0.461,0.461 H 0 C 0.255,0.923 0.461,0.716 0.461,0.462 0.461,0.207 0.255,0 0,0" />
          </g>
          <g
             transform="translate(58.2749,17.9899)"
             id="g11889"
             style="stroke-width:0.39301977">
            <path
               inkscape:connector-curvature="0"
               id="path11891"
               style="fill:#6e006e;fill-opacity:1;fill-rule:nonzero;stroke:none;stroke-width:0.39301977"
               d="m 0,0 h -4.681 c -0.255,0 -0.461,0.206 -0.461,0.461 0,0.255 0.206,0.461 0.461,0.461 H 0 C 0.255,0.922 0.461,0.716 0.461,0.461 0.461,0.206 0.255,0 0,0" />
          </g>
          <g
             transform="translate(23.2646,53.9113)"
             id="g11893"
             style="stroke-width:0.39301977">
            <path
               inkscape:connector-curvature="0"
               id="path11895"
               style="fill:#6e006e;fill-opacity:1;fill-rule:nonzero;stroke:none;stroke-width:0.39301977"
               d="m 0,0 c 4.257,0 7.72,3.463 7.72,7.719 0,4.257 -3.463,7.719 -7.72,7.719 -4.256,0 -7.718,-3.462 -7.718,-7.719 C -7.718,3.463 -4.256,0 0,0" />
          </g>
          <g
             transform="translate(33.351,61.7648)"
             id="g11897"
             style="stroke-width:0.39301977">
            <path
               inkscape:connector-curvature="0"
               id="path11899"
               style="fill:#6e006e;fill-opacity:1;fill-rule:nonzero;stroke:none;stroke-width:0.39301977"
               d="m 0,0 c 0,-3.116 2.536,-5.651 5.651,-5.651 3.117,0 5.651,2.535 5.651,5.651 0,3.116 -2.534,5.651 -5.651,5.651 C 2.536,5.651 0,3.116 0,0" />
          </g>
          <g
             transform="translate(32.6191,70.1232)"
             id="g11901"
             style="stroke-width:0.39301977">
            <path
               inkscape:connector-curvature="0"
               id="path11903"
               style="fill:#6e006e;fill-opacity:1;fill-rule:nonzero;stroke:none;stroke-width:0.39301977"
               d="M 0,0 C 2.424,0 4.396,1.972 4.396,4.396 4.396,6.82 2.424,8.792 0,8.792 -2.424,8.792 -4.396,6.82 -4.396,4.396 -4.396,1.972 -2.424,0 0,0" />
          </g>
          <g
             transform="translate(31.4609,42.6754)"
             id="g11905"
             style="stroke-width:0.39301977">
            <path
               inkscape:connector-curvature="0"
               id="path11907"
               style="fill:#6e006e;fill-opacity:1;fill-rule:nonzero;stroke:none;stroke-width:0.39301977"
               d="M 0,0 C 2.753,0 4.993,2.24 4.993,4.993 4.993,7.747 2.753,9.986 0,9.986 -2.753,9.986 -4.993,7.747 -4.993,4.993 -4.993,2.24 -2.753,0 0,0" />
          </g>
          <g
             transform="translate(20.1435,43.7101)"
             id="g11909"
             style="stroke-width:0.39301977">
            <path
               inkscape:connector-curvature="0"
               id="path11911"
               style="fill:#6e006e;fill-opacity:1;fill-rule:nonzero;stroke:none;stroke-width:0.39301977"
               d="M 0,0 C 2.183,0 3.958,1.776 3.958,3.958 3.958,6.141 2.183,7.917 0,7.917 -2.183,7.917 -3.958,6.141 -3.958,3.958 -3.958,1.776 -2.183,0 0,0" />
          </g>
          <g
             transform="translate(46.8628,68.5163)"
             id="g11913"
             style="stroke-width:0.39301977">
            <path
               inkscape:connector-curvature="0"
               id="path11915"
               style="fill:#6e006e;fill-opacity:1;fill-rule:nonzero;stroke:none;stroke-width:0.39301977"
               d="m 0,0 c 3.232,0 5.862,2.629 5.862,5.861 0,3.233 -2.63,5.862 -5.862,5.862 -3.232,0 -5.861,-2.629 -5.861,-5.862 C -5.861,2.629 -3.232,0 0,0" />
          </g>
          <g
             transform="translate(32.6191,16.9894)"
             id="g11917"
             style="stroke-width:0.39301977">
            <path
               inkscape:connector-curvature="0"
               id="path11919"
               style="fill:#6e006e;fill-opacity:1;fill-rule:nonzero;stroke:none;stroke-width:0.39301977"
               d="M 0,0 C 2.556,0 4.635,2.08 4.635,4.635 4.635,7.192 2.556,9.272 0,9.272 -2.557,9.272 -4.636,7.192 -4.636,4.635 -4.636,2.08 -2.557,0 0,0" />
          </g>
          <g
             transform="translate(46.8628,15.3839)"
             id="g11921"
             style="stroke-width:0.39301977">
            <path
               inkscape:connector-curvature="0"
               id="path11923"
               style="fill:#6e006e;fill-opacity:1;fill-rule:nonzero;stroke:none;stroke-width:0.39301977"
               d="m 0,0 c 3.232,0 5.862,2.629 5.862,5.862 0,3.233 -2.63,5.862 -5.862,5.862 -3.232,0 -5.861,-2.629 -5.861,-5.862 C -5.861,2.629 -3.232,0 0,0" />
          </g>
          <g
             transform="translate(23.2661,26.2741)"
             id="g11925"
             style="stroke-width:0.39301977">
            <path
               inkscape:connector-curvature="0"
               id="path11927"
               style="fill:#6e006e;fill-opacity:1;fill-rule:nonzero;stroke:none;stroke-width:0.39301977"
               d="m 0,0 c -4.256,0 -7.72,3.463 -7.72,7.719 0,4.257 3.464,7.719 7.72,7.719 4.256,0 7.719,-3.462 7.719,-7.719 C 7.719,3.463 4.256,0 0,0" />
          </g>
          <g
             transform="translate(44.854,41.674)"
             id="g11929"
             style="stroke-width:0.39301977">
            <path
               inkscape:connector-curvature="0"
               id="path11931"
               style="fill:#6e006e;fill-opacity:1;fill-rule:nonzero;stroke:none;stroke-width:0.39301977"
               d="m 0,0 c -3.327,0 -6.034,2.707 -6.034,6.033 0,3.327 2.707,6.034 6.034,6.034 3.327,0 6.033,-2.707 6.033,-6.034 C 6.033,2.707 3.327,0 0,0" />
          </g>
          <g
             transform="translate(33.351,33.6496)"
             id="g11933"
             style="stroke-width:0.39301977">
            <path
               inkscape:connector-curvature="0"
               id="path11935"
               style="fill:#6e006e;fill-opacity:1;fill-rule:nonzero;stroke:none;stroke-width:0.39301977"
               d="m 0,0 c 0,-3.116 2.536,-5.651 5.651,-5.651 3.117,0 5.651,2.535 5.651,5.651 0,3.117 -2.534,5.651 -5.651,5.651 C 2.536,5.651 0,3.117 0,0" />
          </g>
        </g>
      </g>
    </g>
    <text
       xml:space="preserve"
       style="font-style:normal;font-weight:normal;font-size:12.69118404px;line-height:1.25;font-family:sans-serif;letter-spacing:0px;word-spacing:0px;fill:#000000;fill-opacity:1;stroke:none;stroke-width:0.26458332"
       x="48.709625"
       y="-485.76019"
       id="text12034"><tspan
         sodipodi:role="line"
         id="tspan12032"
         x="48.709625"
         y="-485.76019"
         style="font-style:normal;font-variant:normal;font-weight:normal;font-stretch:normal;font-size:33.84315491px;font-family:sans-serif;-inkscape-font-specification:sans-serif;letter-spacing:6.34559202px;stroke-width:0.26458332">tunnel</tspan></text>
  </g>
</svg>
