<?xml version="1.0" encoding="UTF-8" standalone="no"?>
<!-- Created with Inkscape (http://www.inkscape.org/) -->

<svg
   xmlns:ns1="http://www.iki.fi/pav/software/textext/"
   xmlns:osb="http://www.openswatchbook.org/uri/2009/osb"
   xmlns:dc="http://purl.org/dc/elements/1.1/"
   xmlns:cc="http://creativecommons.org/ns#"
   xmlns:rdf="http://www.w3.org/1999/02/22-rdf-syntax-ns#"
   xmlns:svg="http://www.w3.org/2000/svg"
   xmlns="http://www.w3.org/2000/svg"
   xmlns:xlink="http://www.w3.org/1999/xlink"
   xmlns:sodipodi="http://sodipodi.sourceforge.net/DTD/sodipodi-0.dtd"
   xmlns:inkscape="http://www.inkscape.org/namespaces/inkscape"
   width="11in"
   height="8.5in"
   viewBox="0 0 279.4 215.9"
   version="1.1"
   id="svg8"
   inkscape:version="0.92.2 5c3e80d, 2017-08-06"
   sodipodi:docname="mps_mpo.svg">
  <sodipodi:namedview
     id="base"
     pagecolor="#ffffff"
     bordercolor="#666666"
     borderopacity="1.0"
     inkscape:pageopacity="0.0"
     inkscape:pageshadow="2"
     inkscape:zoom="1.2079157"
     inkscape:cx="696.31384"
     inkscape:cy="426.56729"
     inkscape:document-units="mm"
     inkscape:current-layer="layer1"
     showgrid="false"
     units="in"
     inkscape:window-width="2560"
     inkscape:window-height="1395"
     inkscape:window-x="0"
     inkscape:window-y="1"
     inkscape:window-maximized="1" />
  <defs
     id="defs2">
    <marker
       inkscape:isstock="true"
       style="overflow:visible;"
       id="Arrow2Mend"
       refX="0.0"
       refY="0.0"
       orient="auto"
       inkscape:stockid="Arrow2Mend">
      <path
         transform="scale(0.6) rotate(180) translate(0,0)"
         d="M 8.7185878,4.0337352 L -2.2072895,0.016013256 L 8.7185884,-4.0017078 C 6.9730900,-1.6296469 6.9831476,1.6157441 8.7185878,4.0337352 z "
         style="fill-rule:evenodd;stroke-width:0.625;stroke-linejoin:round;stroke:#000000;stroke-opacity:1;fill:#000000;fill-opacity:1"
         id="path1092" />
    </marker>
    <marker
       inkscape:isstock="true"
       style="overflow:visible;"
       id="Arrow1Mend"
       refX="0.0"
       refY="0.0"
       orient="auto"
       inkscape:stockid="Arrow1Mend">
      <path
         transform="scale(0.4) rotate(180) translate(10,0)"
         style="fill-rule:evenodd;stroke:#000000;stroke-width:1pt;stroke-opacity:1;fill:#000000;fill-opacity:1"
         d="M 0.0,0.0 L 5.0,-5.0 L -12.5,0.0 L 5.0,5.0 L 0.0,0.0 z "
         id="path1074" />
    </marker>
    <marker
       inkscape:isstock="true"
       style="overflow:visible;"
       id="Arrow1Lend"
       refX="0.0"
       refY="0.0"
       orient="auto"
       inkscape:stockid="Arrow1Lend">
      <path
         transform="scale(0.8) rotate(180) translate(12.5,0)"
         style="fill-rule:evenodd;stroke:#108f33;stroke-width:1pt;stroke-opacity:1;fill:#108f33;fill-opacity:1"
         d="M 0.0,0.0 L 5.0,-5.0 L -12.5,0.0 L 5.0,5.0 L 0.0,0.0 z "
         id="path1068" />
    </marker>
    <linearGradient
       id="linearGradient6404"
       inkscape:collect="always">
      <stop
         id="stop6400"
         offset="0"
         style="stop-color:#025d1a;stop-opacity:1" />
      <stop
         id="stop6402"
         offset="1"
         style="stop-color:#108f33;stop-opacity:1" />
    </linearGradient>
    <linearGradient
       osb:paint="solid"
       id="linearGradient6273">
      <stop
         id="stop6271"
         offset="0"
         style="stop-color:#00a432;stop-opacity:1;" />
    </linearGradient>
    <filter
       height="1.0055226"
       y="-0.0027612751"
       width="1.0042446"
       x="-0.002122323"
       id="filter6348"
       style="color-interpolation-filters:sRGB"
       inkscape:collect="always">
      <feGaussianBlur
         id="feGaussianBlur6350"
         stdDeviation="0.24428801"
         inkscape:collect="always" />
    </filter>
    <radialGradient
       gradientUnits="userSpaceOnUse"
       gradientTransform="matrix(1,0,0,0.2123412,0,77.528503)"
       r="138.12488"
       fy="98.429047"
       fx="139.7"
       cy="98.429047"
       cx="139.7"
       id="radialGradient6408"
       xlink:href="#linearGradient6404"
       inkscape:collect="always" />
  </defs>
  <metadata
     id="metadata5">
    <rdf:RDF>
      <cc:Work
         rdf:about="">
        <dc:format>image/svg+xml</dc:format>
        <dc:type
           rdf:resource="http://purl.org/dc/dcmitype/StillImage" />
        <dc:title />
      </cc:Work>
    </rdf:RDF>
  </metadata>
  <g
     transform="translate(0,-81.1)"
     id="layer1"
     inkscape:groupmode="layer"
     inkscape:label="Layer 1">
    <flowRoot
       style="fill:black;fill-opacity:1;stroke:none;font-family:sans-serif;font-style:normal;font-weight:normal;font-size:40px;line-height:1.25;letter-spacing:0px;word-spacing:0px;text-anchor:middle;text-align:center;"
       id="flowRoot58"
       xml:space="preserve"><flowRegion
         style="text-anchor:middle;text-align:center;"
         id="flowRegion60"><rect
           ry="0"
           style="text-align:center;text-anchor:middle"
           y="-79.343483"
           x="0.94745576"
           height="69.164101"
           width="1053.5682"
           id="rect62" /></flowRegion><flowPara
         id="flowPara64" /></flowRoot>    <rect
       ry="8.2724438"
       y="82.886871"
       x="1.5751221"
       height="212.32626"
       width="276.24976"
       id="rect4700"
       style="fill:none;stroke:#108f33;stroke-width:1.5;stroke-linejoin:round;stroke-miterlimit:100;stroke-dasharray:none;stroke-opacity:1;filter:url(#filter6348)"
       rx="8.2724438" />
    <g
       id="g6448">
      <rect
         style="fill:#108f33;fill-opacity:1;stroke:none;stroke-width:1.5;stroke-linejoin:round;stroke-miterlimit:100;stroke-dasharray:none;stroke-opacity:1"
         id="rect6398"
         width="275.74841"
         height="14.790143"
         x="1.7547625"
         y="99.798836"
         rx="0.25066575"
         ry="0.25066575" />
      <rect
         ry="8.2724438"
         y="82.886864"
         x="1.5751221"
         height="31.084362"
         width="276.24976"
         id="rect6384"
         style="fill:url(#radialGradient6408);fill-opacity:1;stroke:none;stroke-width:1.5;stroke-linejoin:round;stroke-miterlimit:100;stroke-dasharray:none;stroke-opacity:1"
         rx="8.2724438" />
    </g>
    <flowRoot
       transform="matrix(0.30619704,0,0,0.30619704,-21.481345,126.79497)"
       style="font-style:normal;font-weight:normal;font-size:34.56380081px;line-height:1.25;font-family:sans-serif;letter-spacing:0px;word-spacing:0px;fill:#fbfbfb;fill-opacity:1;stroke:none;stroke-width:0.86409497"
       id="flowRoot66"
       xml:space="preserve"><flowRegion
         style="fill:#fbfbfb;fill-opacity:1;stroke-width:0.86409497"
         id="flowRegion68"><rect
           style="fill:#fbfbfb;fill-opacity:1;stroke-width:0.86409497"
           y="-123.87379"
           x="-3.7898138"
           height="110.85205"
           width="1060.2003"
           id="rect70" /></flowRegion><flowPara
         style="font-style:normal;font-variant:normal;font-weight:normal;font-stretch:normal;font-size:51.84569931px;font-family:Palatino;-inkscape-font-specification:Palatino;text-align:center;text-anchor:middle;fill:#fbfbfb;fill-opacity:1;stroke-width:0.86409497"
         id="flowPara72">Matrix Product States/Operators</flowPara></flowRoot>    <flowRoot
       transform="matrix(0.23351679,0,0,0.23351679,26.720806,8.4053533)"
       style="font-style:normal;font-weight:normal;font-size:40px;line-height:1;font-family:sans-serif;letter-spacing:0px;word-spacing:0px;fill:#000000;fill-opacity:1;stroke:none;stroke-width:1.13303769"
       id="flowRoot6527"
       xml:space="preserve"><flowRegion
         style="stroke-width:1.13303769"
         id="flowRegion6529"><rect
           style="stroke-width:1.13303769"
           y="614.19244"
           x="641.42596"
           height="73.321831"
           width="376.50699"
           id="rect6531" /></flowRegion><flowPara
         style="font-style:italic;font-variant:normal;font-weight:normal;font-stretch:normal;font-size:26.66666794px;font-family:Palatino;-inkscape-font-specification:'Palatino Italic';font-variant-ligatures:normal;font-variant-caps:normal;font-variant-numeric:normal;font-feature-settings:normal;text-align:start;writing-mode:lr-tb;text-anchor:start;stroke-width:1.13303769"
         id="flowPara6533">Factorize large vector as MPS</flowPara></flowRoot>    <path
       sodipodi:nodetypes="csc"
       inkscape:connector-curvature="0"
       id="path1639"
       d="m 257.46697,145.2441 c 0,0 9.18595,3.41686 7.34624,9.17417 -1.68765,5.28145 -7.73288,11.30071 -7.73288,11.30071"
       style="fill:none;stroke:#000000;stroke-width:1.06500006;stroke-linecap:butt;stroke-linejoin:miter;stroke-miterlimit:4;stroke-dasharray:1.06500005, 1.06500005;stroke-dashoffset:0;stroke-opacity:1;marker-end:url(#Arrow2Mend)" />
    <g
       style="stroke-width:1.13303769"
       transform="matrix(0.88258314,0,0,0.88258314,25.62596,19.278764)"
       id="g2040">
      <path
         style="fill:none;stroke:#000000;stroke-width:0.56651884;stroke-linecap:round;stroke-linejoin:miter;stroke-miterlimit:4;stroke-dasharray:none;stroke-opacity:1"
         d="m 175.43206,186.34508 v 8.58825"
         id="path6556"
         inkscape:connector-curvature="0" />
      <path
         inkscape:connector-curvature="0"
         id="path6564"
         d="m 201.29739,186.34508 v 8.58825"
         style="fill:none;stroke:#000000;stroke-width:0.56651884;stroke-linecap:round;stroke-linejoin:miter;stroke-miterlimit:4;stroke-dasharray:none;stroke-opacity:1" />
      <path
         style="fill:none;stroke:#000000;stroke-width:0.56651884;stroke-linecap:butt;stroke-linejoin:miter;stroke-miterlimit:4;stroke-dasharray:none;stroke-opacity:1"
         d="m 185.244,176.28034 h 6.24583"
         id="path6568"
         inkscape:connector-curvature="0" />
      <path
         inkscape:connector-curvature="0"
         id="path6572"
         d="m 227.16272,186.34508 v 8.58825"
         style="fill:none;stroke:#000000;stroke-width:0.56651884;stroke-linecap:round;stroke-linejoin:miter;stroke-miterlimit:4;stroke-dasharray:none;stroke-opacity:1" />
      <path
         style="fill:none;stroke:#000000;stroke-width:0.56651884;stroke-linecap:round;stroke-linejoin:miter;stroke-miterlimit:4;stroke-dasharray:none;stroke-opacity:1"
         d="m 253.02805,186.34508 v 8.58825"
         id="path6578"
         inkscape:connector-curvature="0" />
      <path
         inkscape:connector-curvature="0"
         id="path6582"
         d="m 236.97466,176.28034 h 6.24583"
         style="fill:none;stroke:#000000;stroke-width:0.56651884;stroke-linecap:butt;stroke-linejoin:miter;stroke-miterlimit:4;stroke-dasharray:none;stroke-opacity:1" />
      <path
         inkscape:connector-curvature="0"
         id="path6584"
         d="m 211.10933,176.28034 h 6.24583"
         style="fill:none;stroke:#000000;stroke-width:0.56651884;stroke-linecap:butt;stroke-linejoin:miter;stroke-miterlimit:4;stroke-dasharray:none;stroke-opacity:1" />
      <g
         style="stroke-width:1.13303769"
         id="g1981">
        <ellipse
           ry="9.8297796"
           rx="9.8024712"
           style="fill:#ffe571;fill-opacity:1;stroke:#000000;stroke-width:0.56651884;stroke-linejoin:round;stroke-miterlimit:100;stroke-dasharray:none;stroke-opacity:1"
           id="circle6562"
           cx="201.29553"
           cy="176.4839" />
        <g
           style="stroke-width:0.485807"
           id="g1349"
           ns1:jacobian_sqrt="0.352778"
           inkscapeversion="0.92.2"
           ns1:alignment="middle center"
           ns1:scale="1.0"
           ns1:preamble="/Users/jemis/.config/inkscape/extensions/textext/default_packages.tex"
           ns1:text="$\\mathcal{A}_2$"
           ns1:pdfconverter="pdf2svg"
           ns1:texconverter="pdflatex"
           ns1:version="0.11.0"
           transform="matrix(0.82277696,0,0,0.82277696,74.22847,68.099664)">
          <g
             style="stroke-width:0.485807"
             id="surface1">
            <g
               id="g1342"
               style="fill:#000000;fill-opacity:1;stroke-width:0.485807">
              <path
                 id="path1340"
                 transform="translate(148.712,134.765)"
                 d="m 5.9375,-1.640625 c 0.046875,0.625 0.15625,1.078125 0.21875,1.265625 0.109375,0.453125 0.15625,0.671875 0.578125,0.671875 0.453125,0 1.21875,-0.453125 1.21875,-0.640625 0,-0.0625 -0.03125,-0.078125 -0.09375,-0.078125 -0.125,0 -0.328125,0.109375 -0.359375,0.125 C 7.421875,-0.25 7.40625,-0.25 7.390625,-0.25 7.109375,-0.25 7.046875,-0.515625 6.921875,-1.109375 6.859375,-1.453125 6.765625,-1.84375 6.6875,-3.203125 6.625,-4.234375 6.578125,-5.25 6.578125,-6.265625 6.578125,-6.5 6.59375,-6.765625 6.59375,-7 c 0,-0.15625 0,-0.203125 -0.109375,-0.203125 -0.140625,0 -0.546875,0.171875 -0.734375,0.4375 L 5.6875,-6.65625 c -0.796875,1.6875 -1.53125,2.890625 -2.046875,3.703125 -0.59375,0.90625 -1.625,2.53125 -2.171875,2.53125 -0.359375,0 -0.671875,-0.234375 -0.765625,-0.59375 0,-0.015625 -0.03125,-0.078125 -0.0625,-0.078125 -0.15625,0 -0.375,0.46875 -0.375,0.75 0,0.40625 0.4375,0.84375 0.90625,0.84375 C 1.859375,0.5 3,-1.296875 3.21875,-1.640625 Z M 5.734375,-5.96875 v 0.578125 c 0,0.578125 0.015625,1.15625 0.046875,1.734375 0.015625,0.203125 0.046875,0.9375 0.09375,1.46875 H 4.0625 c -0.171875,0 -0.3125,0 -0.578125,0.15625 0.703125,-1.078125 1.28125,-2.109375 1.34375,-2.21875 0.5,-0.890625 0.765625,-1.46875 0.890625,-1.71875 z m 0,0"
                 style="stroke:none;stroke-width:0"
                 inkscape:connector-curvature="0" />
            </g>
            <g
               id="g1346"
               style="fill:#000000;fill-opacity:1;stroke-width:0.485807">
              <path
                 id="path1344"
                 transform="translate(156.667,136.259)"
                 d="M 3.515625,-1.265625 H 3.28125 c -0.015625,0.15625 -0.09375,0.5625 -0.1875,0.625 C 3.046875,-0.59375 2.515625,-0.59375 2.40625,-0.59375 H 1.125 c 0.734375,-0.640625 0.984375,-0.84375 1.390625,-1.171875 0.515625,-0.40625 1,-0.84375 1,-1.5 0,-0.84375 -0.734375,-1.359375 -1.625,-1.359375 -0.859375,0 -1.453125,0.609375 -1.453125,1.25 0,0.34375 0.296875,0.390625 0.375,0.390625 0.15625,0 0.359375,-0.125 0.359375,-0.375 0,-0.125 -0.046875,-0.375 -0.40625,-0.375 C 0.984375,-4.21875 1.453125,-4.375 1.78125,-4.375 c 0.703125,0 1.0625,0.546875 1.0625,1.109375 0,0.609375 -0.4375,1.078125 -0.65625,1.328125 L 0.515625,-0.265625 C 0.4375,-0.203125 0.4375,-0.1875 0.4375,0 h 2.875 z m 0,0"
                 style="stroke:none;stroke-width:0"
                 inkscape:connector-curvature="0" />
            </g>
          </g>
        </g>
      </g>
      <g
         style="stroke-width:1.13303769"
         id="g1972">
        <ellipse
           ry="9.8297796"
           rx="9.8024712"
           cy="176.4839"
           cx="175.43019"
           id="path6554"
           style="fill:#ffe571;fill-opacity:1;stroke:#000000;stroke-width:0.56651884;stroke-linejoin:round;stroke-miterlimit:100;stroke-dasharray:none;stroke-opacity:1" />
        <g
           style="stroke-width:0.485807"
           transform="matrix(0.82277696,0,0,0.82277696,48.389278,68.094645)"
           ns1:version="0.11.0"
           ns1:texconverter="pdflatex"
           ns1:pdfconverter="pdf2svg"
           ns1:text="$\\mathcal{A}_1$"
           ns1:preamble="/Users/jemis/.config/inkscape/extensions/textext/default_packages.tex"
           ns1:scale="1.0"
           ns1:alignment="middle center"
           inkscapeversion="0.92.2"
           ns1:jacobian_sqrt="0.352778"
           id="g1509">
          <g
             style="stroke-width:0.485807"
             id="g1507">
            <g
               style="fill:#000000;fill-opacity:1;stroke-width:0.485807"
               id="g1501">
              <path
                 inkscape:connector-curvature="0"
                 style="stroke:none;stroke-width:0"
                 d="m 5.9375,-1.640625 c 0.046875,0.625 0.15625,1.078125 0.21875,1.265625 0.109375,0.453125 0.15625,0.671875 0.578125,0.671875 0.453125,0 1.21875,-0.453125 1.21875,-0.640625 0,-0.0625 -0.03125,-0.078125 -0.09375,-0.078125 -0.125,0 -0.328125,0.109375 -0.359375,0.125 C 7.421875,-0.25 7.40625,-0.25 7.390625,-0.25 7.109375,-0.25 7.046875,-0.515625 6.921875,-1.109375 6.859375,-1.453125 6.765625,-1.84375 6.6875,-3.203125 6.625,-4.234375 6.578125,-5.25 6.578125,-6.265625 6.578125,-6.5 6.59375,-6.765625 6.59375,-7 c 0,-0.15625 0,-0.203125 -0.109375,-0.203125 -0.140625,0 -0.546875,0.171875 -0.734375,0.4375 L 5.6875,-6.65625 c -0.796875,1.6875 -1.53125,2.890625 -2.046875,3.703125 -0.59375,0.90625 -1.625,2.53125 -2.171875,2.53125 -0.359375,0 -0.671875,-0.234375 -0.765625,-0.59375 0,-0.015625 -0.03125,-0.078125 -0.0625,-0.078125 -0.15625,0 -0.375,0.46875 -0.375,0.75 0,0.40625 0.4375,0.84375 0.90625,0.84375 C 1.859375,0.5 3,-1.296875 3.21875,-1.640625 Z M 5.734375,-5.96875 v 0.578125 c 0,0.578125 0.015625,1.15625 0.046875,1.734375 0.015625,0.203125 0.046875,0.9375 0.09375,1.46875 H 4.0625 c -0.171875,0 -0.3125,0 -0.578125,0.15625 0.703125,-1.078125 1.28125,-2.109375 1.34375,-2.21875 0.5,-0.890625 0.765625,-1.46875 0.890625,-1.71875 z m 0,0"
                 transform="translate(148.712,134.765)"
                 id="path1499" />
            </g>
            <g
               style="fill:#000000;fill-opacity:1;stroke-width:0.485807"
               id="g1505">
              <path
                 inkscape:connector-curvature="0"
                 style="stroke:none;stroke-width:0"
                 d="m 2.328125,-4.4375 c 0,-0.1875 0,-0.1875 -0.203125,-0.1875 -0.453125,0.4375 -1.078125,0.4375 -1.359375,0.4375 v 0.25 c 0.15625,0 0.625,0 1,-0.1875 v 3.546875 c 0,0.234375 0,0.328125 -0.6875,0.328125 H 0.8125 V 0 c 0.125,0 0.984375,-0.03125 1.234375,-0.03125 0.21875,0 1.09375,0.03125 1.25,0.03125 V -0.25 H 3.03125 c -0.703125,0 -0.703125,-0.09375 -0.703125,-0.328125 z m 0,0"
                 transform="translate(156.667,136.259)"
                 id="path1503" />
            </g>
          </g>
        </g>
      </g>
      <g
         style="stroke-width:1.13303769"
         id="g1990">
        <ellipse
           ry="9.8297796"
           rx="9.8024712"
           style="fill:#ffe571;fill-opacity:1;stroke:#000000;stroke-width:0.56651884;stroke-linejoin:round;stroke-miterlimit:100;stroke-dasharray:none;stroke-opacity:1"
           id="circle6570"
           cx="227.16086"
           cy="176.4839" />
        <g
           style="stroke-width:0.485807"
           id="g1681"
           ns1:jacobian_sqrt="0.352778"
           inkscapeversion="0.92.2"
           ns1:alignment="middle center"
           ns1:scale="1.0"
           ns1:preamble="/Users/jemis/.config/inkscape/extensions/textext/default_packages.tex"
           ns1:text="$\\mathcal{A}_3$"
           ns1:pdfconverter="pdf2svg"
           ns1:texconverter="pdflatex"
           ns1:version="0.11.0"
           transform="matrix(0.82277696,0,0,0.82277696,100.13191,67.854275)">
          <g
             style="stroke-width:0.485807"
             id="g1679">
            <g
               id="g1673"
               style="fill:#000000;fill-opacity:1;stroke-width:0.485807">
              <path
                 inkscape:connector-curvature="0"
                 id="path1671"
                 transform="translate(148.712,134.765)"
                 d="m 5.9375,-1.640625 c 0.046875,0.625 0.15625,1.078125 0.21875,1.265625 0.109375,0.453125 0.15625,0.671875 0.578125,0.671875 0.453125,0 1.21875,-0.453125 1.21875,-0.640625 0,-0.0625 -0.03125,-0.078125 -0.09375,-0.078125 -0.125,0 -0.328125,0.109375 -0.359375,0.125 C 7.421875,-0.25 7.40625,-0.25 7.390625,-0.25 7.109375,-0.25 7.046875,-0.515625 6.921875,-1.109375 6.859375,-1.453125 6.765625,-1.84375 6.6875,-3.203125 6.625,-4.234375 6.578125,-5.25 6.578125,-6.265625 6.578125,-6.5 6.59375,-6.765625 6.59375,-7 c 0,-0.15625 0,-0.203125 -0.109375,-0.203125 -0.140625,0 -0.546875,0.171875 -0.734375,0.4375 L 5.6875,-6.65625 c -0.796875,1.6875 -1.53125,2.890625 -2.046875,3.703125 -0.59375,0.90625 -1.625,2.53125 -2.171875,2.53125 -0.359375,0 -0.671875,-0.234375 -0.765625,-0.59375 0,-0.015625 -0.03125,-0.078125 -0.0625,-0.078125 -0.15625,0 -0.375,0.46875 -0.375,0.75 0,0.40625 0.4375,0.84375 0.90625,0.84375 C 1.859375,0.5 3,-1.296875 3.21875,-1.640625 Z M 5.734375,-5.96875 v 0.578125 c 0,0.578125 0.015625,1.15625 0.046875,1.734375 0.015625,0.203125 0.046875,0.9375 0.09375,1.46875 H 4.0625 c -0.171875,0 -0.3125,0 -0.578125,0.15625 0.703125,-1.078125 1.28125,-2.109375 1.34375,-2.21875 0.5,-0.890625 0.765625,-1.46875 0.890625,-1.71875 z m 0,0"
                 style="stroke:none;stroke-width:0" />
            </g>
            <g
               id="g1677"
               style="fill:#000000;fill-opacity:1;stroke-width:0.485807">
              <path
                 inkscape:connector-curvature="0"
                 id="path1675"
                 transform="translate(156.667,136.259)"
                 d="m 1.90625,-2.328125 c 0.546875,0 0.9375,0.375 0.9375,1.125 0,0.859375 -0.515625,1.125 -0.90625,1.125 -0.28125,0 -0.90625,-0.078125 -1.1875,-0.5 0.328125,0 0.40625,-0.234375 0.40625,-0.390625 0,-0.21875 -0.171875,-0.375 -0.390625,-0.375 -0.1875,0 -0.390625,0.125 -0.390625,0.40625 0,0.65625 0.71875,1.078125 1.5625,1.078125 0.96875,0 1.640625,-0.65625 1.640625,-1.34375 0,-0.546875 -0.4375,-1.09375 -1.203125,-1.25 0.71875,-0.265625 0.984375,-0.78125 0.984375,-1.21875 0,-0.546875 -0.625,-0.953125 -1.40625,-0.953125 -0.765625,0 -1.359375,0.375 -1.359375,0.9375 0,0.234375 0.15625,0.359375 0.359375,0.359375 0.21875,0 0.359375,-0.15625 0.359375,-0.34375 0,-0.203125 -0.140625,-0.359375 -0.359375,-0.375 0.25,-0.296875 0.71875,-0.375 0.984375,-0.375 0.3125,0 0.75,0.15625 0.75,0.75 0,0.296875 -0.09375,0.625 -0.28125,0.828125 -0.21875,0.265625 -0.421875,0.28125 -0.765625,0.3125 -0.171875,0.015625 -0.1875,0.015625 -0.21875,0.015625 -0.015625,0 -0.078125,0.015625 -0.078125,0.09375 0,0.09375 0.0625,0.09375 0.1875,0.09375 z m 0,0"
                 style="stroke:none;stroke-width:0" />
            </g>
          </g>
        </g>
      </g>
      <g
         style="stroke-width:1.13303769"
         id="g1999">
        <ellipse
           ry="9.8297796"
           rx="9.8024712"
           cy="176.4839"
           cx="253.02618"
           id="circle6576"
           style="fill:#ffe571;fill-opacity:1;stroke:#000000;stroke-width:0.56651884;stroke-linejoin:round;stroke-miterlimit:100;stroke-dasharray:none;stroke-opacity:1" />
        <g
           style="stroke-width:0.485807"
           transform="matrix(0.82277696,0,0,0.82277696,125.48693,67.907168)"
           ns1:version="0.11.0"
           ns1:texconverter="pdflatex"
           ns1:pdfconverter="pdf2svg"
           ns1:text="$\\mathcal{A}_4$"
           ns1:preamble="/Users/jemis/.config/inkscape/extensions/textext/default_packages.tex"
           ns1:scale="1.0"
           ns1:alignment="middle center"
           inkscapeversion="0.92.2"
           ns1:jacobian_sqrt="0.352778"
           id="g1865">
          <g
             style="stroke-width:0.485807"
             id="g1863">
            <g
               style="fill:#000000;fill-opacity:1;stroke-width:0.485807"
               id="g1857">
              <path
                 inkscape:connector-curvature="0"
                 style="stroke:none;stroke-width:0"
                 d="m 5.9375,-1.640625 c 0.046875,0.625 0.15625,1.078125 0.21875,1.265625 0.109375,0.453125 0.15625,0.671875 0.578125,0.671875 0.453125,0 1.21875,-0.453125 1.21875,-0.640625 0,-0.0625 -0.03125,-0.078125 -0.09375,-0.078125 -0.125,0 -0.328125,0.109375 -0.359375,0.125 C 7.421875,-0.25 7.40625,-0.25 7.390625,-0.25 7.109375,-0.25 7.046875,-0.515625 6.921875,-1.109375 6.859375,-1.453125 6.765625,-1.84375 6.6875,-3.203125 6.625,-4.234375 6.578125,-5.25 6.578125,-6.265625 6.578125,-6.5 6.59375,-6.765625 6.59375,-7 c 0,-0.15625 0,-0.203125 -0.109375,-0.203125 -0.140625,0 -0.546875,0.171875 -0.734375,0.4375 L 5.6875,-6.65625 c -0.796875,1.6875 -1.53125,2.890625 -2.046875,3.703125 -0.59375,0.90625 -1.625,2.53125 -2.171875,2.53125 -0.359375,0 -0.671875,-0.234375 -0.765625,-0.59375 0,-0.015625 -0.03125,-0.078125 -0.0625,-0.078125 -0.15625,0 -0.375,0.46875 -0.375,0.75 0,0.40625 0.4375,0.84375 0.90625,0.84375 C 1.859375,0.5 3,-1.296875 3.21875,-1.640625 Z M 5.734375,-5.96875 v 0.578125 c 0,0.578125 0.015625,1.15625 0.046875,1.734375 0.015625,0.203125 0.046875,0.9375 0.09375,1.46875 H 4.0625 c -0.171875,0 -0.3125,0 -0.578125,0.15625 0.703125,-1.078125 1.28125,-2.109375 1.34375,-2.21875 0.5,-0.890625 0.765625,-1.46875 0.890625,-1.71875 z m 0,0"
                 transform="translate(148.712,134.765)"
                 id="path1855" />
            </g>
            <g
               style="fill:#000000;fill-opacity:1;stroke-width:0.485807"
               id="g1861">
              <path
                 inkscape:connector-curvature="0"
                 style="stroke:none;stroke-width:0"
                 d="m 3.6875,-1.140625 v -0.25 H 2.90625 V -4.5 c 0,-0.140625 0,-0.203125 -0.140625,-0.203125 -0.09375,0 -0.125,0 -0.1875,0.109375 l -2.3125,3.203125 v 0.25 h 2.0625 v 0.5625 c 0,0.25 0,0.328125 -0.578125,0.328125 H 1.5625 V 0 C 1.921875,-0.015625 2.359375,-0.03125 2.609375,-0.03125 2.875,-0.03125 3.3125,-0.015625 3.671875,0 v -0.25 h -0.1875 C 2.90625,-0.25 2.90625,-0.328125 2.90625,-0.578125 v -0.5625 z M 2.375,-3.9375 v 2.546875 H 0.53125 Z m 0,0"
                 transform="translate(156.667,136.259)"
                 id="path1859" />
            </g>
          </g>
        </g>
      </g>
    </g>
    <g
       id="g5463">
      <path
         inkscape:connector-curvature="0"
         id="path1031"
         d="m 180.45934,140.30406 v 8.5195"
         style="fill:none;stroke:#000000;stroke-width:0.49999997;stroke-linecap:round;stroke-linejoin:miter;stroke-miterlimit:4;stroke-dasharray:none;stroke-opacity:1" />
      <path
         style="fill:none;stroke:#000000;stroke-width:0.49999997;stroke-linecap:round;stroke-linejoin:miter;stroke-miterlimit:4;stroke-dasharray:none;stroke-opacity:1"
         d="m 203.28764,141.24372 v 7.57984"
         id="path1033"
         inkscape:connector-curvature="0" />
      <path
         style="fill:none;stroke:#000000;stroke-width:0.49999997;stroke-linecap:round;stroke-linejoin:miter;stroke-miterlimit:4;stroke-dasharray:none;stroke-opacity:1"
         d="m 226.11595,141.24372 v 7.57984"
         id="path1035"
         inkscape:connector-curvature="0" />
      <path
         inkscape:connector-curvature="0"
         id="path1037"
         d="m 248.94425,140.30406 v 8.5195"
         style="fill:none;stroke:#000000;stroke-width:0.49999997;stroke-linecap:round;stroke-linejoin:miter;stroke-miterlimit:4;stroke-dasharray:none;stroke-opacity:1" />
      <rect
         style="fill:#f0a200;fill-opacity:1;stroke:#000000;stroke-width:0.49999997;stroke-linecap:round;stroke-linejoin:round;stroke-miterlimit:4;stroke-dasharray:none;stroke-opacity:1"
         id="rect1006"
         width="86.221657"
         height="17.012348"
         x="171.43864"
         y="124.41508"
         rx="20.402458"
         ry="9.6378164" />
      <g
         id="g2331"
         style="stroke-width:1.13303769"
         ns1:jacobian_sqrt="0.969598"
         inkscapeversion="0.92.2"
         ns1:alignment="middle center"
         ns1:scale="2.74846529545"
         ns1:preamble="/Users/jemis/.config/inkscape/extensions/textext/default_packages.tex"
         ns1:text="$\\mathcal{V}$"
         ns1:pdfconverter="pdf2svg"
         ns1:texconverter="pdflatex"
         ns1:version="0.11.0"
         transform="matrix(0.85575085,0,0,0.85575085,83.355341,20.320379)">
        <g
           id="g2329"
           style="stroke-width:1.2837745">
          <g
             id="g2327"
             style="fill:#000000;fill-opacity:1;stroke-width:1.13303769">
            <path
               id="path2325"
               transform="translate(148.712,134.765)"
               d="m 2.6875,-0.859375 c 0.15625,-1.21875 0.15625,-2.125 0.15625,-2.265625 0,-0.71875 0,-3.6875 -1.8125,-3.6875 -0.34375,0 -0.6875,0.28125 -0.6875,0.421875 0,0.078125 0.046875,0.078125 0.1875,0.078125 1.453125,0.125 1.578125,2.421875 1.578125,3.546875 0,1 -0.140625,2.203125 -0.25,2.859375 -0.03125,0.125 -0.03125,0.140625 -0.03125,0.1875 0,0.046875 0,0.171875 0.078125,0.171875 0.109375,0 2.515625,-1.84375 3.78125,-3.765625 0.515625,-0.78125 0.890625,-1.671875 0.890625,-2.34375 0,-0.84375 -0.5625,-1.15625 -0.96875,-1.15625 -0.28125,0 -0.421875,0.625 -0.421875,0.765625 0,0.140625 0.046875,0.140625 0.171875,0.15625 0.65625,0.078125 0.78125,0.609375 0.78125,0.84375 0,0.8125 -1.734375,2.859375 -3.453125,4.1875 z m 0,0"
               style="stroke:none;stroke-width:0"
               inkscape:connector-curvature="0" />
          </g>
        </g>
      </g>
    </g>
    <path
       style="fill:none;stroke:#000000;stroke-width:1.06500006;stroke-linecap:butt;stroke-linejoin:miter;stroke-miterlimit:4;stroke-dasharray:1.06500005, 1.06500005;stroke-dashoffset:0;stroke-opacity:1;marker-end:url(#Arrow2Mend)"
       d="m 257.46697,231.6112 c 0,0 9.18595,3.41685 7.34624,9.17417 -1.68765,5.28144 -7.73288,11.3007 -7.73288,11.3007"
       id="path2505"
       inkscape:connector-curvature="0"
       sodipodi:nodetypes="csc" />
    <g
       id="g2914">
      <path
         inkscape:connector-curvature="0"
         id="path2893"
         d="m 180.45934,211.90729 v -8.5195"
         style="fill:none;stroke:#000000;stroke-width:0.49999997;stroke-linecap:round;stroke-linejoin:miter;stroke-miterlimit:4;stroke-dasharray:none;stroke-opacity:1" />
      <path
         style="fill:none;stroke:#000000;stroke-width:0.49999997;stroke-linecap:round;stroke-linejoin:miter;stroke-miterlimit:4;stroke-dasharray:none;stroke-opacity:1"
         d="m 203.28764,210.96763 v -7.57984"
         id="path2895"
         inkscape:connector-curvature="0" />
      <path
         style="fill:none;stroke:#000000;stroke-width:0.49999997;stroke-linecap:round;stroke-linejoin:miter;stroke-miterlimit:4;stroke-dasharray:none;stroke-opacity:1"
         d="m 226.11595,210.96763 v -7.57984"
         id="path2897"
         inkscape:connector-curvature="0" />
      <path
         inkscape:connector-curvature="0"
         id="path2899"
         d="m 248.94425,211.90729 v -8.5195"
         style="fill:none;stroke:#000000;stroke-width:0.49999997;stroke-linecap:round;stroke-linejoin:miter;stroke-miterlimit:4;stroke-dasharray:none;stroke-opacity:1" />
      <path
         style="fill:none;stroke:#000000;stroke-width:0.49999997;stroke-linecap:round;stroke-linejoin:miter;stroke-miterlimit:4;stroke-dasharray:none;stroke-opacity:1"
         d="m 180.45934,226.67115 v 8.5195"
         id="path2495"
         inkscape:connector-curvature="0" />
      <path
         inkscape:connector-curvature="0"
         id="path2497"
         d="m 203.28764,227.61081 v 7.57984"
         style="fill:none;stroke:#000000;stroke-width:0.49999997;stroke-linecap:round;stroke-linejoin:miter;stroke-miterlimit:4;stroke-dasharray:none;stroke-opacity:1" />
      <path
         inkscape:connector-curvature="0"
         id="path2499"
         d="m 226.11595,227.61081 v 7.57984"
         style="fill:none;stroke:#000000;stroke-width:0.49999997;stroke-linecap:round;stroke-linejoin:miter;stroke-miterlimit:4;stroke-dasharray:none;stroke-opacity:1" />
      <path
         style="fill:none;stroke:#000000;stroke-width:0.49999997;stroke-linecap:round;stroke-linejoin:miter;stroke-miterlimit:4;stroke-dasharray:none;stroke-opacity:1"
         d="m 248.94425,226.67115 v 8.5195"
         id="path2501"
         inkscape:connector-curvature="0" />
      <rect
         ry="9.6378164"
         rx="4.6314979"
         y="210.78197"
         x="171.43864"
         height="17.012348"
         width="86.221657"
         id="rect2503"
         style="fill:#7171ff;fill-opacity:1;stroke:#000000;stroke-width:0.49999997;stroke-linecap:round;stroke-linejoin:round;stroke-miterlimit:4;stroke-dasharray:none;stroke-opacity:1" />
      <g
         transform="matrix(0.855751,0.000000,0.000000,0.855751,81.443250,106.760971)"
         ns1:version="0.11.0"
         ns1:texconverter="pdflatex"
         ns1:pdfconverter="pdf2svg"
         ns1:text="$\\mathcal{M}$"
         ns1:preamble="/Users/jemis/.config/inkscape/extensions/textext/default_packages.tex"
         ns1:scale="2.42574913807"
         ns1:alignment="middle center"
         inkscapeversion="0.92.2"
         ns1:jacobian_sqrt="0.855751"
         style=""
         id="g2743">
        <g
           id="g2741"
           style="">
          <g
             style="fill-opacity:1;fill:rgb(0%,0%,0%)"
             id="g2739">
            <path
               style="stroke:none;stroke-width:0"
               d="M 3.84375 -5.578125 C 4.109375 -4.28125 4.546875 -2.140625 5.109375 -0.984375 C 5.328125 -0.5625 5.4375 -0.34375 5.546875 -0.34375 C 5.578125 -0.34375 5.609375 -0.34375 5.78125 -0.515625 C 6.546875 -1.25 7.0625 -1.828125 7.75 -2.625 L 9.9375 -5.15625 C 9.796875 -4.3125 9.4375 -2.078125 9.4375 -0.90625 C 9.4375 -0.640625 9.453125 -0.375 9.484375 -0.109375 C 9.484375 0 9.53125 0.296875 9.953125 0.296875 C 10.375 0.296875 11.125 -0.15625 11.125 -0.34375 C 11.125 -0.40625 11.0625 -0.421875 11.03125 -0.421875 C 10.90625 -0.421875 10.703125 -0.328125 10.59375 -0.265625 C 10.359375 -0.296875 10.34375 -0.453125 10.3125 -0.671875 C 10.28125 -1 10.28125 -1.296875 10.28125 -1.328125 C 10.28125 -2.4375 10.71875 -5.46875 11.015625 -6.703125 C 11.03125 -6.765625 11.03125 -6.78125 11.03125 -6.875 C 11.03125 -6.90625 11.03125 -7.015625 10.953125 -7.015625 C 10.921875 -7.015625 10.90625 -7.015625 10.71875 -6.78125 C 9.78125 -5.65625 6.875 -2.15625 5.875 -1.328125 C 5.625 -1.859375 5.453125 -2.234375 5.109375 -3.625 C 4.8125 -4.75 4.640625 -5.578125 4.46875 -6.546875 C 4.453125 -6.6875 4.390625 -6.953125 4.390625 -6.984375 C 4.359375 -7.03125 4.3125 -7.03125 4.28125 -7.03125 C 4.109375 -7.03125 3.6875 -6.8125 3.65625 -6.59375 C 3.53125 -5.765625 3.34375 -4.453125 2.640625 -2.546875 C 1.84375 -0.421875 1.625 -0.421875 1.4375 -0.421875 C 1.3125 -0.421875 0.9375 -0.5 0.71875 -0.703125 C 0.671875 -0.75 0.640625 -0.75 0.625 -0.75 C 0.484375 -0.75 0.265625 -0.296875 0.265625 -0.015625 C 0.265625 0.0625 0.265625 0.1875 0.59375 0.359375 C 0.84375 0.484375 1.078125 0.5 1.125 0.5 C 1.75 0.5 2.328125 -0.921875 2.53125 -1.4375 C 3 -2.5625 3.5625 -4.140625 3.84375 -5.578125 Z M 3.84375 -5.578125 "
               transform="translate(148.712,134.765)"
               id="path2737" />
          </g>
        </g>
      </g>
    </g>
    <flowRoot
       xml:space="preserve"
       id="flowRoot2933"
       style="font-style:normal;font-weight:normal;font-size:40px;line-height:1;font-family:sans-serif;letter-spacing:0px;word-spacing:0px;fill:#000000;fill-opacity:1;stroke:none;stroke-width:1.13303769"
       transform="matrix(0.23351679,0,0,0.23351679,25.662472,95.71786)"><flowRegion
         id="flowRegion2929"
         style="stroke-width:1.13303769"><rect
           id="rect2927"
           width="376.50699"
           height="73.321831"
           x="641.42596"
           y="614.19244"
           style="stroke-width:1.13303769" /></flowRegion><flowPara
         id="flowPara2931"
         style="font-style:italic;font-variant:normal;font-weight:normal;font-stretch:normal;font-size:26.66666794px;font-family:Palatino;-inkscape-font-specification:'Palatino Italic';font-variant-ligatures:normal;font-variant-caps:normal;font-variant-numeric:normal;font-feature-settings:normal;text-align:start;writing-mode:lr-tb;text-anchor:start;stroke-width:1.13303769">Factorize large matrix as MPO</flowPara></flowRoot>    <g
       id="g4257"
       transform="translate(0,-1.5875)">
      <path
         style="fill:none;stroke:#000000;stroke-width:0.49999997;stroke-linecap:round;stroke-linejoin:miter;stroke-miterlimit:4;stroke-dasharray:none;stroke-opacity:1"
         d="m 180.45934,255.82339 v 7.57984"
         id="path4210"
         inkscape:connector-curvature="0" />
      <path
         inkscape:connector-curvature="0"
         id="path4212"
         d="m 203.28764,255.82339 v 7.57984"
         style="fill:none;stroke:#000000;stroke-width:0.49999997;stroke-linecap:round;stroke-linejoin:miter;stroke-miterlimit:4;stroke-dasharray:none;stroke-opacity:1" />
      <path
         inkscape:connector-curvature="0"
         id="path4214"
         d="m 226.11595,255.82339 v 7.57984"
         style="fill:none;stroke:#000000;stroke-width:0.49999997;stroke-linecap:round;stroke-linejoin:miter;stroke-miterlimit:4;stroke-dasharray:none;stroke-opacity:1" />
      <path
         style="fill:none;stroke:#000000;stroke-width:0.49999997;stroke-linecap:round;stroke-linejoin:miter;stroke-miterlimit:4;stroke-dasharray:none;stroke-opacity:1"
         d="m 248.94425,255.82339 v 7.57984"
         id="path4216"
         inkscape:connector-curvature="0" />
      <path
         inkscape:connector-curvature="0"
         id="path2507"
         d="m 180.45934,280.16509 v 7.57984"
         style="fill:none;stroke:#000000;stroke-width:0.49999997;stroke-linecap:round;stroke-linejoin:miter;stroke-miterlimit:4;stroke-dasharray:none;stroke-opacity:1" />
      <path
         style="fill:none;stroke:#000000;stroke-width:0.49999997;stroke-linecap:round;stroke-linejoin:miter;stroke-miterlimit:4;stroke-dasharray:none;stroke-opacity:1"
         d="m 203.28764,280.16509 v 7.57984"
         id="path2509"
         inkscape:connector-curvature="0" />
      <path
         inkscape:connector-curvature="0"
         id="path2511"
         d="m 189.11919,271.28212 h 5.51247"
         style="fill:none;stroke:#000000;stroke-width:0.49999997;stroke-linecap:butt;stroke-linejoin:miter;stroke-miterlimit:4;stroke-dasharray:none;stroke-opacity:1" />
      <path
         style="fill:none;stroke:#000000;stroke-width:0.49999997;stroke-linecap:round;stroke-linejoin:miter;stroke-miterlimit:4;stroke-dasharray:none;stroke-opacity:1"
         d="m 226.11595,280.16509 v 7.57984"
         id="path2513"
         inkscape:connector-curvature="0" />
      <path
         inkscape:connector-curvature="0"
         id="path2515"
         d="m 248.94425,280.16509 v 7.57984"
         style="fill:none;stroke:#000000;stroke-width:0.49999997;stroke-linecap:round;stroke-linejoin:miter;stroke-miterlimit:4;stroke-dasharray:none;stroke-opacity:1" />
      <path
         style="fill:none;stroke:#000000;stroke-width:0.49999997;stroke-linecap:butt;stroke-linejoin:miter;stroke-miterlimit:4;stroke-dasharray:none;stroke-opacity:1"
         d="m 234.7758,271.28212 h 5.51246"
         id="path2517"
         inkscape:connector-curvature="0" />
      <path
         style="fill:none;stroke:#000000;stroke-width:0.49999997;stroke-linecap:butt;stroke-linejoin:miter;stroke-miterlimit:4;stroke-dasharray:none;stroke-opacity:1"
         d="m 211.9475,271.28212 h 5.51246"
         id="path2519"
         inkscape:connector-curvature="0" />
      <ellipse
         ry="8.6755981"
         rx="8.6514959"
         style="fill:#71d0ff;fill-opacity:1;stroke:#000000;stroke-width:0.49999997;stroke-linejoin:round;stroke-miterlimit:100;stroke-dasharray:none;stroke-opacity:1"
         id="ellipse2521"
         cx="203.286"
         cy="271.46176" />
      <ellipse
         ry="8.6755981"
         rx="8.6514959"
         cy="271.46176"
         cx="180.45769"
         id="ellipse2537"
         style="fill:#71d0ff;fill-opacity:1;stroke:#000000;stroke-width:0.49999997;stroke-linejoin:round;stroke-miterlimit:100;stroke-dasharray:none;stroke-opacity:1" />
      <ellipse
         ry="8.6755981"
         rx="8.6514959"
         style="fill:#71d0ff;fill-opacity:1;stroke:#000000;stroke-width:0.49999997;stroke-linejoin:round;stroke-miterlimit:100;stroke-dasharray:none;stroke-opacity:1"
         id="ellipse2553"
         cx="226.1143"
         cy="271.46176" />
      <ellipse
         ry="8.6755981"
         rx="8.6514959"
         cy="271.46176"
         cx="248.9426"
         id="ellipse2569"
         style="fill:#71d0ff;fill-opacity:1;stroke:#000000;stroke-width:0.49999997;stroke-linejoin:round;stroke-miterlimit:100;stroke-dasharray:none;stroke-opacity:1" />
      <g
         id="g3153"
         ns1:jacobian_sqrt="0.726169"
         inkscapeversion="0.92.2"
         ns1:alignment="middle center"
         ns1:scale="2.0584307128"
         ns1:preamble="/Users/jemis/.config/inkscape/extensions/textext/default_packages.tex"
         ns1:text="$\\mathcal{B}_1$"
         ns1:pdfconverter="pdf2svg"
         ns1:texconverter="pdflatex"
         ns1:version="0.11.0"
         transform="matrix(0.726169,0,0,0.726169,68.834498,175.73685)">
        <g
           id="g3151">
          <g
             id="g3145"
             style="fill:#000000;fill-opacity:1">
            <path
               id="path3143"
               transform="translate(148.712,134.765)"
               d="M 2.796875,-6.765625 C 2.8125,-6.875 2.8125,-6.890625 2.8125,-6.921875 2.8125,-7 2.796875,-7.03125 2.703125,-7.03125 c -0.109375,0 -0.40625,0.15625 -0.609375,0.25 C 1.640625,-6.546875 1.25,-6.359375 1.25,-6.1875 c 0,0.0625 0.078125,0.0625 0.109375,0.0625 0.125,0 0.390625,-0.140625 0.578125,-0.21875 -0.125,0.96875 -0.359375,2.25 -0.546875,3.109375 C 1.03125,-1.546875 0.84375,-0.9375 0.34375,0.03125 0.296875,0.125 0.296875,0.140625 0.296875,0.15625 c 0,0.0625 0.078125,0.0625 0.109375,0.0625 0.15625,0 0.578125,-0.171875 0.734375,-0.453125 0.125,-0.234375 0.5,-0.96875 0.796875,-2.125 0.21875,-0.84375 0.609375,-2.15625 1.3125,-3.1875 0.453125,-0.640625 0.875,-0.9375 1.5,-0.9375 0.546875,0 1.03125,0.34375 1.03125,0.875 0,0.875 -0.953125,1.1875 -1.984375,1.546875 -0.125,0.03125 -0.8125,0.28125 -0.8125,0.53125 0,0.046875 0.078125,0.0625 0.109375,0.0625 0.03125,0 0.265625,-0.046875 0.46875,-0.046875 1.015625,0 1.828125,0.609375 1.828125,1.546875 0,1.234375 -1.046875,1.640625 -1.96875,1.640625 -0.765625,0 -1.125,-0.421875 -1.265625,-0.5625 -0.03125,-0.046875 -0.046875,-0.0625 -0.125,-0.0625 -0.21875,0 -0.71875,0.3125 -0.71875,0.484375 0,0.03125 0.375,0.6875 1.453125,0.6875 1.40625,0 3.46875,-1 3.46875,-2.59375 0,-0.84375 -0.546875,-1.46875 -1.5625,-1.65625 0.796875,-0.34375 1.953125,-1.0625 1.953125,-2 0,-0.578125 -0.46875,-1 -1.21875,-1 -0.328125,0 -1.609375,0.078125 -2.8125,1.578125 z m 0,0"
               style="stroke:none;stroke-width:0"
               inkscape:connector-curvature="0" />
          </g>
          <g
             id="g3149"
             style="fill:#000000;fill-opacity:1">
            <path
               id="path3147"
               transform="translate(155.256,136.259)"
               d="m 2.328125,-4.4375 c 0,-0.1875 0,-0.1875 -0.203125,-0.1875 -0.453125,0.4375 -1.078125,0.4375 -1.359375,0.4375 v 0.25 c 0.15625,0 0.625,0 1,-0.1875 v 3.546875 c 0,0.234375 0,0.328125 -0.6875,0.328125 H 0.8125 V 0 c 0.125,0 0.984375,-0.03125 1.234375,-0.03125 0.21875,0 1.09375,0.03125 1.25,0.03125 V -0.25 H 3.03125 c -0.703125,0 -0.703125,-0.09375 -0.703125,-0.328125 z m 0,0"
               style="stroke:none;stroke-width:0"
               inkscape:connector-curvature="0" />
          </g>
        </g>
      </g>
      <g
         transform="matrix(0.726169,0,0,0.726169,91.639733,175.74128)"
         ns1:version="0.11.0"
         ns1:texconverter="pdflatex"
         ns1:pdfconverter="pdf2svg"
         ns1:text="$\\mathcal{B}_2$"
         ns1:preamble="/Users/jemis/.config/inkscape/extensions/textext/default_packages.tex"
         ns1:scale="2.0584307128"
         ns1:alignment="middle center"
         inkscapeversion="0.92.2"
         ns1:jacobian_sqrt="0.726169"
         id="g3455">
        <g
           id="g3453">
          <g
             style="fill:#000000;fill-opacity:1"
             id="g3447">
            <path
               style="stroke:none;stroke-width:0"
               d="M 2.796875,-6.765625 C 2.8125,-6.875 2.8125,-6.890625 2.8125,-6.921875 2.8125,-7 2.796875,-7.03125 2.703125,-7.03125 c -0.109375,0 -0.40625,0.15625 -0.609375,0.25 C 1.640625,-6.546875 1.25,-6.359375 1.25,-6.1875 c 0,0.0625 0.078125,0.0625 0.109375,0.0625 0.125,0 0.390625,-0.140625 0.578125,-0.21875 -0.125,0.96875 -0.359375,2.25 -0.546875,3.109375 C 1.03125,-1.546875 0.84375,-0.9375 0.34375,0.03125 0.296875,0.125 0.296875,0.140625 0.296875,0.15625 c 0,0.0625 0.078125,0.0625 0.109375,0.0625 0.15625,0 0.578125,-0.171875 0.734375,-0.453125 0.125,-0.234375 0.5,-0.96875 0.796875,-2.125 0.21875,-0.84375 0.609375,-2.15625 1.3125,-3.1875 0.453125,-0.640625 0.875,-0.9375 1.5,-0.9375 0.546875,0 1.03125,0.34375 1.03125,0.875 0,0.875 -0.953125,1.1875 -1.984375,1.546875 -0.125,0.03125 -0.8125,0.28125 -0.8125,0.53125 0,0.046875 0.078125,0.0625 0.109375,0.0625 0.03125,0 0.265625,-0.046875 0.46875,-0.046875 1.015625,0 1.828125,0.609375 1.828125,1.546875 0,1.234375 -1.046875,1.640625 -1.96875,1.640625 -0.765625,0 -1.125,-0.421875 -1.265625,-0.5625 -0.03125,-0.046875 -0.046875,-0.0625 -0.125,-0.0625 -0.21875,0 -0.71875,0.3125 -0.71875,0.484375 0,0.03125 0.375,0.6875 1.453125,0.6875 1.40625,0 3.46875,-1 3.46875,-2.59375 0,-0.84375 -0.546875,-1.46875 -1.5625,-1.65625 0.796875,-0.34375 1.953125,-1.0625 1.953125,-2 0,-0.578125 -0.46875,-1 -1.21875,-1 -0.328125,0 -1.609375,0.078125 -2.8125,1.578125 z m 0,0"
               transform="translate(148.712,134.765)"
               id="path3445"
               inkscape:connector-curvature="0" />
          </g>
          <g
             style="fill:#000000;fill-opacity:1"
             id="g3451">
            <path
               style="stroke:none;stroke-width:0"
               d="M 3.515625,-1.265625 H 3.28125 c -0.015625,0.15625 -0.09375,0.5625 -0.1875,0.625 C 3.046875,-0.59375 2.515625,-0.59375 2.40625,-0.59375 H 1.125 c 0.734375,-0.640625 0.984375,-0.84375 1.390625,-1.171875 0.515625,-0.40625 1,-0.84375 1,-1.5 0,-0.84375 -0.734375,-1.359375 -1.625,-1.359375 -0.859375,0 -1.453125,0.609375 -1.453125,1.25 0,0.34375 0.296875,0.390625 0.375,0.390625 0.15625,0 0.359375,-0.125 0.359375,-0.375 0,-0.125 -0.046875,-0.375 -0.40625,-0.375 C 0.984375,-4.21875 1.453125,-4.375 1.78125,-4.375 c 0.703125,0 1.0625,0.546875 1.0625,1.109375 0,0.609375 -0.4375,1.078125 -0.65625,1.328125 L 0.515625,-0.265625 C 0.4375,-0.203125 0.4375,-0.1875 0.4375,0 h 2.875 z m 0,0"
               transform="translate(155.256,136.259)"
               id="path3449"
               inkscape:connector-curvature="0" />
          </g>
        </g>
      </g>
      <g
         id="g3757"
         ns1:jacobian_sqrt="0.726169"
         inkscapeversion="0.92.2"
         ns1:alignment="middle center"
         ns1:scale="2.0584307128"
         ns1:preamble="/Users/jemis/.config/inkscape/extensions/textext/default_packages.tex"
         ns1:text="$\\mathcal{B}_3$"
         ns1:pdfconverter="pdf2svg"
         ns1:texconverter="pdflatex"
         ns1:version="0.11.0"
         transform="matrix(0.726169,0,0,0.726169,114.50168,175.5247)">
        <g
           id="g3755">
          <g
             id="g3749"
             style="fill:#000000;fill-opacity:1">
            <path
               id="path3747"
               transform="translate(148.712,134.765)"
               d="M 2.796875,-6.765625 C 2.8125,-6.875 2.8125,-6.890625 2.8125,-6.921875 2.8125,-7 2.796875,-7.03125 2.703125,-7.03125 c -0.109375,0 -0.40625,0.15625 -0.609375,0.25 C 1.640625,-6.546875 1.25,-6.359375 1.25,-6.1875 c 0,0.0625 0.078125,0.0625 0.109375,0.0625 0.125,0 0.390625,-0.140625 0.578125,-0.21875 -0.125,0.96875 -0.359375,2.25 -0.546875,3.109375 C 1.03125,-1.546875 0.84375,-0.9375 0.34375,0.03125 0.296875,0.125 0.296875,0.140625 0.296875,0.15625 c 0,0.0625 0.078125,0.0625 0.109375,0.0625 0.15625,0 0.578125,-0.171875 0.734375,-0.453125 0.125,-0.234375 0.5,-0.96875 0.796875,-2.125 0.21875,-0.84375 0.609375,-2.15625 1.3125,-3.1875 0.453125,-0.640625 0.875,-0.9375 1.5,-0.9375 0.546875,0 1.03125,0.34375 1.03125,0.875 0,0.875 -0.953125,1.1875 -1.984375,1.546875 -0.125,0.03125 -0.8125,0.28125 -0.8125,0.53125 0,0.046875 0.078125,0.0625 0.109375,0.0625 0.03125,0 0.265625,-0.046875 0.46875,-0.046875 1.015625,0 1.828125,0.609375 1.828125,1.546875 0,1.234375 -1.046875,1.640625 -1.96875,1.640625 -0.765625,0 -1.125,-0.421875 -1.265625,-0.5625 -0.03125,-0.046875 -0.046875,-0.0625 -0.125,-0.0625 -0.21875,0 -0.71875,0.3125 -0.71875,0.484375 0,0.03125 0.375,0.6875 1.453125,0.6875 1.40625,0 3.46875,-1 3.46875,-2.59375 0,-0.84375 -0.546875,-1.46875 -1.5625,-1.65625 0.796875,-0.34375 1.953125,-1.0625 1.953125,-2 0,-0.578125 -0.46875,-1 -1.21875,-1 -0.328125,0 -1.609375,0.078125 -2.8125,1.578125 z m 0,0"
               style="stroke:none;stroke-width:0"
               inkscape:connector-curvature="0" />
          </g>
          <g
             id="g3753"
             style="fill:#000000;fill-opacity:1">
            <path
               id="path3751"
               transform="translate(155.256,136.259)"
               d="m 1.90625,-2.328125 c 0.546875,0 0.9375,0.375 0.9375,1.125 0,0.859375 -0.515625,1.125 -0.90625,1.125 -0.28125,0 -0.90625,-0.078125 -1.1875,-0.5 0.328125,0 0.40625,-0.234375 0.40625,-0.390625 0,-0.21875 -0.171875,-0.375 -0.390625,-0.375 -0.1875,0 -0.390625,0.125 -0.390625,0.40625 0,0.65625 0.71875,1.078125 1.5625,1.078125 0.96875,0 1.640625,-0.65625 1.640625,-1.34375 0,-0.546875 -0.4375,-1.09375 -1.203125,-1.25 0.71875,-0.265625 0.984375,-0.78125 0.984375,-1.21875 0,-0.546875 -0.625,-0.953125 -1.40625,-0.953125 -0.765625,0 -1.359375,0.375 -1.359375,0.9375 0,0.234375 0.15625,0.359375 0.359375,0.359375 0.21875,0 0.359375,-0.15625 0.359375,-0.34375 0,-0.203125 -0.140625,-0.359375 -0.359375,-0.375 0.25,-0.296875 0.71875,-0.375 0.984375,-0.375 0.3125,0 0.75,0.15625 0.75,0.75 0,0.296875 -0.09375,0.625 -0.28125,0.828125 -0.21875,0.265625 -0.421875,0.28125 -0.765625,0.3125 -0.171875,0.015625 -0.1875,0.015625 -0.21875,0.015625 -0.015625,0 -0.078125,0.015625 -0.078125,0.09375 0,0.09375 0.0625,0.09375 0.1875,0.09375 z m 0,0"
               style="stroke:none;stroke-width:0"
               inkscape:connector-curvature="0" />
          </g>
        </g>
      </g>
      <g
         transform="matrix(0.726169,0,0,0.726169,136.87959,175.57138)"
         ns1:version="0.11.0"
         ns1:texconverter="pdflatex"
         ns1:pdfconverter="pdf2svg"
         ns1:text="$\\mathcal{B}_4$"
         ns1:preamble="/Users/jemis/.config/inkscape/extensions/textext/default_packages.tex"
         ns1:scale="2.0584307128"
         ns1:alignment="middle center"
         inkscapeversion="0.92.2"
         ns1:jacobian_sqrt="0.726169"
         id="g4059">
        <g
           id="g4057">
          <g
             style="fill:#000000;fill-opacity:1"
             id="g4051">
            <path
               style="stroke:none;stroke-width:0"
               d="M 2.796875,-6.765625 C 2.8125,-6.875 2.8125,-6.890625 2.8125,-6.921875 2.8125,-7 2.796875,-7.03125 2.703125,-7.03125 c -0.109375,0 -0.40625,0.15625 -0.609375,0.25 C 1.640625,-6.546875 1.25,-6.359375 1.25,-6.1875 c 0,0.0625 0.078125,0.0625 0.109375,0.0625 0.125,0 0.390625,-0.140625 0.578125,-0.21875 -0.125,0.96875 -0.359375,2.25 -0.546875,3.109375 C 1.03125,-1.546875 0.84375,-0.9375 0.34375,0.03125 0.296875,0.125 0.296875,0.140625 0.296875,0.15625 c 0,0.0625 0.078125,0.0625 0.109375,0.0625 0.15625,0 0.578125,-0.171875 0.734375,-0.453125 0.125,-0.234375 0.5,-0.96875 0.796875,-2.125 0.21875,-0.84375 0.609375,-2.15625 1.3125,-3.1875 0.453125,-0.640625 0.875,-0.9375 1.5,-0.9375 0.546875,0 1.03125,0.34375 1.03125,0.875 0,0.875 -0.953125,1.1875 -1.984375,1.546875 -0.125,0.03125 -0.8125,0.28125 -0.8125,0.53125 0,0.046875 0.078125,0.0625 0.109375,0.0625 0.03125,0 0.265625,-0.046875 0.46875,-0.046875 1.015625,0 1.828125,0.609375 1.828125,1.546875 0,1.234375 -1.046875,1.640625 -1.96875,1.640625 -0.765625,0 -1.125,-0.421875 -1.265625,-0.5625 -0.03125,-0.046875 -0.046875,-0.0625 -0.125,-0.0625 -0.21875,0 -0.71875,0.3125 -0.71875,0.484375 0,0.03125 0.375,0.6875 1.453125,0.6875 1.40625,0 3.46875,-1 3.46875,-2.59375 0,-0.84375 -0.546875,-1.46875 -1.5625,-1.65625 0.796875,-0.34375 1.953125,-1.0625 1.953125,-2 0,-0.578125 -0.46875,-1 -1.21875,-1 -0.328125,0 -1.609375,0.078125 -2.8125,1.578125 z m 0,0"
               transform="translate(148.712,134.765)"
               id="path4049"
               inkscape:connector-curvature="0" />
          </g>
          <g
             style="fill:#000000;fill-opacity:1"
             id="g4055">
            <path
               style="stroke:none;stroke-width:0"
               d="m 3.6875,-1.140625 v -0.25 H 2.90625 V -4.5 c 0,-0.140625 0,-0.203125 -0.140625,-0.203125 -0.09375,0 -0.125,0 -0.1875,0.109375 l -2.3125,3.203125 v 0.25 h 2.0625 v 0.5625 c 0,0.25 0,0.328125 -0.578125,0.328125 H 1.5625 V 0 C 1.921875,-0.015625 2.359375,-0.03125 2.609375,-0.03125 2.875,-0.03125 3.3125,-0.015625 3.671875,0 v -0.25 h -0.1875 C 2.90625,-0.25 2.90625,-0.328125 2.90625,-0.578125 v -0.5625 z M 2.375,-3.9375 v 2.546875 H 0.53125 Z m 0,0"
               transform="translate(155.256,136.259)"
               id="path4053"
               inkscape:connector-curvature="0" />
          </g>
        </g>
      </g>
    </g>
    <g
       id="g7829"
       transform="translate(0,1.5875)">
      <flowRoot
         xml:space="preserve"
         id="flowRoot6450"
         style="font-style:normal;font-weight:normal;font-size:40px;line-height:1.25;font-family:sans-serif;letter-spacing:0px;word-spacing:0px;fill:#000000;fill-opacity:1;stroke:none"
         transform="matrix(0.26458333,0,0,0.26458333,3.1750001,75.279167)"><flowRegion
           id="flowRegion6452"><rect
             id="rect6454"
             width="544.54663"
             height="611.12585"
             x="47.372669"
             y="186.89093" /></flowRegion><flowPara
           id="flowPara6458"
           style="font-style:normal;font-variant:normal;font-weight:normal;font-stretch:normal;font-size:37.33333206px;line-height:1.35000002;font-family:Palatino;-inkscape-font-specification:'Palatino, Normal';font-variant-ligatures:normal;font-variant-caps:normal;font-variant-numeric:normal;font-feature-settings:normal;text-align:start;writing-mode:lr-tb;text-anchor:start"> Given vector                          , a </flowPara><flowPara
           id="flowPara4259"
           style="font-style:normal;font-variant:normal;font-weight:normal;font-stretch:normal;font-size:37.33333206px;line-height:1.35000002;font-family:Palatino;-inkscape-font-specification:'Palatino, Normal';font-variant-ligatures:normal;font-variant-caps:normal;font-variant-numeric:normal;font-feature-settings:normal;text-align:start;writing-mode:lr-tb;text-anchor:start"><flowSpan
   id="flowSpan6777"
   style="font-weight:bold;line-height:1.35000002">matrix product state <flowSpan
   id="flowSpan6779"
   style="font-weight:normal;line-height:1.35000002">(MPS)</flowSpan> </flowSpan> approximates     as contraction of smaller core tensors       ,</flowPara><flowPara
           style="font-style:normal;font-variant:normal;font-weight:normal;font-stretch:normal;font-size:37.33333206px;line-height:1.35000002;font-family:Palatino;-inkscape-font-specification:'Palatino, Normal';font-variant-ligatures:normal;font-variant-caps:normal;font-variant-numeric:normal;font-feature-settings:normal;text-align:start;writing-mode:lr-tb;text-anchor:start"
           id="flowPara6468">where (e.g.)</flowPara><flowPara
           style="font-style:normal;font-variant:normal;font-weight:normal;font-stretch:normal;font-size:37.33333206px;line-height:1.35000002;font-family:Palatino;-inkscape-font-specification:'Palatino, Normal';font-variant-ligatures:normal;font-variant-caps:normal;font-variant-numeric:normal;font-feature-settings:normal;text-align:start;writing-mode:lr-tb;text-anchor:start"
           id="flowPara6466"> The      are <flowSpan
   id="flowSpan6781"
   style="font-weight:bold;line-height:1.35000002">bond dimensions</flowSpan> of the MPS, hyperparameters determining its expressivity</flowPara><flowPara
           id="flowPara6462"
           style="font-style:normal;font-variant:normal;font-weight:normal;font-stretch:normal;font-size:37.33333206px;line-height:1.35000002;font-family:Palatino;-inkscape-font-specification:'Palatino, Normal';font-variant-ligatures:normal;font-variant-caps:normal;font-variant-numeric:normal;font-feature-settings:normal;text-align:start;writing-mode:lr-tb;text-anchor:start"> Exact same procedure applies to large matrices, yielding a <flowSpan
   style="font-weight:bold;line-height:1.35000002"
   id="flowSpan6862">matrix product operator</flowSpan> (MPO)</flowPara></flowRoot>      <g
         id="g5257"
         ns1:jacobian_sqrt="1.020283"
         inkscapeversion="0.92.2"
         ns1:alignment="middle center"
         ns1:scale="2.8921398113"
         ns1:preamble="/Users/jemis/.config/inkscape/extensions/textext/default_packages.tex"
         ns1:text="$\\mathcal{V} \\!\\in \\!\\mathbb{R}^{d_1\\times \\ldots\\times d_4}$"
         ns1:pdfconverter="pdf2svg"
         ns1:texconverter="pdflatex"
         ns1:version="0.11.0"
         transform="matrix(1.020283,0,0,1.020283,-66.834495,-2.8462807)">
        <g
           id="g5255">
          <g
             id="g5213"
             style="fill:#000000;fill-opacity:1">
            <path
               id="path5211"
               transform="translate(148.712,134.765)"
               d="m 2.6875,-0.859375 c 0.15625,-1.21875 0.15625,-2.125 0.15625,-2.265625 0,-0.71875 0,-3.6875 -1.8125,-3.6875 -0.34375,0 -0.6875,0.28125 -0.6875,0.421875 0,0.078125 0.046875,0.078125 0.1875,0.078125 1.453125,0.125 1.578125,2.421875 1.578125,3.546875 0,1 -0.140625,2.203125 -0.25,2.859375 -0.03125,0.125 -0.03125,0.140625 -0.03125,0.1875 0,0.046875 0,0.171875 0.078125,0.171875 0.109375,0 2.515625,-1.84375 3.78125,-3.765625 0.515625,-0.78125 0.890625,-1.671875 0.890625,-2.34375 0,-0.84375 -0.5625,-1.15625 -0.96875,-1.15625 -0.28125,0 -0.421875,0.625 -0.421875,0.765625 0,0.140625 0.046875,0.140625 0.171875,0.15625 0.65625,0.078125 0.78125,0.609375 0.78125,0.84375 0,0.8125 -1.734375,2.859375 -3.453125,4.1875 z m 0,0"
               style="stroke:none;stroke-width:0"
               inkscape:connector-curvature="0" />
          </g>
          <g
             id="g5217"
             style="fill:#000000;fill-opacity:1">
            <path
               id="path5215"
               transform="translate(156.73986,134.765)"
               d="m 5.46875,-2.296875 c 0.15625,0 0.34375,0 0.34375,-0.203125 0,-0.1875 -0.1875,-0.1875 -0.34375,-0.1875 H 1.234375 C 1.359375,-4.03125 2.5,-4.984375 3.90625,-4.984375 h 1.5625 c 0.15625,0 0.34375,0 0.34375,-0.203125 0,-0.203125 -0.1875,-0.203125 -0.34375,-0.203125 H 3.890625 c -1.703125,0 -3.0625,1.296875 -3.0625,2.890625 0,1.609375 1.359375,2.90625 3.0625,2.90625 H 5.46875 c 0.15625,0 0.34375,0 0.34375,-0.203125 C 5.8125,0 5.625,0 5.46875,0 H 3.90625 C 2.5,0 1.359375,-0.953125 1.234375,-2.296875 Z m 0,0"
               style="stroke:none;stroke-width:0"
               inkscape:connector-curvature="0" />
          </g>
          <g
             id="g5221"
             style="fill:#000000;fill-opacity:1">
            <path
               id="path5219"
               transform="translate(164.492,134.765)"
               d="M 2.671875,-3.125 H 3.03125 l 1.5,2.3125 C 4.625,-0.65625 4.859375,-0.265625 4.96875,-0.125 5.046875,0 5.078125,0 5.296875,0 h 1.375 c 0.1875,0 0.34375,0 0.34375,-0.171875 0,-0.09375 -0.0625,-0.15625 -0.15625,-0.171875 C 6.484375,-0.421875 6,-1.09375 5.765625,-1.40625 5.6875,-1.5 5.1875,-2.15625 4.53125,-3.234375 5.40625,-3.40625 6.265625,-3.78125 6.265625,-4.96875 6.265625,-6.34375 4.8125,-6.828125 3.625,-6.828125 H 0.5 c -0.1875,0 -0.34375,0 -0.34375,0.171875 0,0.171875 0.1875,0.171875 0.265625,0.171875 0.578125,0 0.625,0.078125 0.625,0.578125 v 4.984375 c 0,0.5 -0.046875,0.578125 -0.625,0.578125 -0.078125,0 -0.265625,0 -0.265625,0.171875 C 0.15625,0 0.3125,0 0.5,0 H 3.234375 C 3.40625,0 3.5625,0 3.5625,-0.171875 c 0,-0.171875 -0.171875,-0.171875 -0.28125,-0.171875 -0.5625,0 -0.609375,-0.078125 -0.609375,-0.578125 z m 1.921875,-0.5 c 0.28125,-0.359375 0.3125,-0.890625 0.3125,-1.328125 0,-0.484375 -0.0625,-1.015625 -0.375,-1.421875 0.40625,0.09375 1.390625,0.40625 1.390625,1.40625 0,0.65625 -0.296875,1.15625 -1.328125,1.34375 z M 2.671875,-5.9375 c 0,-0.21875 0,-0.546875 0.625,-0.546875 0.84375,0 1.265625,0.359375 1.265625,1.53125 0,1.28125 -0.3125,1.46875 -1.890625,1.46875 z M 1.3125,-0.34375 C 1.390625,-0.53125 1.390625,-0.8125 1.390625,-0.890625 V -5.9375 c 0,-0.09375 0,-0.359375 -0.078125,-0.546875 h 1.140625 c -0.125,0.171875 -0.125,0.359375 -0.125,0.515625 v 5.078125 c 0,0.09375 0,0.359375 0.078125,0.546875 z M 3.4375,-3.125 c 0.078125,-0.015625 0.109375,-0.03125 0.1875,-0.03125 0.15625,0 0.375,-0.015625 0.515625,-0.03125 0.15625,0.234375 1.234375,2.015625 2.0625,2.84375 h -0.96875 z m 0,0"
               style="stroke:none;stroke-width:0"
               inkscape:connector-curvature="0" />
          </g>
          <g
             id="g5225"
             style="fill:#000000;fill-opacity:1">
            <path
               id="path5223"
               transform="translate(171.687,131.149)"
               d="M 3.984375,-4.625 C 3.984375,-4.640625 4,-4.734375 4,-4.734375 4,-4.78125 3.984375,-4.84375 3.890625,-4.84375 3.75,-4.84375 3.171875,-4.78125 3,-4.765625 c -0.046875,0 -0.15625,0.015625 -0.15625,0.15625 0,0.09375 0.109375,0.09375 0.1875,0.09375 0.328125,0 0.328125,0.0625 0.328125,0.109375 0,0.046875 0,0.09375 -0.015625,0.15625 L 2.9375,-2.65625 c -0.140625,-0.234375 -0.375,-0.421875 -0.71875,-0.421875 -0.890625,0 -1.796875,0.984375 -1.796875,1.984375 0,0.6875 0.453125,1.15625 1.0625,1.15625 0.375,0 0.703125,-0.203125 0.984375,-0.484375 C 2.59375,0 3,0.0625 3.1875,0.0625 c 0.25,0 0.421875,-0.140625 0.546875,-0.359375 0.15625,-0.28125 0.25,-0.671875 0.25,-0.703125 0,-0.09375 -0.09375,-0.09375 -0.109375,-0.09375 -0.109375,0 -0.109375,0.03125 -0.15625,0.21875 C 3.625,-0.53125 3.5,-0.125 3.203125,-0.125 3.03125,-0.125 2.96875,-0.28125 2.96875,-0.46875 c 0,-0.125 0.015625,-0.1875 0.046875,-0.28125 z M 2.5,-0.875 C 2.453125,-0.671875 2.296875,-0.53125 2.140625,-0.40625 2.078125,-0.34375 1.796875,-0.125 1.5,-0.125 c -0.265625,0 -0.515625,-0.1875 -0.515625,-0.671875 0,-0.375 0.203125,-1.140625 0.375,-1.421875 0.3125,-0.5625 0.671875,-0.65625 0.859375,-0.65625 0.484375,0 0.625,0.53125 0.625,0.609375 0,0.015625 -0.015625,0.078125 -0.015625,0.09375 z m 0,0"
               style="stroke:none;stroke-width:0"
               inkscape:connector-curvature="0" />
          </g>
          <g
             id="g5229"
             style="fill:#000000;fill-opacity:1">
            <path
               id="path5227"
               transform="translate(175.835,132.146)"
               d="M 1.984375,-3.171875 C 1.984375,-3.3125 1.96875,-3.3125 1.796875,-3.3125 1.453125,-3 0.890625,-3 0.796875,-3 H 0.71875 v 0.21875 h 0.078125 c 0.109375,0 0.4375,-0.015625 0.734375,-0.140625 v 2.5 c 0,0.140625 0,0.203125 -0.53125,0.203125 H 0.75 V 0 c 0.265625,-0.015625 0.71875,-0.015625 1,-0.015625 0.296875,0 0.734375,0 1.015625,0.015625 v -0.21875 h -0.25 c -0.53125,0 -0.53125,-0.0625 -0.53125,-0.203125 z m 0,0"
               style="stroke:none;stroke-width:0"
               inkscape:connector-curvature="0" />
          </g>
          <g
             id="g5233"
             style="fill:#000000;fill-opacity:1">
            <path
               id="path5231"
               transform="translate(179.723,131.149)"
               d="m 4.875,-3.265625 c 0.078125,-0.078125 0.09375,-0.125 0.09375,-0.171875 0,-0.109375 -0.078125,-0.171875 -0.15625,-0.171875 -0.078125,0 -0.09375,0.015625 -0.171875,0.109375 l -1.53125,1.515625 -1.53125,-1.53125 c -0.078125,-0.0625 -0.09375,-0.09375 -0.15625,-0.09375 -0.109375,0 -0.1875,0.078125 -0.1875,0.171875 0,0.0625 0.03125,0.078125 0.109375,0.171875 L 2.859375,-1.75 1.34375,-0.234375 C 1.25,-0.125 1.234375,-0.09375 1.234375,-0.0625 c 0,0.109375 0.078125,0.1875 0.1875,0.1875 0.0625,0 0.078125,-0.03125 0.15625,-0.109375 L 3.109375,-1.5 4.703125,0.078125 C 4.734375,0.109375 4.765625,0.125 4.8125,0.125 c 0.078125,0 0.15625,-0.0625 0.15625,-0.1875 0,-0.046875 0,-0.0625 -0.03125,-0.078125 -0.015625,-0.03125 -1.359375,-1.390625 -1.578125,-1.59375 z m 0,0"
               style="stroke:none;stroke-width:0"
               inkscape:connector-curvature="0" />
          </g>
          <g
             id="g5241"
             style="fill:#000000;fill-opacity:1">
            <path
               id="path5235"
               transform="translate(185.95,131.149)"
               d="m 1.578125,-0.390625 c 0,-0.25 -0.203125,-0.40625 -0.390625,-0.40625 -0.234375,0 -0.40625,0.1875 -0.40625,0.390625 0,0.25 0.203125,0.40625 0.390625,0.40625 0.234375,0 0.40625,-0.1875 0.40625,-0.390625 z m 0,0"
               style="stroke:none;stroke-width:0"
               inkscape:connector-curvature="0" />
            <path
               id="path5237"
               transform="translate(188.31621,131.149)"
               d="m 1.578125,-0.390625 c 0,-0.25 -0.203125,-0.40625 -0.390625,-0.40625 -0.234375,0 -0.40625,0.1875 -0.40625,0.390625 0,0.25 0.203125,0.40625 0.390625,0.40625 0.234375,0 0.40625,-0.1875 0.40625,-0.390625 z m 0,0"
               style="stroke:none;stroke-width:0"
               inkscape:connector-curvature="0" />
            <path
               id="path5239"
               transform="translate(190.68242,131.149)"
               d="m 1.578125,-0.390625 c 0,-0.25 -0.203125,-0.40625 -0.390625,-0.40625 -0.234375,0 -0.40625,0.1875 -0.40625,0.390625 0,0.25 0.203125,0.40625 0.390625,0.40625 0.234375,0 0.40625,-0.1875 0.40625,-0.390625 z m 0,0"
               style="stroke:none;stroke-width:0"
               inkscape:connector-curvature="0" />
          </g>
          <g
             id="g5245"
             style="fill:#000000;fill-opacity:1">
            <path
               id="path5243"
               transform="translate(193.048,131.149)"
               d="m 4.875,-3.265625 c 0.078125,-0.078125 0.09375,-0.125 0.09375,-0.171875 0,-0.109375 -0.078125,-0.171875 -0.15625,-0.171875 -0.078125,0 -0.09375,0.015625 -0.171875,0.109375 l -1.53125,1.515625 -1.53125,-1.53125 c -0.078125,-0.0625 -0.09375,-0.09375 -0.15625,-0.09375 -0.109375,0 -0.1875,0.078125 -0.1875,0.171875 0,0.0625 0.03125,0.078125 0.109375,0.171875 L 2.859375,-1.75 1.34375,-0.234375 C 1.25,-0.125 1.234375,-0.09375 1.234375,-0.0625 c 0,0.109375 0.078125,0.1875 0.1875,0.1875 0.0625,0 0.078125,-0.03125 0.15625,-0.109375 L 3.109375,-1.5 4.703125,0.078125 C 4.734375,0.109375 4.765625,0.125 4.8125,0.125 c 0.078125,0 0.15625,-0.0625 0.15625,-0.1875 0,-0.046875 0,-0.0625 -0.03125,-0.078125 -0.015625,-0.03125 -1.359375,-1.390625 -1.578125,-1.59375 z m 0,0"
               style="stroke:none;stroke-width:0"
               inkscape:connector-curvature="0" />
          </g>
          <g
             id="g5249"
             style="fill:#000000;fill-opacity:1">
            <path
               id="path5247"
               transform="translate(199.275,131.149)"
               d="M 3.984375,-4.625 C 3.984375,-4.640625 4,-4.734375 4,-4.734375 4,-4.78125 3.984375,-4.84375 3.890625,-4.84375 3.75,-4.84375 3.171875,-4.78125 3,-4.765625 c -0.046875,0 -0.15625,0.015625 -0.15625,0.15625 0,0.09375 0.109375,0.09375 0.1875,0.09375 0.328125,0 0.328125,0.0625 0.328125,0.109375 0,0.046875 0,0.09375 -0.015625,0.15625 L 2.9375,-2.65625 c -0.140625,-0.234375 -0.375,-0.421875 -0.71875,-0.421875 -0.890625,0 -1.796875,0.984375 -1.796875,1.984375 0,0.6875 0.453125,1.15625 1.0625,1.15625 0.375,0 0.703125,-0.203125 0.984375,-0.484375 C 2.59375,0 3,0.0625 3.1875,0.0625 c 0.25,0 0.421875,-0.140625 0.546875,-0.359375 0.15625,-0.28125 0.25,-0.671875 0.25,-0.703125 0,-0.09375 -0.09375,-0.09375 -0.109375,-0.09375 -0.109375,0 -0.109375,0.03125 -0.15625,0.21875 C 3.625,-0.53125 3.5,-0.125 3.203125,-0.125 3.03125,-0.125 2.96875,-0.28125 2.96875,-0.46875 c 0,-0.125 0.015625,-0.1875 0.046875,-0.28125 z M 2.5,-0.875 C 2.453125,-0.671875 2.296875,-0.53125 2.140625,-0.40625 2.078125,-0.34375 1.796875,-0.125 1.5,-0.125 c -0.265625,0 -0.515625,-0.1875 -0.515625,-0.671875 0,-0.375 0.203125,-1.140625 0.375,-1.421875 0.3125,-0.5625 0.671875,-0.65625 0.859375,-0.65625 0.484375,0 0.625,0.53125 0.625,0.609375 0,0.015625 -0.015625,0.078125 -0.015625,0.09375 z m 0,0"
               style="stroke:none;stroke-width:0"
               inkscape:connector-curvature="0" />
          </g>
          <g
             id="g5253"
             style="fill:#000000;fill-opacity:1">
            <path
               id="path5251"
               transform="translate(203.422,132.146)"
               d="m 3.078125,-0.8125 v -0.21875 h -0.625 v -2.1875 c 0,-0.125 0,-0.15625 -0.140625,-0.15625 -0.09375,0 -0.09375,0 -0.15625,0.078125 L 0.3125,-1.03125 v 0.21875 h 1.65625 v 0.390625 c 0,0.15625 0,0.203125 -0.421875,0.203125 h -0.1875 V 0 c 0.234375,-0.015625 0.5625,-0.015625 0.859375,-0.015625 0.28125,0 0.609375,0 0.84375,0.015625 V -0.21875 H 2.890625 c -0.4375,0 -0.4375,-0.046875 -0.4375,-0.203125 V -0.8125 Z m -1.0625,-2.03125 v 1.8125 h -1.46875 z m 0,0"
               style="stroke:none;stroke-width:0"
               inkscape:connector-curvature="0" />
          </g>
        </g>
      </g>
      <g
         transform="matrix(1.0463835,0,0,1.0463835,-76.986888,20.398082)"
         ns1:version="0.11.0"
         ns1:texconverter="pdflatex"
         ns1:pdfconverter="pdf2svg"
         ns1:text="$\\mathcal{V}$"
         ns1:preamble="/Users/jemis/.config/inkscape/extensions/textext/default_packages.tex"
         ns1:scale="2.74846529545"
         ns1:alignment="middle center"
         inkscapeversion="0.92.2"
         ns1:jacobian_sqrt="0.969598"
         style="stroke-width:0.92661822"
         id="g5452">
        <g
           style="stroke-width:1.04989338"
           id="g5450">
          <g
             style="fill:#000000;fill-opacity:1;stroke-width:0.92661822"
             id="g5448">
            <path
               inkscape:connector-curvature="0"
               style="stroke:none;stroke-width:0"
               d="m 2.6875,-0.859375 c 0.15625,-1.21875 0.15625,-2.125 0.15625,-2.265625 0,-0.71875 0,-3.6875 -1.8125,-3.6875 -0.34375,0 -0.6875,0.28125 -0.6875,0.421875 0,0.078125 0.046875,0.078125 0.1875,0.078125 1.453125,0.125 1.578125,2.421875 1.578125,3.546875 0,1 -0.140625,2.203125 -0.25,2.859375 -0.03125,0.125 -0.03125,0.140625 -0.03125,0.1875 0,0.046875 0,0.171875 0.078125,0.171875 0.109375,0 2.515625,-1.84375 3.78125,-3.765625 0.515625,-0.78125 0.890625,-1.671875 0.890625,-2.34375 0,-0.84375 -0.5625,-1.15625 -0.96875,-1.15625 -0.28125,0 -0.421875,0.625 -0.421875,0.765625 0,0.140625 0.046875,0.140625 0.171875,0.15625 0.65625,0.078125 0.78125,0.609375 0.78125,0.84375 0,0.8125 -1.734375,2.859375 -3.453125,4.1875 z m 0,0"
               transform="translate(148.712,134.765)"
               id="path5446" />
          </g>
        </g>
      </g>
      <g
         transform="matrix(1.020283,0,0,1.020283,-45.511315,36.832143)"
         ns1:version="0.11.0"
         ns1:texconverter="pdflatex"
         ns1:pdfconverter="pdf2svg"
         ns1:text="$\\mathcal{A}_i$"
         ns1:preamble="/Users/jemis/.config/inkscape/extensions/textext/default_packages.tex"
         ns1:scale="2.8921398113"
         ns1:alignment="middle center"
         inkscapeversion="0.92.2"
         ns1:jacobian_sqrt="1.020283"
         id="g5658">
        <g
           id="g5656">
          <g
             style="fill:#000000;fill-opacity:1"
             id="g5650">
            <path
               inkscape:connector-curvature="0"
               style="stroke:none;stroke-width:0"
               d="m 5.9375,-1.640625 c 0.046875,0.625 0.15625,1.078125 0.21875,1.265625 0.109375,0.453125 0.15625,0.671875 0.578125,0.671875 0.453125,0 1.21875,-0.453125 1.21875,-0.640625 0,-0.0625 -0.03125,-0.078125 -0.09375,-0.078125 -0.125,0 -0.328125,0.109375 -0.359375,0.125 C 7.421875,-0.25 7.40625,-0.25 7.390625,-0.25 7.109375,-0.25 7.046875,-0.515625 6.921875,-1.109375 6.859375,-1.453125 6.765625,-1.84375 6.6875,-3.203125 6.625,-4.234375 6.578125,-5.25 6.578125,-6.265625 6.578125,-6.5 6.59375,-6.765625 6.59375,-7 c 0,-0.15625 0,-0.203125 -0.109375,-0.203125 -0.140625,0 -0.546875,0.171875 -0.734375,0.4375 L 5.6875,-6.65625 c -0.796875,1.6875 -1.53125,2.890625 -2.046875,3.703125 -0.59375,0.90625 -1.625,2.53125 -2.171875,2.53125 -0.359375,0 -0.671875,-0.234375 -0.765625,-0.59375 0,-0.015625 -0.03125,-0.078125 -0.0625,-0.078125 -0.15625,0 -0.375,0.46875 -0.375,0.75 0,0.40625 0.4375,0.84375 0.90625,0.84375 C 1.859375,0.5 3,-1.296875 3.21875,-1.640625 Z M 5.734375,-5.96875 v 0.578125 c 0,0.578125 0.015625,1.15625 0.046875,1.734375 0.015625,0.203125 0.046875,0.9375 0.09375,1.46875 H 4.0625 c -0.171875,0 -0.3125,0 -0.578125,0.15625 0.703125,-1.078125 1.28125,-2.109375 1.34375,-2.21875 0.5,-0.890625 0.765625,-1.46875 0.890625,-1.71875 z m 0,0"
               transform="translate(148.712,134.765)"
               id="path5648" />
          </g>
          <g
             style="fill:#000000;fill-opacity:1"
             id="g5654">
            <path
               inkscape:connector-curvature="0"
               style="stroke:none;stroke-width:0"
               d="m 2.265625,-4.359375 c 0,-0.109375 -0.09375,-0.265625 -0.28125,-0.265625 -0.1875,0 -0.390625,0.1875 -0.390625,0.390625 0,0.109375 0.078125,0.265625 0.28125,0.265625 0.1875,0 0.390625,-0.203125 0.390625,-0.390625 z M 0.84375,-0.8125 c -0.03125,0.09375 -0.0625,0.171875 -0.0625,0.296875 0,0.328125 0.265625,0.578125 0.65625,0.578125 0.6875,0 1,-0.953125 1,-1.0625 0,-0.09375 -0.09375,-0.09375 -0.109375,-0.09375 -0.09375,0 -0.109375,0.046875 -0.140625,0.125 -0.15625,0.5625 -0.453125,0.84375 -0.734375,0.84375 -0.140625,0 -0.171875,-0.09375 -0.171875,-0.25 0,-0.15625 0.046875,-0.28125 0.109375,-0.4375 C 1.46875,-1 1.546875,-1.1875 1.609375,-1.375 1.671875,-1.546875 1.9375,-2.171875 1.953125,-2.265625 1.984375,-2.328125 2,-2.40625 2,-2.484375 2,-2.8125 1.71875,-3.078125 1.34375,-3.078125 0.640625,-3.078125 0.328125,-2.125 0.328125,-2 c 0,0.078125 0.09375,0.078125 0.125,0.078125 0.09375,0 0.09375,-0.03125 0.125,-0.109375 C 0.75,-2.625 1.0625,-2.875 1.3125,-2.875 c 0.109375,0 0.171875,0.046875 0.171875,0.234375 0,0.171875 -0.03125,0.265625 -0.203125,0.703125 z m 0,0"
               transform="translate(156.667,136.259)"
               id="path5652" />
          </g>
        </g>
      </g>
      <g
         id="g6098"
         ns1:jacobian_sqrt="1.020283"
         inkscapeversion="0.92.2"
         ns1:alignment="middle center"
         ns1:scale="2.8921398113"
         ns1:preamble="/Users/jemis/.config/inkscape/extensions/textext/default_packages.tex"
         ns1:text="$\\mathcal{A}_2 \\!\\in\\! \\mathbb{R}^{r_1\\times d_2\\times r_2}$"
         ns1:pdfconverter="pdf2svg"
         ns1:texconverter="pdflatex"
         ns1:version="0.11.0"
         transform="matrix(1.020283,0,0,1.020283,-81.440576,51.263419)">
        <g
           id="g6096">
          <g
             id="g6050"
             style="fill:#000000;fill-opacity:1">
            <path
               id="path6048"
               transform="translate(148.712,134.765)"
               d="m 5.9375,-1.640625 c 0.046875,0.625 0.15625,1.078125 0.21875,1.265625 0.109375,0.453125 0.15625,0.671875 0.578125,0.671875 0.453125,0 1.21875,-0.453125 1.21875,-0.640625 0,-0.0625 -0.03125,-0.078125 -0.09375,-0.078125 -0.125,0 -0.328125,0.109375 -0.359375,0.125 C 7.421875,-0.25 7.40625,-0.25 7.390625,-0.25 7.109375,-0.25 7.046875,-0.515625 6.921875,-1.109375 6.859375,-1.453125 6.765625,-1.84375 6.6875,-3.203125 6.625,-4.234375 6.578125,-5.25 6.578125,-6.265625 6.578125,-6.5 6.59375,-6.765625 6.59375,-7 c 0,-0.15625 0,-0.203125 -0.109375,-0.203125 -0.140625,0 -0.546875,0.171875 -0.734375,0.4375 L 5.6875,-6.65625 c -0.796875,1.6875 -1.53125,2.890625 -2.046875,3.703125 -0.59375,0.90625 -1.625,2.53125 -2.171875,2.53125 -0.359375,0 -0.671875,-0.234375 -0.765625,-0.59375 0,-0.015625 -0.03125,-0.078125 -0.0625,-0.078125 -0.15625,0 -0.375,0.46875 -0.375,0.75 0,0.40625 0.4375,0.84375 0.90625,0.84375 C 1.859375,0.5 3,-1.296875 3.21875,-1.640625 Z M 5.734375,-5.96875 v 0.578125 c 0,0.578125 0.015625,1.15625 0.046875,1.734375 0.015625,0.203125 0.046875,0.9375 0.09375,1.46875 H 4.0625 c -0.171875,0 -0.3125,0 -0.578125,0.15625 0.703125,-1.078125 1.28125,-2.109375 1.34375,-2.21875 0.5,-0.890625 0.765625,-1.46875 0.890625,-1.71875 z m 0,0"
               style="stroke:none;stroke-width:0"
               inkscape:connector-curvature="0" />
          </g>
          <g
             id="g6054"
             style="fill:#000000;fill-opacity:1">
            <path
               id="path6052"
               transform="translate(156.667,136.259)"
               d="M 3.515625,-1.265625 H 3.28125 c -0.015625,0.15625 -0.09375,0.5625 -0.1875,0.625 C 3.046875,-0.59375 2.515625,-0.59375 2.40625,-0.59375 H 1.125 c 0.734375,-0.640625 0.984375,-0.84375 1.390625,-1.171875 0.515625,-0.40625 1,-0.84375 1,-1.5 0,-0.84375 -0.734375,-1.359375 -1.625,-1.359375 -0.859375,0 -1.453125,0.609375 -1.453125,1.25 0,0.34375 0.296875,0.390625 0.375,0.390625 0.15625,0 0.359375,-0.125 0.359375,-0.375 0,-0.125 -0.046875,-0.375 -0.40625,-0.375 C 0.984375,-4.21875 1.453125,-4.375 1.78125,-4.375 c 0.703125,0 1.0625,0.546875 1.0625,1.109375 0,0.609375 -0.4375,1.078125 -0.65625,1.328125 L 0.515625,-0.265625 C 0.4375,-0.203125 0.4375,-0.1875 0.4375,0 h 2.875 z m 0,0"
               style="stroke:none;stroke-width:0"
               inkscape:connector-curvature="0" />
          </g>
          <g
             id="g6058"
             style="fill:#000000;fill-opacity:1">
            <path
               id="path6056"
               transform="translate(162.243,134.765)"
               d="m 5.46875,-2.296875 c 0.15625,0 0.34375,0 0.34375,-0.203125 0,-0.1875 -0.1875,-0.1875 -0.34375,-0.1875 H 1.234375 C 1.359375,-4.03125 2.5,-4.984375 3.90625,-4.984375 h 1.5625 c 0.15625,0 0.34375,0 0.34375,-0.203125 0,-0.203125 -0.1875,-0.203125 -0.34375,-0.203125 H 3.890625 c -1.703125,0 -3.0625,1.296875 -3.0625,2.890625 0,1.609375 1.359375,2.90625 3.0625,2.90625 H 5.46875 c 0.15625,0 0.34375,0 0.34375,-0.203125 C 5.8125,0 5.625,0 5.46875,0 H 3.90625 C 2.5,0 1.359375,-0.953125 1.234375,-2.296875 Z m 0,0"
               style="stroke:none;stroke-width:0"
               inkscape:connector-curvature="0" />
          </g>
          <g
             id="g6062"
             style="fill:#000000;fill-opacity:1">
            <path
               id="path6060"
               transform="translate(169.992,134.765)"
               d="M 2.671875,-3.125 H 3.03125 l 1.5,2.3125 C 4.625,-0.65625 4.859375,-0.265625 4.96875,-0.125 5.046875,0 5.078125,0 5.296875,0 h 1.375 c 0.1875,0 0.34375,0 0.34375,-0.171875 0,-0.09375 -0.0625,-0.15625 -0.15625,-0.171875 C 6.484375,-0.421875 6,-1.09375 5.765625,-1.40625 5.6875,-1.5 5.1875,-2.15625 4.53125,-3.234375 5.40625,-3.40625 6.265625,-3.78125 6.265625,-4.96875 6.265625,-6.34375 4.8125,-6.828125 3.625,-6.828125 H 0.5 c -0.1875,0 -0.34375,0 -0.34375,0.171875 0,0.171875 0.1875,0.171875 0.265625,0.171875 0.578125,0 0.625,0.078125 0.625,0.578125 v 4.984375 c 0,0.5 -0.046875,0.578125 -0.625,0.578125 -0.078125,0 -0.265625,0 -0.265625,0.171875 C 0.15625,0 0.3125,0 0.5,0 H 3.234375 C 3.40625,0 3.5625,0 3.5625,-0.171875 c 0,-0.171875 -0.171875,-0.171875 -0.28125,-0.171875 -0.5625,0 -0.609375,-0.078125 -0.609375,-0.578125 z m 1.921875,-0.5 c 0.28125,-0.359375 0.3125,-0.890625 0.3125,-1.328125 0,-0.484375 -0.0625,-1.015625 -0.375,-1.421875 0.40625,0.09375 1.390625,0.40625 1.390625,1.40625 0,0.65625 -0.296875,1.15625 -1.328125,1.34375 z M 2.671875,-5.9375 c 0,-0.21875 0,-0.546875 0.625,-0.546875 0.84375,0 1.265625,0.359375 1.265625,1.53125 0,1.28125 -0.3125,1.46875 -1.890625,1.46875 z M 1.3125,-0.34375 C 1.390625,-0.53125 1.390625,-0.8125 1.390625,-0.890625 V -5.9375 c 0,-0.09375 0,-0.359375 -0.078125,-0.546875 h 1.140625 c -0.125,0.171875 -0.125,0.359375 -0.125,0.515625 v 5.078125 c 0,0.09375 0,0.359375 0.078125,0.546875 z M 3.4375,-3.125 c 0.078125,-0.015625 0.109375,-0.03125 0.1875,-0.03125 0.15625,0 0.375,-0.015625 0.515625,-0.03125 0.15625,0.234375 1.234375,2.015625 2.0625,2.84375 h -0.96875 z m 0,0"
               style="stroke:none;stroke-width:0"
               inkscape:connector-curvature="0" />
          </g>
          <g
             id="g6066"
             style="fill:#000000;fill-opacity:1">
            <path
               id="path6064"
               transform="translate(177.187,131.149)"
               d="m 1.640625,-1.40625 c 0,-0.046875 0.171875,-0.671875 0.171875,-0.703125 0.015625,-0.0625 0.21875,-0.40625 0.453125,-0.578125 0.0625,-0.046875 0.25,-0.1875 0.5625,-0.1875 0.0625,0 0.234375,0 0.375,0.09375 -0.21875,0.0625 -0.296875,0.265625 -0.296875,0.390625 0,0.140625 0.109375,0.25 0.265625,0.25 0.171875,0 0.390625,-0.125 0.390625,-0.421875 0,-0.359375 -0.375,-0.515625 -0.734375,-0.515625 -0.359375,0 -0.671875,0.15625 -0.984375,0.5 -0.125,-0.421875 -0.546875,-0.5 -0.71875,-0.5 -0.25,0 -0.421875,0.171875 -0.546875,0.359375 -0.15625,0.265625 -0.25,0.671875 -0.25,0.71875 0,0.078125 0.09375,0.078125 0.125,0.078125 0.09375,0 0.09375,-0.015625 0.140625,-0.203125 0.109375,-0.421875 0.25,-0.75 0.515625,-0.75 0.1875,0 0.234375,0.15625 0.234375,0.34375 0,0.125 -0.0625,0.390625 -0.125,0.578125 -0.046875,0.1875 -0.109375,0.46875 -0.140625,0.625 L 0.84375,-0.4375 C 0.828125,-0.34375 0.78125,-0.171875 0.78125,-0.15625 0.78125,0 0.90625,0.0625 1.015625,0.0625 1.125,0.0625 1.265625,0 1.3125,-0.125 1.328125,-0.171875 1.40625,-0.484375 1.453125,-0.65625 Z m 0,0"
               style="stroke:none;stroke-width:0"
               inkscape:connector-curvature="0" />
          </g>
          <g
             id="g6070"
             style="fill:#000000;fill-opacity:1">
            <path
               id="path6068"
               transform="translate(180.887,132.146)"
               d="M 1.984375,-3.171875 C 1.984375,-3.3125 1.96875,-3.3125 1.796875,-3.3125 1.453125,-3 0.890625,-3 0.796875,-3 H 0.71875 v 0.21875 h 0.078125 c 0.109375,0 0.4375,-0.015625 0.734375,-0.140625 v 2.5 c 0,0.140625 0,0.203125 -0.53125,0.203125 H 0.75 V 0 c 0.265625,-0.015625 0.71875,-0.015625 1,-0.015625 0.296875,0 0.734375,0 1.015625,0.015625 v -0.21875 h -0.25 c -0.53125,0 -0.53125,-0.0625 -0.53125,-0.203125 z m 0,0"
               style="stroke:none;stroke-width:0"
               inkscape:connector-curvature="0" />
          </g>
          <g
             id="g6074"
             style="fill:#000000;fill-opacity:1">
            <path
               id="path6072"
               transform="translate(184.775,131.149)"
               d="m 4.875,-3.265625 c 0.078125,-0.078125 0.09375,-0.125 0.09375,-0.171875 0,-0.109375 -0.078125,-0.171875 -0.15625,-0.171875 -0.078125,0 -0.09375,0.015625 -0.171875,0.109375 l -1.53125,1.515625 -1.53125,-1.53125 c -0.078125,-0.0625 -0.09375,-0.09375 -0.15625,-0.09375 -0.109375,0 -0.1875,0.078125 -0.1875,0.171875 0,0.0625 0.03125,0.078125 0.109375,0.171875 L 2.859375,-1.75 1.34375,-0.234375 C 1.25,-0.125 1.234375,-0.09375 1.234375,-0.0625 c 0,0.109375 0.078125,0.1875 0.1875,0.1875 0.0625,0 0.078125,-0.03125 0.15625,-0.109375 L 3.109375,-1.5 4.703125,0.078125 C 4.734375,0.109375 4.765625,0.125 4.8125,0.125 c 0.078125,0 0.15625,-0.0625 0.15625,-0.1875 0,-0.046875 0,-0.0625 -0.03125,-0.078125 -0.015625,-0.03125 -1.359375,-1.390625 -1.578125,-1.59375 z m 0,0"
               style="stroke:none;stroke-width:0"
               inkscape:connector-curvature="0" />
          </g>
          <g
             id="g6078"
             style="fill:#000000;fill-opacity:1">
            <path
               id="path6076"
               transform="translate(191.001,131.149)"
               d="M 3.984375,-4.625 C 3.984375,-4.640625 4,-4.734375 4,-4.734375 4,-4.78125 3.984375,-4.84375 3.890625,-4.84375 3.75,-4.84375 3.171875,-4.78125 3,-4.765625 c -0.046875,0 -0.15625,0.015625 -0.15625,0.15625 0,0.09375 0.109375,0.09375 0.1875,0.09375 0.328125,0 0.328125,0.0625 0.328125,0.109375 0,0.046875 0,0.09375 -0.015625,0.15625 L 2.9375,-2.65625 c -0.140625,-0.234375 -0.375,-0.421875 -0.71875,-0.421875 -0.890625,0 -1.796875,0.984375 -1.796875,1.984375 0,0.6875 0.453125,1.15625 1.0625,1.15625 0.375,0 0.703125,-0.203125 0.984375,-0.484375 C 2.59375,0 3,0.0625 3.1875,0.0625 c 0.25,0 0.421875,-0.140625 0.546875,-0.359375 0.15625,-0.28125 0.25,-0.671875 0.25,-0.703125 0,-0.09375 -0.09375,-0.09375 -0.109375,-0.09375 -0.109375,0 -0.109375,0.03125 -0.15625,0.21875 C 3.625,-0.53125 3.5,-0.125 3.203125,-0.125 3.03125,-0.125 2.96875,-0.28125 2.96875,-0.46875 c 0,-0.125 0.015625,-0.1875 0.046875,-0.28125 z M 2.5,-0.875 C 2.453125,-0.671875 2.296875,-0.53125 2.140625,-0.40625 2.078125,-0.34375 1.796875,-0.125 1.5,-0.125 c -0.265625,0 -0.515625,-0.1875 -0.515625,-0.671875 0,-0.375 0.203125,-1.140625 0.375,-1.421875 0.3125,-0.5625 0.671875,-0.65625 0.859375,-0.65625 0.484375,0 0.625,0.53125 0.625,0.609375 0,0.015625 -0.015625,0.078125 -0.015625,0.09375 z m 0,0"
               style="stroke:none;stroke-width:0"
               inkscape:connector-curvature="0" />
          </g>
          <g
             id="g6082"
             style="fill:#000000;fill-opacity:1">
            <path
               id="path6080"
               transform="translate(195.149,132.146)"
               d="M 2.9375,-0.96875 H 2.71875 c 0,0.09375 -0.0625,0.40625 -0.140625,0.453125 -0.03125,0.03125 -0.453125,0.03125 -0.53125,0.03125 H 1.078125 C 1.40625,-0.71875 1.765625,-1 2.0625,-1.203125 c 0.453125,-0.3125 0.875,-0.59375 0.875,-1.125 0,-0.640625 -0.609375,-0.984375 -1.3125,-0.984375 -0.671875,0 -1.171875,0.375 -1.171875,0.875 0,0.25 0.21875,0.296875 0.296875,0.296875 0.125,0 0.28125,-0.09375 0.28125,-0.296875 0,-0.171875 -0.125,-0.28125 -0.28125,-0.28125 0.140625,-0.234375 0.4375,-0.375 0.765625,-0.375 0.484375,0 0.890625,0.28125 0.890625,0.765625 0,0.421875 -0.296875,0.75 -0.671875,1.0625 l -1.21875,1.03125 C 0.46875,-0.1875 0.453125,-0.1875 0.453125,-0.15625 V 0 h 2.3125 z m 0,0"
               style="stroke:none;stroke-width:0"
               inkscape:connector-curvature="0" />
          </g>
          <g
             id="g6086"
             style="fill:#000000;fill-opacity:1">
            <path
               id="path6084"
               transform="translate(199.037,131.149)"
               d="m 4.875,-3.265625 c 0.078125,-0.078125 0.09375,-0.125 0.09375,-0.171875 0,-0.109375 -0.078125,-0.171875 -0.15625,-0.171875 -0.078125,0 -0.09375,0.015625 -0.171875,0.109375 l -1.53125,1.515625 -1.53125,-1.53125 c -0.078125,-0.0625 -0.09375,-0.09375 -0.15625,-0.09375 -0.109375,0 -0.1875,0.078125 -0.1875,0.171875 0,0.0625 0.03125,0.078125 0.109375,0.171875 L 2.859375,-1.75 1.34375,-0.234375 C 1.25,-0.125 1.234375,-0.09375 1.234375,-0.0625 c 0,0.109375 0.078125,0.1875 0.1875,0.1875 0.0625,0 0.078125,-0.03125 0.15625,-0.109375 L 3.109375,-1.5 4.703125,0.078125 C 4.734375,0.109375 4.765625,0.125 4.8125,0.125 c 0.078125,0 0.15625,-0.0625 0.15625,-0.1875 0,-0.046875 0,-0.0625 -0.03125,-0.078125 -0.015625,-0.03125 -1.359375,-1.390625 -1.578125,-1.59375 z m 0,0"
               style="stroke:none;stroke-width:0"
               inkscape:connector-curvature="0" />
          </g>
          <g
             id="g6090"
             style="fill:#000000;fill-opacity:1">
            <path
               id="path6088"
               transform="translate(205.264,131.149)"
               d="m 1.640625,-1.40625 c 0,-0.046875 0.171875,-0.671875 0.171875,-0.703125 0.015625,-0.0625 0.21875,-0.40625 0.453125,-0.578125 0.0625,-0.046875 0.25,-0.1875 0.5625,-0.1875 0.0625,0 0.234375,0 0.375,0.09375 -0.21875,0.0625 -0.296875,0.265625 -0.296875,0.390625 0,0.140625 0.109375,0.25 0.265625,0.25 0.171875,0 0.390625,-0.125 0.390625,-0.421875 0,-0.359375 -0.375,-0.515625 -0.734375,-0.515625 -0.359375,0 -0.671875,0.15625 -0.984375,0.5 -0.125,-0.421875 -0.546875,-0.5 -0.71875,-0.5 -0.25,0 -0.421875,0.171875 -0.546875,0.359375 -0.15625,0.265625 -0.25,0.671875 -0.25,0.71875 0,0.078125 0.09375,0.078125 0.125,0.078125 0.09375,0 0.09375,-0.015625 0.140625,-0.203125 0.109375,-0.421875 0.25,-0.75 0.515625,-0.75 0.1875,0 0.234375,0.15625 0.234375,0.34375 0,0.125 -0.0625,0.390625 -0.125,0.578125 -0.046875,0.1875 -0.109375,0.46875 -0.140625,0.625 L 0.84375,-0.4375 C 0.828125,-0.34375 0.78125,-0.171875 0.78125,-0.15625 0.78125,0 0.90625,0.0625 1.015625,0.0625 1.125,0.0625 1.265625,0 1.3125,-0.125 1.328125,-0.171875 1.40625,-0.484375 1.453125,-0.65625 Z m 0,0"
               style="stroke:none;stroke-width:0"
               inkscape:connector-curvature="0" />
          </g>
          <g
             id="g6094"
             style="fill:#000000;fill-opacity:1">
            <path
               id="path6092"
               transform="translate(208.963,132.146)"
               d="M 2.9375,-0.96875 H 2.71875 c 0,0.09375 -0.0625,0.40625 -0.140625,0.453125 -0.03125,0.03125 -0.453125,0.03125 -0.53125,0.03125 H 1.078125 C 1.40625,-0.71875 1.765625,-1 2.0625,-1.203125 c 0.453125,-0.3125 0.875,-0.59375 0.875,-1.125 0,-0.640625 -0.609375,-0.984375 -1.3125,-0.984375 -0.671875,0 -1.171875,0.375 -1.171875,0.875 0,0.25 0.21875,0.296875 0.296875,0.296875 0.125,0 0.28125,-0.09375 0.28125,-0.296875 0,-0.171875 -0.125,-0.28125 -0.28125,-0.28125 0.140625,-0.234375 0.4375,-0.375 0.765625,-0.375 0.484375,0 0.890625,0.28125 0.890625,0.765625 0,0.421875 -0.296875,0.75 -0.671875,1.0625 l -1.21875,1.03125 C 0.46875,-0.1875 0.453125,-0.1875 0.453125,-0.15625 V 0 h 2.3125 z m 0,0"
               style="stroke:none;stroke-width:0"
               inkscape:connector-curvature="0" />
          </g>
        </g>
      </g>
      <g
         transform="matrix(1.020283,0,0,1.020283,-107.26217,63.980344)"
         ns1:version="0.11.0"
         ns1:texconverter="pdflatex"
         ns1:pdfconverter="pdf2svg"
         ns1:text="$r_i$"
         ns1:preamble="/Users/jemis/.config/inkscape/extensions/textext/default_packages.tex"
         ns1:scale="2.8921398113"
         ns1:alignment="middle center"
         inkscapeversion="0.92.2"
         ns1:jacobian_sqrt="1.020283"
         id="g6554">
        <g
           id="g6552">
          <g
             style="fill:#000000;fill-opacity:1"
             id="g6546">
            <path
               inkscape:connector-curvature="0"
               style="stroke:none;stroke-width:0"
               d="m 0.875,-0.59375 c -0.03125,0.15625 -0.09375,0.390625 -0.09375,0.4375 0,0.171875 0.140625,0.265625 0.296875,0.265625 0.125,0 0.296875,-0.078125 0.375,-0.28125 C 1.46875,-0.203125 1.796875,-1.5625 1.84375,-1.75 c 0.078125,-0.328125 0.265625,-1.015625 0.3125,-1.296875 0.046875,-0.125 0.328125,-0.59375 0.5625,-0.8125 0.078125,-0.0625 0.375,-0.328125 0.796875,-0.328125 0.265625,0 0.40625,0.125 0.421875,0.125 -0.296875,0.046875 -0.515625,0.28125 -0.515625,0.546875 0,0.15625 0.109375,0.34375 0.375,0.34375 0.265625,0 0.546875,-0.234375 0.546875,-0.59375 0,-0.34375 -0.3125,-0.640625 -0.828125,-0.640625 C 2.875,-4.40625 2.4375,-3.921875 2.25,-3.640625 2.15625,-4.09375 1.796875,-4.40625 1.328125,-4.40625 0.875,-4.40625 0.6875,-4.015625 0.59375,-3.84375 0.421875,-3.5 0.296875,-2.90625 0.296875,-2.875 c 0,0.109375 0.09375,0.109375 0.109375,0.109375 0.109375,0 0.109375,-0.015625 0.171875,-0.234375 0.171875,-0.703125 0.375,-1.1875 0.734375,-1.1875 0.15625,0 0.296875,0.078125 0.296875,0.453125 0,0.21875 -0.03125,0.328125 -0.15625,0.84375 z m 0,0"
               transform="translate(148.712,134.765)"
               id="path6544" />
          </g>
          <g
             style="fill:#000000;fill-opacity:1"
             id="g6550">
            <path
               inkscape:connector-curvature="0"
               style="stroke:none;stroke-width:0"
               d="m 2.265625,-4.359375 c 0,-0.109375 -0.09375,-0.265625 -0.28125,-0.265625 -0.1875,0 -0.390625,0.1875 -0.390625,0.390625 0,0.109375 0.078125,0.265625 0.28125,0.265625 0.1875,0 0.390625,-0.203125 0.390625,-0.390625 z M 0.84375,-0.8125 c -0.03125,0.09375 -0.0625,0.171875 -0.0625,0.296875 0,0.328125 0.265625,0.578125 0.65625,0.578125 0.6875,0 1,-0.953125 1,-1.0625 0,-0.09375 -0.09375,-0.09375 -0.109375,-0.09375 -0.09375,0 -0.109375,0.046875 -0.140625,0.125 -0.15625,0.5625 -0.453125,0.84375 -0.734375,0.84375 -0.140625,0 -0.171875,-0.09375 -0.171875,-0.25 0,-0.15625 0.046875,-0.28125 0.109375,-0.4375 C 1.46875,-1 1.546875,-1.1875 1.609375,-1.375 1.671875,-1.546875 1.9375,-2.171875 1.953125,-2.265625 1.984375,-2.328125 2,-2.40625 2,-2.484375 2,-2.8125 1.71875,-3.078125 1.34375,-3.078125 0.640625,-3.078125 0.328125,-2.125 0.328125,-2 c 0,0.078125 0.09375,0.078125 0.125,0.078125 0.09375,0 0.09375,-0.03125 0.125,-0.109375 C 0.75,-2.625 1.0625,-2.875 1.3125,-2.875 c 0.109375,0 0.171875,0.046875 0.171875,0.234375 0,0.171875 -0.03125,0.265625 -0.203125,0.703125 z m 0,0"
               transform="translate(153.207,136.259)"
               id="path6548" />
          </g>
        </g>
      </g>
    </g>
  </g>
</svg>
