<?xml version="1.0" encoding="UTF-8" standalone="no"?>
<!-- Created with Inkscape (http://www.inkscape.org/) -->

<svg
   xmlns:ns1="http://www.iki.fi/pav/software/textext/"
   xmlns:osb="http://www.openswatchbook.org/uri/2009/osb"
   xmlns:dc="http://purl.org/dc/elements/1.1/"
   xmlns:cc="http://creativecommons.org/ns#"
   xmlns:rdf="http://www.w3.org/1999/02/22-rdf-syntax-ns#"
   xmlns:svg="http://www.w3.org/2000/svg"
   xmlns="http://www.w3.org/2000/svg"
   xmlns:xlink="http://www.w3.org/1999/xlink"
   xmlns:sodipodi="http://sodipodi.sourceforge.net/DTD/sodipodi-0.dtd"
   xmlns:inkscape="http://www.inkscape.org/namespaces/inkscape"
   width="11in"
   height="8.5in"
   viewBox="0 0 279.4 215.9"
   version="1.1"
   id="svg8"
   inkscape:version="0.92.2 5c3e80d, 2017-08-06"
   sodipodi:docname="open_questions.svg">
  <sodipodi:namedview
     id="base"
     pagecolor="#ffffff"
     bordercolor="#666666"
     borderopacity="1.0"
     inkscape:pageopacity="0.0"
     inkscape:pageshadow="2"
     inkscape:zoom="0.83784803"
     inkscape:cx="459.01763"
     inkscape:cy="205.26288"
     inkscape:document-units="mm"
     inkscape:current-layer="layer1"
     showgrid="false"
     units="in"
     inkscape:window-width="2560"
     inkscape:window-height="1395"
     inkscape:window-x="0"
     inkscape:window-y="1"
     inkscape:window-maximized="1"
     inkscape:snap-global="false" />
  <defs
     id="defs2">
    <marker
       inkscape:stockid="Arrow1Mend"
       orient="auto"
       refY="0.0"
       refX="0.0"
       id="marker33403"
       style="overflow:visible;"
       inkscape:isstock="true">
      <path
         id="path33401"
         d="M 0.0,0.0 L 5.0,-5.0 L -12.5,0.0 L 5.0,5.0 L 0.0,0.0 z "
         style="fill-rule:evenodd;stroke:#000000;stroke-width:1pt;stroke-opacity:1;fill:#000000;fill-opacity:1"
         transform="scale(0.4) rotate(180) translate(10,0)" />
    </marker>
    <marker
       inkscape:isstock="true"
       style="overflow:visible;"
       id="marker54076"
       refX="0.0"
       refY="0.0"
       orient="auto"
       inkscape:stockid="Arrow1Mend">
      <path
         transform="scale(0.4) rotate(180) translate(10,0)"
         style="fill-rule:evenodd;stroke:#000000;stroke-width:1pt;stroke-opacity:1;fill:#000000;fill-opacity:1"
         d="M 0.0,0.0 L 5.0,-5.0 L -12.5,0.0 L 5.0,5.0 L 0.0,0.0 z "
         id="path54074" />
    </marker>
    <marker
       inkscape:isstock="true"
       style="overflow:visible;"
       id="Arrow2Mend"
       refX="0.0"
       refY="0.0"
       orient="auto"
       inkscape:stockid="Arrow2Mend">
      <path
         transform="scale(0.6) rotate(180) translate(0,0)"
         d="M 8.7185878,4.0337352 L -2.2072895,0.016013256 L 8.7185884,-4.0017078 C 6.9730900,-1.6296469 6.9831476,1.6157441 8.7185878,4.0337352 z "
         style="fill-rule:evenodd;stroke-width:0.625;stroke-linejoin:round;stroke:#000000;stroke-opacity:1;fill:#000000;fill-opacity:1"
         id="path1092" />
    </marker>
    <marker
       inkscape:isstock="true"
       style="overflow:visible;"
       id="Arrow1Lend"
       refX="0.0"
       refY="0.0"
       orient="auto"
       inkscape:stockid="Arrow1Lend">
      <path
         transform="scale(0.8) rotate(180) translate(12.5,0)"
         style="fill-rule:evenodd;stroke:#108f33;stroke-width:1pt;stroke-opacity:1;fill:#108f33;fill-opacity:1"
         d="M 0.0,0.0 L 5.0,-5.0 L -12.5,0.0 L 5.0,5.0 L 0.0,0.0 z "
         id="path1068" />
    </marker>
    <linearGradient
       id="linearGradient6404"
       inkscape:collect="always">
      <stop
         id="stop6400"
         offset="0"
         style="stop-color:#025d1a;stop-opacity:1" />
      <stop
         id="stop6402"
         offset="1"
         style="stop-color:#108f33;stop-opacity:1" />
    </linearGradient>
    <linearGradient
       osb:paint="solid"
       id="linearGradient6273">
      <stop
         id="stop6271"
         offset="0"
         style="stop-color:#00a432;stop-opacity:1;" />
    </linearGradient>
    <filter
       height="1.0055226"
       y="-0.0027612751"
       width="1.0042446"
       x="-0.002122323"
       id="filter6348"
       style="color-interpolation-filters:sRGB"
       inkscape:collect="always">
      <feGaussianBlur
         id="feGaussianBlur6350"
         stdDeviation="0.24428801"
         inkscape:collect="always" />
    </filter>
    <radialGradient
       gradientUnits="userSpaceOnUse"
       gradientTransform="matrix(1,0,0,0.2123412,0,77.528503)"
       r="138.12488"
       fy="98.429047"
       fx="139.7"
       cy="98.429047"
       cx="139.7"
       id="radialGradient6408"
       xlink:href="#linearGradient6404"
       inkscape:collect="always" />
    <marker
       inkscape:isstock="true"
       style="overflow:visible"
       id="Arrow2Mend-7"
       refX="0"
       refY="0"
       orient="auto"
       inkscape:stockid="Arrow2Mend">
      <path
         transform="scale(-0.6)"
         d="M 8.7185878,4.0337352 -2.2072895,0.01601326 8.7185884,-4.0017078 c -1.7454984,2.3720609 -1.7354408,5.6174519 -6e-7,8.035443 z"
         style="fill:#000000;fill-opacity:1;fill-rule:evenodd;stroke:#000000;stroke-width:0.625;stroke-linejoin:round;stroke-opacity:1"
         id="path1092-7"
         inkscape:connector-curvature="0" />
    </marker>
    <marker
       inkscape:isstock="true"
       style="overflow:visible"
       id="Arrow1Mend-4"
       refX="0"
       refY="0"
       orient="auto"
       inkscape:stockid="Arrow1Mend">
      <path
         transform="matrix(-0.4,0,0,-0.4,-4,0)"
         style="fill:#000000;fill-opacity:1;fill-rule:evenodd;stroke:#000000;stroke-width:1.00000003pt;stroke-opacity:1"
         d="M 0,0 5,-5 -12.5,0 5,5 Z"
         id="path1074-6"
         inkscape:connector-curvature="0" />
    </marker>
    <marker
       inkscape:isstock="true"
       style="overflow:visible"
       id="Arrow1Lend-5"
       refX="0"
       refY="0"
       orient="auto"
       inkscape:stockid="Arrow1Lend">
      <path
         transform="matrix(-0.8,0,0,-0.8,-10,0)"
         style="fill:#108f33;fill-opacity:1;fill-rule:evenodd;stroke:#108f33;stroke-width:1.00000003pt;stroke-opacity:1"
         d="M 0,0 5,-5 -12.5,0 5,5 Z"
         id="path1068-1"
         inkscape:connector-curvature="0" />
    </marker>
    <marker
       inkscape:isstock="true"
       style="overflow:visible"
       id="Arrow2Mend-0"
       refX="0"
       refY="0"
       orient="auto"
       inkscape:stockid="Arrow2Mend">
      <path
         transform="scale(-0.6)"
         d="M 8.7185878,4.0337352 -2.2072895,0.01601326 8.7185884,-4.0017078 c -1.7454984,2.3720609 -1.7354408,5.6174519 -6e-7,8.035443 z"
         style="fill:#000000;fill-opacity:1;fill-rule:evenodd;stroke:#000000;stroke-width:0.625;stroke-linejoin:round;stroke-opacity:1"
         id="path1092-2"
         inkscape:connector-curvature="0" />
    </marker>
    <marker
       inkscape:isstock="true"
       style="overflow:visible"
       id="Arrow1Mend-6"
       refX="0"
       refY="0"
       orient="auto"
       inkscape:stockid="Arrow1Mend">
      <path
         transform="matrix(-0.4,0,0,-0.4,-4,0)"
         style="fill:#000000;fill-opacity:1;fill-rule:evenodd;stroke:#000000;stroke-width:1.00000003pt;stroke-opacity:1"
         d="M 0,0 5,-5 -12.5,0 5,5 Z"
         id="path1074-3"
         inkscape:connector-curvature="0" />
    </marker>
    <marker
       inkscape:isstock="true"
       style="overflow:visible"
       id="Arrow1Lend-8"
       refX="0"
       refY="0"
       orient="auto"
       inkscape:stockid="Arrow1Lend">
      <path
         transform="matrix(-0.8,0,0,-0.8,-10,0)"
         style="fill:#108f33;fill-opacity:1;fill-rule:evenodd;stroke:#108f33;stroke-width:1.00000003pt;stroke-opacity:1"
         d="M 0,0 5,-5 -12.5,0 5,5 Z"
         id="path1068-9"
         inkscape:connector-curvature="0" />
    </marker>
    <marker
       inkscape:stockid="Arrow1Mend"
       orient="auto"
       refY="0"
       refX="0"
       id="marker180611"
       style="overflow:visible"
       inkscape:isstock="true">
      <path
         id="path180609"
         d="M 0,0 5,-5 -12.5,0 5,5 Z"
         style="fill:#000000;fill-opacity:1;fill-rule:evenodd;stroke:#000000;stroke-width:1.00000003pt;stroke-opacity:1"
         transform="matrix(-0.4,0,0,-0.4,-4,0)"
         inkscape:connector-curvature="0" />
    </marker>
    <marker
       inkscape:stockid="Arrow1Mend"
       orient="auto"
       refY="0"
       refX="0"
       id="marker54076-8"
       style="overflow:visible"
       inkscape:isstock="true">
      <path
         id="path54074-0"
         d="M 0,0 5,-5 -12.5,0 5,5 Z"
         style="fill:#000000;fill-opacity:1;fill-rule:evenodd;stroke:#000000;stroke-width:1.00000003pt;stroke-opacity:1"
         transform="matrix(-0.4,0,0,-0.4,-4,0)"
         inkscape:connector-curvature="0" />
    </marker>
    <marker
       inkscape:stockid="Arrow2Mend"
       orient="auto"
       refY="0"
       refX="0"
       id="Arrow2Mend-2"
       style="overflow:visible"
       inkscape:isstock="true">
      <path
         id="path1092-4"
         style="fill:#000000;fill-opacity:1;fill-rule:evenodd;stroke:#000000;stroke-width:0.625;stroke-linejoin:round;stroke-opacity:1"
         d="M 8.7185878,4.0337352 -2.2072895,0.01601326 8.7185884,-4.0017078 c -1.7454984,2.3720609 -1.7354408,5.6174519 -6e-7,8.035443 z"
         transform="scale(-0.6)"
         inkscape:connector-curvature="0" />
    </marker>
    <marker
       inkscape:stockid="Arrow1Lend"
       orient="auto"
       refY="0"
       refX="0"
       id="Arrow1Lend-83"
       style="overflow:visible"
       inkscape:isstock="true">
      <path
         id="path1068-90"
         d="M 0,0 5,-5 -12.5,0 5,5 Z"
         style="fill:#108f33;fill-opacity:1;fill-rule:evenodd;stroke:#108f33;stroke-width:1.00000003pt;stroke-opacity:1"
         transform="matrix(-0.8,0,0,-0.8,-10,0)"
         inkscape:connector-curvature="0" />
    </marker>
    <marker
       inkscape:stockid="Arrow2Mend"
       orient="auto"
       refY="0"
       refX="0"
       id="Arrow2Mend-7-2"
       style="overflow:visible"
       inkscape:isstock="true">
      <path
         inkscape:connector-curvature="0"
         id="path1092-7-2"
         style="fill:#000000;fill-opacity:1;fill-rule:evenodd;stroke:#000000;stroke-width:0.625;stroke-linejoin:round;stroke-opacity:1"
         d="M 8.7185878,4.0337352 -2.2072895,0.01601326 8.7185884,-4.0017078 c -1.7454984,2.3720609 -1.7354408,5.6174519 -6e-7,8.035443 z"
         transform="scale(-0.6)" />
    </marker>
    <marker
       inkscape:stockid="Arrow1Mend"
       orient="auto"
       refY="0"
       refX="0"
       id="Arrow1Mend-4-7"
       style="overflow:visible"
       inkscape:isstock="true">
      <path
         inkscape:connector-curvature="0"
         id="path1074-6-3"
         d="M 0,0 5,-5 -12.5,0 5,5 Z"
         style="fill:#000000;fill-opacity:1;fill-rule:evenodd;stroke:#000000;stroke-width:1.00000003pt;stroke-opacity:1"
         transform="matrix(-0.4,0,0,-0.4,-4,0)" />
    </marker>
    <marker
       inkscape:stockid="Arrow1Lend"
       orient="auto"
       refY="0"
       refX="0"
       id="Arrow1Lend-5-7"
       style="overflow:visible"
       inkscape:isstock="true">
      <path
         inkscape:connector-curvature="0"
         id="path1068-1-9"
         d="M 0,0 5,-5 -12.5,0 5,5 Z"
         style="fill:#108f33;fill-opacity:1;fill-rule:evenodd;stroke:#108f33;stroke-width:1.00000003pt;stroke-opacity:1"
         transform="matrix(-0.8,0,0,-0.8,-10,0)" />
    </marker>
    <marker
       inkscape:stockid="Arrow2Mend"
       orient="auto"
       refY="0"
       refX="0"
       id="Arrow2Mend-0-0"
       style="overflow:visible"
       inkscape:isstock="true">
      <path
         inkscape:connector-curvature="0"
         id="path1092-2-2"
         style="fill:#000000;fill-opacity:1;fill-rule:evenodd;stroke:#000000;stroke-width:0.625;stroke-linejoin:round;stroke-opacity:1"
         d="M 8.7185878,4.0337352 -2.2072895,0.01601326 8.7185884,-4.0017078 c -1.7454984,2.3720609 -1.7354408,5.6174519 -6e-7,8.035443 z"
         transform="scale(-0.6)" />
    </marker>
    <marker
       inkscape:stockid="Arrow1Mend"
       orient="auto"
       refY="0"
       refX="0"
       id="Arrow1Mend-6-3"
       style="overflow:visible"
       inkscape:isstock="true">
      <path
         inkscape:connector-curvature="0"
         id="path1074-3-9"
         d="M 0,0 5,-5 -12.5,0 5,5 Z"
         style="fill:#000000;fill-opacity:1;fill-rule:evenodd;stroke:#000000;stroke-width:1.00000003pt;stroke-opacity:1"
         transform="matrix(-0.4,0,0,-0.4,-4,0)" />
    </marker>
    <marker
       inkscape:stockid="Arrow1Lend"
       orient="auto"
       refY="0"
       refX="0"
       id="Arrow1Lend-8-9"
       style="overflow:visible"
       inkscape:isstock="true">
      <path
         inkscape:connector-curvature="0"
         id="path1068-9-7"
         d="M 0,0 5,-5 -12.5,0 5,5 Z"
         style="fill:#108f33;fill-opacity:1;fill-rule:evenodd;stroke:#108f33;stroke-width:1.00000003pt;stroke-opacity:1"
         transform="matrix(-0.8,0,0,-0.8,-10,0)" />
    </marker>
    <marker
       inkscape:isstock="true"
       style="overflow:visible"
       id="Arrow2Mend-70"
       refX="0"
       refY="0"
       orient="auto"
       inkscape:stockid="Arrow2Mend">
      <path
         inkscape:connector-curvature="0"
         transform="scale(-0.6)"
         d="M 8.7185878,4.0337352 -2.2072895,0.01601326 8.7185884,-4.0017078 c -1.7454984,2.3720609 -1.7354408,5.6174519 -6e-7,8.035443 z"
         style="fill:#000000;fill-opacity:1;fill-rule:evenodd;stroke:#000000;stroke-width:0.625;stroke-linejoin:round;stroke-opacity:1"
         id="path1092-6" />
    </marker>
    <marker
       inkscape:isstock="true"
       style="overflow:visible"
       id="Arrow1Mend"
       refX="0"
       refY="0"
       orient="auto"
       inkscape:stockid="Arrow1Mend">
      <path
         inkscape:connector-curvature="0"
         transform="matrix(-0.4,0,0,-0.4,-4,0)"
         style="fill:#000000;fill-opacity:1;fill-rule:evenodd;stroke:#000000;stroke-width:1.00000003pt;stroke-opacity:1"
         d="M 0,0 5,-5 -12.5,0 5,5 Z"
         id="path1074" />
    </marker>
    <marker
       inkscape:isstock="true"
       style="overflow:visible"
       id="Arrow1Lend-1"
       refX="0"
       refY="0"
       orient="auto"
       inkscape:stockid="Arrow1Lend">
      <path
         inkscape:connector-curvature="0"
         transform="matrix(-0.8,0,0,-0.8,-10,0)"
         style="fill:#108f33;fill-opacity:1;fill-rule:evenodd;stroke:#108f33;stroke-width:1.00000003pt;stroke-opacity:1"
         d="M 0,0 5,-5 -12.5,0 5,5 Z"
         id="path1068-7" />
    </marker>
    <clipPath
       clipPathUnits="userSpaceOnUse"
       id="clipPath16541">
      <rect
         style="fill:none;fill-opacity:1;stroke:#000000;stroke-width:0.11000001;stroke-linecap:round;stroke-linejoin:bevel;stroke-miterlimit:4;stroke-dasharray:none;stroke-dashoffset:25.13385773;stroke-opacity:1"
         id="rect16543"
         width="8.3563538"
         height="13.498703"
         x="158.98491"
         y="254.01378"
         rx="0"
         ry="0" />
    </clipPath>
  </defs>
  <metadata
     id="metadata5">
    <rdf:RDF>
      <cc:Work
         rdf:about="">
        <dc:format>image/svg+xml</dc:format>
        <dc:type
           rdf:resource="http://purl.org/dc/dcmitype/StillImage" />
        <dc:title />
      </cc:Work>
    </rdf:RDF>
  </metadata>
  <g
     transform="translate(0,-81.1)"
     id="layer1"
     inkscape:groupmode="layer"
     inkscape:label="Layer 1">
    <flowRoot
       style="fill:black;fill-opacity:1;stroke:none;font-family:sans-serif;font-style:normal;font-weight:normal;font-size:40px;line-height:1.25;letter-spacing:0px;word-spacing:0px;text-anchor:middle;text-align:center;"
       id="flowRoot58"
       xml:space="preserve"><flowRegion
         style="text-anchor:middle;text-align:center;"
         id="flowRegion60"><rect
           ry="0"
           style="text-align:center;text-anchor:middle"
           y="-79.343483"
           x="0.94745576"
           height="69.164101"
           width="1053.5682"
           id="rect62" /></flowRegion><flowPara
         id="flowPara64" /></flowRoot>    <rect
       ry="8.2724438"
       y="82.886871"
       x="1.5751221"
       height="212.32626"
       width="276.24976"
       id="rect4700"
       style="fill:none;stroke:#108f33;stroke-width:1.5;stroke-linejoin:round;stroke-miterlimit:100;stroke-dasharray:none;stroke-opacity:1;filter:url(#filter6348)"
       rx="8.2724438" />
    <g
       id="g6448">
      <rect
         style="fill:#108f33;fill-opacity:1;stroke:none;stroke-width:1.5;stroke-linejoin:round;stroke-miterlimit:100;stroke-dasharray:none;stroke-opacity:1"
         id="rect6398"
         width="275.74841"
         height="14.790143"
         x="1.7547625"
         y="99.798836"
         rx="0.25066575"
         ry="0.25066575" />
      <rect
         ry="8.2724438"
         y="82.886864"
         x="1.5751221"
         height="31.084362"
         width="276.24976"
         id="rect6384"
         style="fill:url(#radialGradient6408);fill-opacity:1;stroke:none;stroke-width:1.5;stroke-linejoin:round;stroke-miterlimit:100;stroke-dasharray:none;stroke-opacity:1"
         rx="8.2724438" />
    </g>
    <flowRoot
       transform="matrix(0.30619704,0,0,0.30619704,-21.481345,127.85331)"
       style="font-style:normal;font-weight:normal;font-size:34.56380081px;line-height:1.25;font-family:sans-serif;letter-spacing:0px;word-spacing:0px;fill:#fbfbfb;fill-opacity:1;stroke:none;stroke-width:0.86409497"
       id="flowRoot66"
       xml:space="preserve"><flowRegion
         style="fill:#fbfbfb;fill-opacity:1;stroke-width:0.86409497"
         id="flowRegion68"><rect
           style="fill:#fbfbfb;fill-opacity:1;stroke-width:0.86409497"
           y="-123.87379"
           x="-3.7898138"
           height="110.85205"
           width="1060.2003"
           id="rect70" /></flowRegion><flowPara
         style="font-style:normal;font-variant:normal;font-weight:normal;font-stretch:normal;font-size:46.08506775px;font-family:Palatino;-inkscape-font-specification:Palatino;text-align:center;text-anchor:middle;fill:#fbfbfb;fill-opacity:1;stroke-width:0.86409497"
         id="flowPara72">Design Tradeoffs in Architecture</flowPara></flowRoot>    <text
       xml:space="preserve"
       style="font-style:normal;font-weight:normal;font-size:8.11388874px;line-height:1.25;font-family:sans-serif;letter-spacing:0px;word-spacing:0px;fill:#000000;fill-opacity:1;stroke:none;stroke-width:0.26458332"
       x="221.04047"
       y="137.99976"
       id="text65273"><tspan
         sodipodi:role="line"
         id="tspan65271"
         x="221.04047"
         y="145.17865"
         style="font-style:italic;font-variant:normal;font-weight:normal;font-stretch:normal;font-family:Palatino;-inkscape-font-specification:Palatino;stroke-width:0.26458332" /></text>
    <flowRoot
       transform="matrix(0.26458333,0,0,0.26458333,2.1166671,89.037509)"
       style="font-style:normal;font-weight:normal;font-size:37.33333206px;line-height:1.25;font-family:sans-serif;letter-spacing:0px;word-spacing:0px;fill:#000000;fill-opacity:1;stroke:none"
       id="flowRoot6450"
       xml:space="preserve"><flowRegion
         id="flowRegion6452"><rect
           y="140.66432"
           x="43.352966"
           height="611.63684"
           width="469.23645"
           id="rect6454" /></flowRegion><flowPara
         style="font-style:normal;font-variant:normal;font-weight:normal;font-stretch:normal;font-size:37.33333206px;line-height:1.35000002;font-family:Palatino;-inkscape-font-specification:'Palatino, Normal';font-variant-ligatures:normal;font-variant-caps:normal;font-variant-numeric:normal;font-feature-settings:normal;text-align:start;writing-mode:lr-tb;text-anchor:start"
         id="flowPara50219">• Exact evaluation of tensorized model requires exponential resources, so approximate contraction schemes are used instead</flowPara><flowPara
         style="font-style:normal;font-variant:normal;font-weight:normal;font-stretch:normal;font-size:37.33333206px;line-height:1.35000002;font-family:Palatino;-inkscape-font-specification:'Palatino, Normal';font-variant-ligatures:normal;font-variant-caps:normal;font-variant-numeric:normal;font-feature-settings:normal;text-align:start;writing-mode:lr-tb;text-anchor:start"
         id="flowPara50452">• Approximate evaluation of model with     cores and internal bond dimension of     </flowPara><flowPara
         style="font-style:normal;font-variant:normal;font-weight:normal;font-stretch:normal;font-size:37.33333206px;line-height:1.35000002;font-family:Palatino;-inkscape-font-specification:'Palatino, Normal';font-variant-ligatures:normal;font-variant-caps:normal;font-variant-numeric:normal;font-feature-settings:normal;text-align:start;writing-mode:lr-tb;text-anchor:start"
         id="flowPara50466">     requires               operations, constraining       to take small values (~2-10) </flowPara></flowRoot>    <text
       xml:space="preserve"
       style="font-style:normal;font-weight:normal;font-size:10.58333302px;line-height:1.25;font-family:sans-serif;letter-spacing:0px;word-spacing:0px;fill:#000000;fill-opacity:1;stroke:none;stroke-width:0.26458332"
       x="83.66568"
       y="201.98982"
       id="text1929"><tspan
         sodipodi:role="line"
         id="tspan1927"
         x="83.66568"
         y="211.35359"
         style="stroke-width:0.26458332" /></text>
    <flowRoot
       xml:space="preserve"
       id="flowRoot41335"
       style="font-style:normal;font-weight:normal;font-size:37.33333206px;line-height:1.25;font-family:sans-serif;letter-spacing:0px;word-spacing:0px;fill:#000000;fill-opacity:1;stroke:none"
       transform="matrix(0.26458333,0,0,0.26458333,132.29167,89.037509)"><flowRegion
         id="flowRegion41329"><rect
           id="rect41327"
           width="474.01053"
           height="649.82996"
           x="43.352966"
           y="140.66432" /></flowRegion><flowPara
         style="font-style:normal;font-variant:normal;font-weight:normal;font-stretch:normal;font-size:37.33333206px;line-height:1.35000002;font-family:Palatino;-inkscape-font-specification:'Palatino, Normal';font-variant-ligatures:normal;font-variant-caps:normal;font-variant-numeric:normal;font-feature-settings:normal;text-align:start;writing-mode:lr-tb;text-anchor:start"
         id="flowPara41333">• Model can be trained with stochastic gradient descent, but density matrix renormalization group (<flowSpan
   style="font-weight:bold"
   id="flowSpan50462">DMRG</flowSpan>) and spectral learning algorithms may be better choices, having convenient theoretical guarantees and strong performance on synthetic and real-world modeling problems [1, 17, 18, 19] </flowPara></flowRoot>    <text
       id="text41778"
       y="283.10529"
       x="161.99985"
       style="font-style:normal;font-weight:normal;font-size:10.58333302px;line-height:1.25;font-family:sans-serif;letter-spacing:0px;word-spacing:0px;fill:#000000;fill-opacity:1;stroke:none;stroke-width:0.26458332"
       xml:space="preserve"><tspan
         style="font-style:normal;font-variant:normal;font-weight:normal;font-stretch:normal;font-family:monospace;-inkscape-font-specification:monospace;stroke-width:0.26458332"
         y="292.46906"
         x="161.99985"
         id="tspan41776"
         sodipodi:role="line" /></text>
    <flowRoot
       xml:space="preserve"
       id="flowRoot50233"
       style="font-style:normal;font-weight:normal;font-size:37.33333206px;line-height:1.25;font-family:sans-serif;letter-spacing:0px;word-spacing:0px;fill:#000000;fill-opacity:1;stroke:none"
       transform="matrix(0.26458333,0,0,0.26458333,2.1166671,89.037509)"><flowRegion
         id="flowRegion50225"><rect
           id="rect50223"
           width="474.01053"
           height="649.82996"
           x="43.352966"
           y="140.66432" /></flowRegion><flowPara
         id="flowPara50231"
         style="font-style:normal;font-variant:normal;font-weight:normal;font-stretch:normal;font-size:37.33333206px;line-height:1.35000002;font-family:Palatino;-inkscape-font-specification:'Palatino, Normal';font-variant-ligatures:normal;font-variant-caps:normal;font-variant-numeric:normal;font-feature-settings:normal;text-align:start;writing-mode:lr-tb;text-anchor:start" /></flowRoot>    <g
       id="g50495"
       transform="translate(0,0.52916667)">
      <g
         transform="matrix(1.206553,0,0,1.206553,-165.18052,77.55244)"
         ns1:version="0.11.0"
         ns1:texconverter="pdflatex"
         ns1:pdfconverter="pdf2svg"
         ns1:text="$\\chi$"
         ns1:preamble="/Users/jemis/.config/inkscape/extensions/textext/default_packages.tex"
         ns1:scale="3.42015083041"
         ns1:alignment="middle center"
         inkscapeversion="0.92.2"
         ns1:jacobian_sqrt="1.206553"
         id="g50241">
        <g
           id="g50239">
          <g
             style="fill:#000000;fill-opacity:1"
             id="g50237">
            <path
               inkscape:connector-curvature="0"
               style="stroke:none;stroke-width:0"
               d="m 5.8125,-4.015625 c 0.109375,-0.109375 0.109375,-0.125 0.109375,-0.15625 0,-0.0625 -0.046875,-0.125 -0.125,-0.125 -0.0625,0 -0.09375,0.046875 -0.15625,0.125 l -2.28125,2.53125 C 2.953125,-2.90625 2.875,-3.15625 2.65625,-3.671875 2.546875,-3.90625 2.328125,-4.40625 1.453125,-4.40625 c -0.578125,0 -0.84375,0.515625 -0.84375,0.65625 0,0.015625 0,0.09375 0.125,0.09375 0.078125,0 0.109375,-0.046875 0.125,-0.109375 C 1,-4.140625 1.328125,-4.1875 1.390625,-4.1875 c 0.296875,0 0.59375,0.765625 0.765625,1.203125 0.3125,0.78125 0.640625,1.9375 0.640625,1.96875 0,0.015625 0,0.03125 -0.078125,0.109375 L 0.421875,1.65625 C 0.3125,1.765625 0.3125,1.78125 0.3125,1.8125 c 0,0.0625 0.0625,0.125 0.109375,0.125 0.078125,0 0.125,-0.078125 0.171875,-0.109375 L 2.875,-0.734375 C 3.1875,0.296875 3.3125,0.6875 3.546875,1.25 3.671875,1.546875 3.890625,2.046875 4.78125,2.046875 5.359375,2.046875 5.625,1.53125 5.625,1.390625 5.625,1.34375 5.609375,1.28125 5.515625,1.28125 5.40625,1.28125 5.40625,1.328125 5.375,1.421875 c -0.09375,0.25 -0.34375,0.40625 -0.53125,0.40625 -0.5,0 -1.1875,-2.421875 -1.40625,-3.1875 z m 0,0"
               transform="translate(148.712,134.765)"
               id="path50235" />
          </g>
        </g>
      </g>
      <g
         id="g50249"
         ns1:jacobian_sqrt="1.206553"
         inkscapeversion="0.92.2"
         ns1:alignment="middle center"
         ns1:scale="3.42015083041"
         ns1:preamble="/Users/jemis/.config/inkscape/extensions/textext/default_packages.tex"
         ns1:text="$\\ell$"
         ns1:pdfconverter="pdf2svg"
         ns1:texconverter="pdflatex"
         ns1:version="0.11.0"
         transform="matrix(1.206553,0,0,1.206553,-100.85675,53.726166)">
        <g
           id="g50247">
          <g
             id="g50245"
             style="fill:#000000;fill-opacity:1">
            <path
               id="path50243"
               transform="translate(148.712,134.765)"
               d="m 0.15625,-0.984375 c -0.015625,0.03125 -0.046875,0.0625 -0.046875,0.09375 0,0.046875 0.0625,0.140625 0.125,0.140625 C 0.28125,-0.75 0.3125,-0.78125 0.59375,-1.0625 0.671875,-1.140625 0.875,-1.328125 0.953125,-1.40625 1.046875,-0.625 1.328125,0.125 2.0625,0.125 c 0.40625,0 0.75,-0.234375 0.953125,-0.390625 C 3.15625,-0.359375 3.625,-0.75 3.625,-0.84375 c 0,-0.03125 -0.03125,-0.125 -0.109375,-0.125 -0.03125,0 -0.046875,0.015625 -0.140625,0.09375 -0.640625,0.625 -1,0.78125 -1.296875,0.78125 -0.4375,0 -0.609375,-0.53125 -0.609375,-1.296875 0,-0.0625 0.03125,-0.515625 0.0625,-0.578125 C 1.546875,-2 1.546875,-2.015625 1.75,-2.21875 2.546875,-3.015625 3.96875,-4.703125 3.96875,-6.25 c 0,-0.171875 0,-0.78125 -0.59375,-0.78125 -0.828125,0 -1.5625,1.640625 -1.65625,1.875 -0.484375,1.09375 -0.796875,2.25 -0.796875,3.4375 z M 1.578125,-2.375 C 1.59375,-2.5 2.03125,-4.703125 2.59375,-5.875 c 0.265625,-0.53125 0.484375,-0.9375 0.796875,-0.9375 0.34375,0 0.34375,0.359375 0.34375,0.515625 0,1.671875 -1.6875,3.421875 -2.15625,3.921875 z m 0,0"
               style="stroke:none;stroke-width:0"
               inkscape:connector-curvature="0" />
          </g>
        </g>
      </g>
      <g
         id="g50287"
         ns1:jacobian_sqrt="1.206553"
         inkscapeversion="0.92.2"
         ns1:alignment="middle center"
         ns1:scale="3.42015083041"
         ns1:preamble="/Users/jemis/.config/inkscape/extensions/textext/default_packages.tex"
         ns1:text="$\\mathcal{O}(\\chi^6 n \\ell)$"
         ns1:pdfconverter="pdf2svg"
         ns1:texconverter="pdflatex"
         ns1:version="0.11.0"
         transform="matrix(1.206553,0,0,1.206553,-112.97207,80.121655)">
        <g
           id="g50285">
          <g
             id="g50261"
             style="fill:#000000;fill-opacity:1">
            <path
               id="path50259"
               transform="translate(148.712,134.765)"
               d="m 7.75,-4.8125 c 0,-1.265625 -0.5625,-2.21875 -1.78125,-2.21875 -1.03125,0 -1.90625,0.84375 -1.984375,0.90625 -0.796875,0.78125 -1.09375,1.671875 -1.09375,1.703125 0,0.0625 0.046875,0.0625 0.09375,0.0625 0.203125,0 0.359375,-0.09375 0.5,-0.203125 0.1875,-0.125 0.1875,-0.15625 0.296875,-0.390625 0.09375,-0.203125 0.328125,-0.6875 0.6875,-1.109375 0.25,-0.265625 0.453125,-0.421875 0.84375,-0.421875 0.96875,0 1.578125,0.796875 1.578125,2.109375 0,2.03125 -1.4375,4.046875 -3.28125,4.046875 -1.421875,0 -2.1875,-1.125 -2.1875,-2.546875 0,-1.359375 0.6875,-2.859375 2.140625,-3.71875 0.109375,-0.0625 0.40625,-0.234375 0.40625,-0.359375 0,-0.078125 -0.078125,-0.078125 -0.09375,-0.078125 -0.359375,0 -3.3125,1.59375 -3.3125,4.578125 0,1.390625 0.734375,2.671875 2.390625,2.671875 1.9375,0 4.796875,-1.953125 4.796875,-5.03125 z m 0,0"
               style="stroke:none;stroke-width:0"
               inkscape:connector-curvature="0" />
          </g>
          <g
             id="g50265"
             style="fill:#000000;fill-opacity:1">
            <path
               id="path50263"
               transform="translate(156.92,134.765)"
               d="m 3.296875,2.390625 c 0,-0.03125 0,-0.046875 -0.171875,-0.21875 C 1.890625,0.921875 1.5625,-0.96875 1.5625,-2.5 c 0,-1.734375 0.375,-3.46875 1.609375,-4.703125 0.125,-0.125 0.125,-0.140625 0.125,-0.171875 0,-0.078125 -0.03125,-0.109375 -0.09375,-0.109375 -0.109375,0 -1,0.6875 -1.59375,1.953125 -0.5,1.09375 -0.625,2.203125 -0.625,3.03125 0,0.78125 0.109375,1.984375 0.65625,3.125 C 2.25,1.84375 3.09375,2.5 3.203125,2.5 c 0.0625,0 0.09375,-0.03125 0.09375,-0.109375 z m 0,0"
               style="stroke:none;stroke-width:0"
               inkscape:connector-curvature="0" />
          </g>
          <g
             id="g50269"
             style="fill:#000000;fill-opacity:1">
            <path
               id="path50267"
               transform="translate(160.795,134.765)"
               d="m 5.8125,-4.015625 c 0.109375,-0.109375 0.109375,-0.125 0.109375,-0.15625 0,-0.0625 -0.046875,-0.125 -0.125,-0.125 -0.0625,0 -0.09375,0.046875 -0.15625,0.125 l -2.28125,2.53125 C 2.953125,-2.90625 2.875,-3.15625 2.65625,-3.671875 2.546875,-3.90625 2.328125,-4.40625 1.453125,-4.40625 c -0.578125,0 -0.84375,0.515625 -0.84375,0.65625 0,0.015625 0,0.09375 0.125,0.09375 0.078125,0 0.109375,-0.046875 0.125,-0.109375 C 1,-4.140625 1.328125,-4.1875 1.390625,-4.1875 c 0.296875,0 0.59375,0.765625 0.765625,1.203125 0.3125,0.78125 0.640625,1.9375 0.640625,1.96875 0,0.015625 0,0.03125 -0.078125,0.109375 L 0.421875,1.65625 C 0.3125,1.765625 0.3125,1.78125 0.3125,1.8125 c 0,0.0625 0.0625,0.125 0.109375,0.125 0.078125,0 0.125,-0.078125 0.171875,-0.109375 L 2.875,-0.734375 C 3.1875,0.296875 3.3125,0.6875 3.546875,1.25 3.671875,1.546875 3.890625,2.046875 4.78125,2.046875 5.359375,2.046875 5.625,1.53125 5.625,1.390625 5.625,1.34375 5.609375,1.28125 5.515625,1.28125 5.40625,1.28125 5.40625,1.328125 5.375,1.421875 c -0.09375,0.25 -0.34375,0.40625 -0.53125,0.40625 -0.5,0 -1.1875,-2.421875 -1.40625,-3.1875 z m 0,0"
               style="stroke:none;stroke-width:0"
               inkscape:connector-curvature="0" />
          </g>
          <g
             id="g50273"
             style="fill:#000000;fill-opacity:1">
            <path
               id="path50271"
               transform="translate(167.028,131.149)"
               d="m 1.046875,-2.28125 c 0,-0.5625 0.046875,-1.078125 0.3125,-1.515625 0.234375,-0.375 0.609375,-0.625 1.0625,-0.625 0.203125,0 0.484375,0.046875 0.625,0.234375 C 2.875,-4.171875 2.71875,-4.046875 2.71875,-3.84375 c 0,0.171875 0.125,0.328125 0.328125,0.328125 0.21875,0 0.34375,-0.140625 0.34375,-0.34375 0,-0.40625 -0.296875,-0.765625 -0.984375,-0.765625 -1,0 -2.03125,0.921875 -2.03125,2.421875 0,1.796875 0.84375,2.34375 1.625,2.34375 0.84375,0 1.578125,-0.65625 1.578125,-1.5625 0,-0.890625 -0.703125,-1.546875 -1.515625,-1.546875 -0.5625,0 -0.859375,0.375 -1.015625,0.6875 z M 2,-0.078125 c -0.359375,0 -0.625,-0.203125 -0.78125,-0.515625 C 1.125,-0.796875 1.0625,-1.15625 1.0625,-1.5625 c 0,-0.6875 0.40625,-1.203125 0.96875,-1.203125 0.3125,0 0.53125,0.125 0.703125,0.375 0.171875,0.265625 0.171875,0.5625 0.171875,0.96875 0,0.390625 0,0.6875 -0.1875,0.96875 -0.15625,0.234375 -0.390625,0.375 -0.71875,0.375 z m 0,0"
               style="stroke:none;stroke-width:0"
               inkscape:connector-curvature="0" />
          </g>
          <g
             id="g50279"
             style="fill:#000000;fill-opacity:1">
            <path
               id="path50275"
               transform="translate(171.498,134.765)"
               d="m 0.875,-0.59375 c -0.03125,0.15625 -0.09375,0.390625 -0.09375,0.4375 0,0.171875 0.140625,0.265625 0.296875,0.265625 0.125,0 0.296875,-0.078125 0.375,-0.28125 0,-0.015625 0.125,-0.484375 0.1875,-0.734375 l 0.21875,-0.890625 C 1.90625,-2.03125 1.96875,-2.25 2.03125,-2.46875 c 0.03125,-0.171875 0.109375,-0.46875 0.125,-0.5 0.140625,-0.3125 0.671875,-1.21875 1.625,-1.21875 0.453125,0 0.53125,0.375 0.53125,0.703125 0,0.609375 -0.484375,1.890625 -0.640625,2.3125 C 3.578125,-0.9375 3.5625,-0.8125 3.5625,-0.703125 c 0,0.46875 0.359375,0.8125 0.828125,0.8125 0.9375,0 1.296875,-1.453125 1.296875,-1.53125 0,-0.109375 -0.078125,-0.109375 -0.109375,-0.109375 -0.109375,0 -0.109375,0.03125 -0.15625,0.1875 -0.203125,0.671875 -0.53125,1.234375 -1.015625,1.234375 -0.171875,0 -0.234375,-0.09375 -0.234375,-0.328125 0,-0.25 0.078125,-0.484375 0.171875,-0.703125 0.1875,-0.53125 0.609375,-1.625 0.609375,-2.203125 0,-0.65625 -0.421875,-1.0625 -1.140625,-1.0625 -0.90625,0 -1.390625,0.640625 -1.5625,0.875 -0.046875,-0.5625 -0.453125,-0.875 -0.921875,-0.875 -0.453125,0 -0.640625,0.390625 -0.734375,0.5625 C 0.421875,-3.5 0.296875,-2.90625 0.296875,-2.875 c 0,0.109375 0.09375,0.109375 0.109375,0.109375 0.109375,0 0.109375,-0.015625 0.171875,-0.234375 0.171875,-0.703125 0.375,-1.1875 0.734375,-1.1875 0.1875,0 0.296875,0.125 0.296875,0.453125 0,0.21875 -0.03125,0.328125 -0.15625,0.84375 z m 0,0"
               style="stroke:none;stroke-width:0"
               inkscape:connector-curvature="0" />
            <path
               id="path50277"
               transform="translate(177.47755,134.765)"
               d="m 0.15625,-0.984375 c -0.015625,0.03125 -0.046875,0.0625 -0.046875,0.09375 0,0.046875 0.0625,0.140625 0.125,0.140625 C 0.28125,-0.75 0.3125,-0.78125 0.59375,-1.0625 0.671875,-1.140625 0.875,-1.328125 0.953125,-1.40625 1.046875,-0.625 1.328125,0.125 2.0625,0.125 c 0.40625,0 0.75,-0.234375 0.953125,-0.390625 C 3.15625,-0.359375 3.625,-0.75 3.625,-0.84375 c 0,-0.03125 -0.03125,-0.125 -0.109375,-0.125 -0.03125,0 -0.046875,0.015625 -0.140625,0.09375 -0.640625,0.625 -1,0.78125 -1.296875,0.78125 -0.4375,0 -0.609375,-0.53125 -0.609375,-1.296875 0,-0.0625 0.03125,-0.515625 0.0625,-0.578125 C 1.546875,-2 1.546875,-2.015625 1.75,-2.21875 2.546875,-3.015625 3.96875,-4.703125 3.96875,-6.25 c 0,-0.171875 0,-0.78125 -0.59375,-0.78125 -0.828125,0 -1.5625,1.640625 -1.65625,1.875 -0.484375,1.09375 -0.796875,2.25 -0.796875,3.4375 z M 1.578125,-2.375 C 1.59375,-2.5 2.03125,-4.703125 2.59375,-5.875 c 0.265625,-0.53125 0.484375,-0.9375 0.796875,-0.9375 0.34375,0 0.34375,0.359375 0.34375,0.515625 0,1.671875 -1.6875,3.421875 -2.15625,3.921875 z m 0,0"
               style="stroke:none;stroke-width:0"
               inkscape:connector-curvature="0" />
          </g>
          <g
             id="g50283"
             style="fill:#000000;fill-opacity:1">
            <path
               id="path50281"
               transform="translate(181.629,134.765)"
               d="m 2.875,-2.5 c 0,-0.765625 -0.109375,-1.96875 -0.65625,-3.109375 -0.59375,-1.21875 -1.453125,-1.875 -1.546875,-1.875 -0.0625,0 -0.109375,0.046875 -0.109375,0.109375 0,0.03125 0,0.046875 0.1875,0.234375 0.984375,0.984375 1.546875,2.5625 1.546875,4.640625 0,1.71875 -0.359375,3.46875 -1.59375,4.71875 C 0.5625,2.34375 0.5625,2.359375 0.5625,2.390625 0.5625,2.453125 0.609375,2.5 0.671875,2.5 0.765625,2.5 1.671875,1.8125 2.25,0.546875 2.765625,-0.546875 2.875,-1.65625 2.875,-2.5 Z m 0,0"
               style="stroke:none;stroke-width:0"
               inkscape:connector-curvature="0" />
          </g>
        </g>
      </g>
      <g
         id="g50460"
         ns1:jacobian_sqrt="1.206553"
         inkscapeversion="0.92.2"
         ns1:alignment="middle center"
         ns1:scale="3.42015083041"
         ns1:preamble="/Users/jemis/.config/inkscape/extensions/textext/default_packages.tex"
         ns1:text="$\\chi$"
         ns1:pdfconverter="pdf2svg"
         ns1:texconverter="pdflatex"
         ns1:version="0.11.0"
         transform="matrix(1.206553,0,0,1.206553,-57.759628,91.310771)">
        <g
           id="g50458">
          <g
             id="g50456"
             style="fill:#000000;fill-opacity:1">
            <path
               id="path50454"
               transform="translate(148.712,134.765)"
               d="m 5.8125,-4.015625 c 0.109375,-0.109375 0.109375,-0.125 0.109375,-0.15625 0,-0.0625 -0.046875,-0.125 -0.125,-0.125 -0.0625,0 -0.09375,0.046875 -0.15625,0.125 l -2.28125,2.53125 C 2.953125,-2.90625 2.875,-3.15625 2.65625,-3.671875 2.546875,-3.90625 2.328125,-4.40625 1.453125,-4.40625 c -0.578125,0 -0.84375,0.515625 -0.84375,0.65625 0,0.015625 0,0.09375 0.125,0.09375 0.078125,0 0.109375,-0.046875 0.125,-0.109375 C 1,-4.140625 1.328125,-4.1875 1.390625,-4.1875 c 0.296875,0 0.59375,0.765625 0.765625,1.203125 0.3125,0.78125 0.640625,1.9375 0.640625,1.96875 0,0.015625 0,0.03125 -0.078125,0.109375 L 0.421875,1.65625 C 0.3125,1.765625 0.3125,1.78125 0.3125,1.8125 c 0,0.0625 0.0625,0.125 0.109375,0.125 0.078125,0 0.125,-0.078125 0.171875,-0.109375 L 2.875,-0.734375 C 3.1875,0.296875 3.3125,0.6875 3.546875,1.25 3.671875,1.546875 3.890625,2.046875 4.78125,2.046875 5.359375,2.046875 5.625,1.53125 5.625,1.390625 5.625,1.34375 5.609375,1.28125 5.515625,1.28125 5.40625,1.28125 5.40625,1.328125 5.375,1.421875 c -0.09375,0.25 -0.34375,0.40625 -0.53125,0.40625 -0.5,0 -1.1875,-2.421875 -1.40625,-3.1875 z m 0,0"
               style="stroke:none;stroke-width:0"
               inkscape:connector-curvature="0" />
          </g>
        </g>
      </g>
    </g>
  </g>
</svg>
