<?xml version="1.0" encoding="UTF-8" standalone="no"?>
<!-- Created with Inkscape (http://www.inkscape.org/) -->

<svg
   xmlns:ns1="http://www.iki.fi/pav/software/textext/"
   xmlns:osb="http://www.openswatchbook.org/uri/2009/osb"
   xmlns:dc="http://purl.org/dc/elements/1.1/"
   xmlns:cc="http://creativecommons.org/ns#"
   xmlns:rdf="http://www.w3.org/1999/02/22-rdf-syntax-ns#"
   xmlns:svg="http://www.w3.org/2000/svg"
   xmlns="http://www.w3.org/2000/svg"
   xmlns:sodipodi="http://sodipodi.sourceforge.net/DTD/sodipodi-0.dtd"
   xmlns:inkscape="http://www.inkscape.org/namespaces/inkscape"
   width="4.6283484in"
   height="3.0541623in"
   viewBox="0 0 117.56005 77.575722"
   version="1.1"
   id="svg8"
   inkscape:version="0.92.2 5c3e80d, 2017-08-06"
   sodipodi:docname="open_boundaries.svg">
  <sodipodi:namedview
     id="base"
     pagecolor="#ffffff"
     bordercolor="#666666"
     borderopacity="1.0"
     inkscape:pageopacity="0.0"
     inkscape:pageshadow="2"
     inkscape:zoom="1.0413649"
     inkscape:cx="90.60261"
     inkscape:cy="146.99723"
     inkscape:document-units="mm"
     inkscape:current-layer="layer1"
     showgrid="false"
     units="in"
     inkscape:window-width="2560"
     inkscape:window-height="1395"
     inkscape:window-x="0"
     inkscape:window-y="1"
     inkscape:window-maximized="1"
     inkscape:snap-global="false"
     fit-margin-top="0"
     fit-margin-left="0"
     fit-margin-right="0"
     fit-margin-bottom="0" />
  <defs
     id="defs2">
    <marker
       inkscape:stockid="Arrow1Mend"
       orient="auto"
       refY="0"
       refX="0"
       id="marker180611"
       style="overflow:visible"
       inkscape:isstock="true">
      <path
         id="path180609"
         d="M 0,0 5,-5 -12.5,0 5,5 Z"
         style="fill:#000000;fill-opacity:1;fill-rule:evenodd;stroke:#000000;stroke-width:1.00000003pt;stroke-opacity:1"
         transform="matrix(-0.4,0,0,-0.4,-4,0)"
         inkscape:connector-curvature="0" />
    </marker>
    <marker
       inkscape:stockid="Arrow1Mend"
       orient="auto"
       refY="0"
       refX="0"
       id="marker160416"
       style="overflow:visible"
       inkscape:isstock="true"
       inkscape:collect="always">
      <path
         id="path160414"
         d="M 0,0 5,-5 -12.5,0 5,5 Z"
         style="fill:#000000;fill-opacity:1;fill-rule:evenodd;stroke:#000000;stroke-width:1.00000003pt;stroke-opacity:1"
         transform="matrix(-0.4,0,0,-0.4,-4,0)"
         inkscape:connector-curvature="0" />
    </marker>
    <marker
       inkscape:stockid="Arrow1Mend"
       orient="auto"
       refY="0"
       refX="0"
       id="marker54076"
       style="overflow:visible"
       inkscape:isstock="true">
      <path
         id="path54074"
         d="M 0,0 5,-5 -12.5,0 5,5 Z"
         style="fill:#000000;fill-opacity:1;fill-rule:evenodd;stroke:#000000;stroke-width:1.00000003pt;stroke-opacity:1"
         transform="matrix(-0.4,0,0,-0.4,-4,0)"
         inkscape:connector-curvature="0" />
    </marker>
    <marker
       inkscape:stockid="Arrow2Mend"
       orient="auto"
       refY="0"
       refX="0"
       id="Arrow2Mend"
       style="overflow:visible"
       inkscape:isstock="true">
      <path
         id="path1092"
         style="fill:#000000;fill-opacity:1;fill-rule:evenodd;stroke:#000000;stroke-width:0.625;stroke-linejoin:round;stroke-opacity:1"
         d="M 8.7185878,4.0337352 -2.2072895,0.01601326 8.7185884,-4.0017078 c -1.7454984,2.3720609 -1.7354408,5.6174519 -6e-7,8.035443 z"
         transform="scale(-0.6)"
         inkscape:connector-curvature="0" />
    </marker>
    <marker
       inkscape:stockid="Arrow1Lend"
       orient="auto"
       refY="0"
       refX="0"
       id="Arrow1Lend"
       style="overflow:visible"
       inkscape:isstock="true">
      <path
         id="path1068"
         d="M 0,0 5,-5 -12.5,0 5,5 Z"
         style="fill:#108f33;fill-opacity:1;fill-rule:evenodd;stroke:#108f33;stroke-width:1.00000003pt;stroke-opacity:1"
         transform="matrix(-0.8,0,0,-0.8,-10,0)"
         inkscape:connector-curvature="0" />
    </marker>
    <linearGradient
       id="linearGradient6273"
       osb:paint="solid">
      <stop
         style="stop-color:#00a432;stop-opacity:1;"
         offset="0"
         id="stop6271" />
    </linearGradient>
    <marker
       inkscape:stockid="Arrow2Mend"
       orient="auto"
       refY="0"
       refX="0"
       id="Arrow2Mend-7"
       style="overflow:visible"
       inkscape:isstock="true">
      <path
         inkscape:connector-curvature="0"
         id="path1092-7"
         style="fill:#000000;fill-opacity:1;fill-rule:evenodd;stroke:#000000;stroke-width:0.625;stroke-linejoin:round;stroke-opacity:1"
         d="M 8.7185878,4.0337352 -2.2072895,0.01601326 8.7185884,-4.0017078 c -1.7454984,2.3720609 -1.7354408,5.6174519 -6e-7,8.035443 z"
         transform="scale(-0.6)" />
    </marker>
    <marker
       inkscape:stockid="Arrow1Mend"
       orient="auto"
       refY="0"
       refX="0"
       id="Arrow1Mend-4"
       style="overflow:visible"
       inkscape:isstock="true">
      <path
         inkscape:connector-curvature="0"
         id="path1074-6"
         d="M 0,0 5,-5 -12.5,0 5,5 Z"
         style="fill:#000000;fill-opacity:1;fill-rule:evenodd;stroke:#000000;stroke-width:1.00000003pt;stroke-opacity:1"
         transform="matrix(-0.4,0,0,-0.4,-4,0)" />
    </marker>
    <marker
       inkscape:stockid="Arrow1Lend"
       orient="auto"
       refY="0"
       refX="0"
       id="Arrow1Lend-5"
       style="overflow:visible"
       inkscape:isstock="true">
      <path
         inkscape:connector-curvature="0"
         id="path1068-1"
         d="M 0,0 5,-5 -12.5,0 5,5 Z"
         style="fill:#108f33;fill-opacity:1;fill-rule:evenodd;stroke:#108f33;stroke-width:1.00000003pt;stroke-opacity:1"
         transform="matrix(-0.8,0,0,-0.8,-10,0)" />
    </marker>
    <marker
       inkscape:stockid="Arrow2Mend"
       orient="auto"
       refY="0"
       refX="0"
       id="Arrow2Mend-0"
       style="overflow:visible"
       inkscape:isstock="true">
      <path
         inkscape:connector-curvature="0"
         id="path1092-2"
         style="fill:#000000;fill-opacity:1;fill-rule:evenodd;stroke:#000000;stroke-width:0.625;stroke-linejoin:round;stroke-opacity:1"
         d="M 8.7185878,4.0337352 -2.2072895,0.01601326 8.7185884,-4.0017078 c -1.7454984,2.3720609 -1.7354408,5.6174519 -6e-7,8.035443 z"
         transform="scale(-0.6)" />
    </marker>
    <marker
       inkscape:stockid="Arrow1Mend"
       orient="auto"
       refY="0"
       refX="0"
       id="Arrow1Mend-6"
       style="overflow:visible"
       inkscape:isstock="true">
      <path
         inkscape:connector-curvature="0"
         id="path1074-3"
         d="M 0,0 5,-5 -12.5,0 5,5 Z"
         style="fill:#000000;fill-opacity:1;fill-rule:evenodd;stroke:#000000;stroke-width:1.00000003pt;stroke-opacity:1"
         transform="matrix(-0.4,0,0,-0.4,-4,0)" />
    </marker>
    <marker
       inkscape:stockid="Arrow1Lend"
       orient="auto"
       refY="0"
       refX="0"
       id="Arrow1Lend-8"
       style="overflow:visible"
       inkscape:isstock="true">
      <path
         inkscape:connector-curvature="0"
         id="path1068-9"
         d="M 0,0 5,-5 -12.5,0 5,5 Z"
         style="fill:#108f33;fill-opacity:1;fill-rule:evenodd;stroke:#108f33;stroke-width:1.00000003pt;stroke-opacity:1"
         transform="matrix(-0.8,0,0,-0.8,-10,0)" />
    </marker>
    <marker
       inkscape:isstock="true"
       style="overflow:visible"
       id="Arrow2Mend-70"
       refX="0"
       refY="0"
       orient="auto"
       inkscape:stockid="Arrow2Mend">
      <path
         inkscape:connector-curvature="0"
         transform="scale(-0.6)"
         d="M 8.7185878,4.0337352 -2.2072895,0.01601326 8.7185884,-4.0017078 c -1.7454984,2.3720609 -1.7354408,5.6174519 -6e-7,8.035443 z"
         style="fill:#000000;fill-opacity:1;fill-rule:evenodd;stroke:#000000;stroke-width:0.625;stroke-linejoin:round;stroke-opacity:1"
         id="path1092-6" />
    </marker>
    <marker
       inkscape:isstock="true"
       style="overflow:visible"
       id="Arrow1Mend"
       refX="0"
       refY="0"
       orient="auto"
       inkscape:stockid="Arrow1Mend">
      <path
         inkscape:connector-curvature="0"
         transform="matrix(-0.4,0,0,-0.4,-4,0)"
         style="fill:#000000;fill-opacity:1;fill-rule:evenodd;stroke:#000000;stroke-width:1.00000003pt;stroke-opacity:1"
         d="M 0,0 5,-5 -12.5,0 5,5 Z"
         id="path1074" />
    </marker>
    <marker
       inkscape:isstock="true"
       style="overflow:visible"
       id="Arrow1Lend-1"
       refX="0"
       refY="0"
       orient="auto"
       inkscape:stockid="Arrow1Lend">
      <path
         inkscape:connector-curvature="0"
         transform="matrix(-0.8,0,0,-0.8,-10,0)"
         style="fill:#108f33;fill-opacity:1;fill-rule:evenodd;stroke:#108f33;stroke-width:1.00000003pt;stroke-opacity:1"
         d="M 0,0 5,-5 -12.5,0 5,5 Z"
         id="path1068-7" />
    </marker>
  </defs>
  <metadata
     id="metadata5">
    <rdf:RDF>
      <cc:Work
         rdf:about="">
        <dc:format>image/svg+xml</dc:format>
        <dc:type
           rdf:resource="http://purl.org/dc/dcmitype/StillImage" />
        <dc:title></dc:title>
      </cc:Work>
    </rdf:RDF>
  </metadata>
  <g
     inkscape:label="Layer 1"
     inkscape:groupmode="layer"
     id="layer1"
     transform="translate(-10.000395,-207.49379)">
    <g
       id="g189481">
      <g
         transform="translate(0,2.1166667)"
         id="g181558">
        <path
           style="fill:none;stroke:#000000;stroke-width:0.49999997;stroke-linecap:butt;stroke-linejoin:miter;stroke-miterlimit:4;stroke-dasharray:none;stroke-opacity:1"
           d="m 115.31075,237.0709 h -5.29783"
           id="path157358"
           inkscape:connector-curvature="0" />
        <path
           inkscape:transform-center-x="-2.0275269"
           transform="matrix(0,1,1,0,-89.782739,221.84344)"
           d="m 15.185495,217.09321 -3.511776,-6.08258 -3.5117763,-6.08257 7.0235523,0 7.023551,0 -3.511776,6.08257 z"
           inkscape:randomized="0"
           inkscape:rounded="0"
           inkscape:flatsided="false"
           sodipodi:arg2="2.6179939"
           sodipodi:arg1="1.5707963"
           sodipodi:r2="4.0550494"
           sodipodi:r1="8.1100988"
           sodipodi:cy="208.98311"
           sodipodi:cx="15.185494"
           sodipodi:sides="3"
           id="path157360"
           style="fill:#ff7182;fill-opacity:1;stroke:#000000;stroke-width:0.5;stroke-linecap:round;stroke-linejoin:round;stroke-miterlimit:4;stroke-dasharray:none;stroke-dashoffset:6.6500001;stroke-opacity:1"
           sodipodi:type="star"
           inkscape:transform-center-y="1e-06" />
        <path
           inkscape:connector-curvature="0"
           id="path157356"
           d="m 22.250098,237.0709 h 5.297828"
           style="fill:none;stroke:#000000;stroke-width:0.49999997;stroke-linecap:butt;stroke-linejoin:miter;stroke-miterlimit:4;stroke-dasharray:none;stroke-opacity:1" />
        <path
           style="fill:none;stroke:#000000;stroke-width:0.49999997;stroke-linecap:round;stroke-linejoin:miter;stroke-miterlimit:4;stroke-dasharray:none;stroke-opacity:1"
           d="m 36.152439,245.60799 v 7.2847"
           id="path6556"
           inkscape:connector-curvature="0" />
        <path
           inkscape:connector-curvature="0"
           id="path6564"
           d="m 58.091863,245.60799 v 7.2847"
           style="fill:none;stroke:#000000;stroke-width:0.49999997;stroke-linecap:round;stroke-linejoin:miter;stroke-miterlimit:4;stroke-dasharray:none;stroke-opacity:1" />
        <path
           style="fill:none;stroke:#000000;stroke-width:0.49999997;stroke-linecap:butt;stroke-linejoin:miter;stroke-miterlimit:4;stroke-dasharray:none;stroke-opacity:1"
           d="m 44.475097,237.0709 h 5.297828"
           id="path6568"
           inkscape:connector-curvature="0" />
        <path
           style="fill:none;stroke:#000000;stroke-width:0.49999997;stroke-linecap:round;stroke-linejoin:miter;stroke-miterlimit:4;stroke-dasharray:none;stroke-opacity:1"
           d="m 101.97072,245.60799 v 7.2847"
           id="path6578"
           inkscape:connector-curvature="0" />
        <path
           inkscape:connector-curvature="0"
           id="path6582"
           d="m 88.353954,237.0709 h 5.297819"
           style="fill:none;stroke:#000000;stroke-width:0.49999997;stroke-linecap:butt;stroke-linejoin:miter;stroke-miterlimit:4;stroke-dasharray:none;stroke-opacity:1" />
        <path
           inkscape:connector-curvature="0"
           id="path6584"
           d="m 66.41453,237.0709 h 5.297819"
           style="fill:none;stroke:#000000;stroke-width:0.49999997;stroke-linecap:butt;stroke-linejoin:miter;stroke-miterlimit:4;stroke-dasharray:none;stroke-opacity:1" />
        <ellipse
           cy="237.24358"
           cx="58.090286"
           id="circle6562"
           style="fill:#ffe571;fill-opacity:1;stroke:#000000;stroke-width:0.49999997;stroke-linejoin:round;stroke-miterlimit:100;stroke-dasharray:none;stroke-opacity:1"
           rx="8.3146286"
           ry="8.3377924" />
        <ellipse
           style="fill:#ffe571;fill-opacity:1;stroke:#000000;stroke-width:0.49999997;stroke-linejoin:round;stroke-miterlimit:100;stroke-dasharray:none;stroke-opacity:1"
           id="path6554"
           cx="36.150852"
           cy="237.24358"
           rx="8.3146286"
           ry="8.3377924" />
        <ellipse
           style="fill:#ffe571;fill-opacity:1;stroke:#000000;stroke-width:0.49999997;stroke-linejoin:round;stroke-miterlimit:100;stroke-dasharray:none;stroke-opacity:1"
           id="circle6576"
           cx="101.96915"
           cy="237.24358"
           rx="8.3146286"
           ry="8.3377924" />
        <g
           transform="matrix(0.69789382,0,0,0.69789382,-70.964949,145.14418)"
           ns1:version="0.11.0"
           ns1:texconverter="pdflatex"
           ns1:pdfconverter="pdf2svg"
           ns1:text="$\\mathcal{A}$"
           ns1:preamble="/Users/jemis/.config/inkscape/extensions/textext/default_packages.tex"
           ns1:scale="2.0584307128"
           ns1:alignment="middle center"
           inkscapeversion="0.92.2"
           ns1:jacobian_sqrt="0.726169"
           id="g22730"
           style="stroke-width:1.04051507">
          <g
             id="g22728"
             style="stroke-width:1.04051507">
            <g
               style="fill:#000000;fill-opacity:1;stroke-width:1.04051507"
               id="g22726">
              <path
                 inkscape:connector-curvature="0"
                 style="stroke:none;stroke-width:0"
                 d="m 5.9375,-1.640625 c 0.046875,0.625 0.15625,1.078125 0.21875,1.265625 0.109375,0.453125 0.15625,0.671875 0.578125,0.671875 0.453125,0 1.21875,-0.453125 1.21875,-0.640625 0,-0.0625 -0.03125,-0.078125 -0.09375,-0.078125 -0.125,0 -0.328125,0.109375 -0.359375,0.125 C 7.421875,-0.25 7.40625,-0.25 7.390625,-0.25 7.109375,-0.25 7.046875,-0.515625 6.921875,-1.109375 6.859375,-1.453125 6.765625,-1.84375 6.6875,-3.203125 6.625,-4.234375 6.578125,-5.25 6.578125,-6.265625 6.578125,-6.5 6.59375,-6.765625 6.59375,-7 c 0,-0.15625 0,-0.203125 -0.109375,-0.203125 -0.140625,0 -0.546875,0.171875 -0.734375,0.4375 L 5.6875,-6.65625 c -0.796875,1.6875 -1.53125,2.890625 -2.046875,3.703125 -0.59375,0.90625 -1.625,2.53125 -2.171875,2.53125 -0.359375,0 -0.671875,-0.234375 -0.765625,-0.59375 0,-0.015625 -0.03125,-0.078125 -0.0625,-0.078125 -0.15625,0 -0.375,0.46875 -0.375,0.75 0,0.40625 0.4375,0.84375 0.90625,0.84375 C 1.859375,0.5 3,-1.296875 3.21875,-1.640625 Z M 5.734375,-5.96875 v 0.578125 c 0,0.578125 0.015625,1.15625 0.046875,1.734375 0.015625,0.203125 0.046875,0.9375 0.09375,1.46875 H 4.0625 c -0.171875,0 -0.3125,0 -0.578125,0.15625 0.703125,-1.078125 1.28125,-2.109375 1.34375,-2.21875 0.5,-0.890625 0.765625,-1.46875 0.890625,-1.71875 z m 0,0"
                 transform="translate(148.712,134.765)"
                 id="path22724" />
            </g>
          </g>
        </g>
        <g
           id="g23066"
           ns1:jacobian_sqrt="0.726169"
           inkscapeversion="0.92.2"
           ns1:alignment="middle center"
           ns1:scale="2.0584307128"
           ns1:preamble="/Users/jemis/.config/inkscape/extensions/textext/default_packages.tex"
           ns1:text="$\\mathcal{A}$"
           ns1:pdfconverter="pdf2svg"
           ns1:texconverter="pdflatex"
           ns1:version="0.11.0"
           transform="matrix(0.69789382,0,0,0.69789382,-49.096749,145.14418)"
           style="stroke-width:1.04051507">
          <g
             id="g23064"
             style="stroke-width:1.04051507">
            <g
               id="g23062"
               style="fill:#000000;fill-opacity:1;stroke-width:1.04051507">
              <path
                 id="path23060"
                 transform="translate(148.712,134.765)"
                 d="m 5.9375,-1.640625 c 0.046875,0.625 0.15625,1.078125 0.21875,1.265625 0.109375,0.453125 0.15625,0.671875 0.578125,0.671875 0.453125,0 1.21875,-0.453125 1.21875,-0.640625 0,-0.0625 -0.03125,-0.078125 -0.09375,-0.078125 -0.125,0 -0.328125,0.109375 -0.359375,0.125 C 7.421875,-0.25 7.40625,-0.25 7.390625,-0.25 7.109375,-0.25 7.046875,-0.515625 6.921875,-1.109375 6.859375,-1.453125 6.765625,-1.84375 6.6875,-3.203125 6.625,-4.234375 6.578125,-5.25 6.578125,-6.265625 6.578125,-6.5 6.59375,-6.765625 6.59375,-7 c 0,-0.15625 0,-0.203125 -0.109375,-0.203125 -0.140625,0 -0.546875,0.171875 -0.734375,0.4375 L 5.6875,-6.65625 c -0.796875,1.6875 -1.53125,2.890625 -2.046875,3.703125 -0.59375,0.90625 -1.625,2.53125 -2.171875,2.53125 -0.359375,0 -0.671875,-0.234375 -0.765625,-0.59375 0,-0.015625 -0.03125,-0.078125 -0.0625,-0.078125 -0.15625,0 -0.375,0.46875 -0.375,0.75 0,0.40625 0.4375,0.84375 0.90625,0.84375 C 1.859375,0.5 3,-1.296875 3.21875,-1.640625 Z M 5.734375,-5.96875 v 0.578125 c 0,0.578125 0.015625,1.15625 0.046875,1.734375 0.015625,0.203125 0.046875,0.9375 0.09375,1.46875 H 4.0625 c -0.171875,0 -0.3125,0 -0.578125,0.15625 0.703125,-1.078125 1.28125,-2.109375 1.34375,-2.21875 0.5,-0.890625 0.765625,-1.46875 0.890625,-1.71875 z m 0,0"
                 style="stroke:none;stroke-width:0"
                 inkscape:connector-curvature="0" />
            </g>
          </g>
        </g>
        <g
           transform="matrix(0.69789382,0,0,0.69789382,-5.3603788,145.14418)"
           ns1:version="0.11.0"
           ns1:texconverter="pdflatex"
           ns1:pdfconverter="pdf2svg"
           ns1:text="$\\mathcal{A}$"
           ns1:preamble="/Users/jemis/.config/inkscape/extensions/textext/default_packages.tex"
           ns1:scale="2.0584307128"
           ns1:alignment="middle center"
           inkscapeversion="0.92.2"
           ns1:jacobian_sqrt="0.726169"
           id="g23074"
           style="stroke-width:1.04051507">
          <g
             id="g23072"
             style="stroke-width:1.04051507">
            <g
               style="fill:#000000;fill-opacity:1;stroke-width:1.04051507"
               id="g23070">
              <path
                 inkscape:connector-curvature="0"
                 style="stroke:none;stroke-width:0"
                 d="m 5.9375,-1.640625 c 0.046875,0.625 0.15625,1.078125 0.21875,1.265625 0.109375,0.453125 0.15625,0.671875 0.578125,0.671875 0.453125,0 1.21875,-0.453125 1.21875,-0.640625 0,-0.0625 -0.03125,-0.078125 -0.09375,-0.078125 -0.125,0 -0.328125,0.109375 -0.359375,0.125 C 7.421875,-0.25 7.40625,-0.25 7.390625,-0.25 7.109375,-0.25 7.046875,-0.515625 6.921875,-1.109375 6.859375,-1.453125 6.765625,-1.84375 6.6875,-3.203125 6.625,-4.234375 6.578125,-5.25 6.578125,-6.265625 6.578125,-6.5 6.59375,-6.765625 6.59375,-7 c 0,-0.15625 0,-0.203125 -0.109375,-0.203125 -0.140625,0 -0.546875,0.171875 -0.734375,0.4375 L 5.6875,-6.65625 c -0.796875,1.6875 -1.53125,2.890625 -2.046875,3.703125 -0.59375,0.90625 -1.625,2.53125 -2.171875,2.53125 -0.359375,0 -0.671875,-0.234375 -0.765625,-0.59375 0,-0.015625 -0.03125,-0.078125 -0.0625,-0.078125 -0.15625,0 -0.375,0.46875 -0.375,0.75 0,0.40625 0.4375,0.84375 0.90625,0.84375 C 1.859375,0.5 3,-1.296875 3.21875,-1.640625 Z M 5.734375,-5.96875 v 0.578125 c 0,0.578125 0.015625,1.15625 0.046875,1.734375 0.015625,0.203125 0.046875,0.9375 0.09375,1.46875 H 4.0625 c -0.171875,0 -0.3125,0 -0.578125,0.15625 0.703125,-1.078125 1.28125,-2.109375 1.34375,-2.21875 0.5,-0.890625 0.765625,-1.46875 0.890625,-1.71875 z m 0,0"
                 transform="translate(148.712,134.765)"
                 id="path23068" />
            </g>
          </g>
        </g>
        <g
           transform="matrix(0.936135,0,0,0.936135,-106.43818,132.84312)"
           ns1:version="0.11.0"
           ns1:texconverter="pdflatex"
           ns1:pdfconverter="pdf2svg"
           ns1:text="$v_1$"
           ns1:preamble="/Users/jemis/.config/inkscape/extensions/textext/default_packages.tex"
           ns1:scale="2.65361255169"
           ns1:alignment="middle center"
           inkscapeversion="0.92.2"
           ns1:jacobian_sqrt="0.936135"
           id="g153061">
          <g
             id="g153059">
            <g
               style="fill:#000000;fill-opacity:1"
               id="g153053">
              <path
                 style="stroke:none;stroke-width:0"
                 d="m 4.671875,-3.703125 c 0,-0.546875 -0.265625,-0.703125 -0.4375,-0.703125 -0.25,0 -0.5,0.265625 -0.5,0.484375 0,0.125 0.046875,0.1875 0.15625,0.296875 0.21875,0.203125 0.34375,0.453125 0.34375,0.8125 0,0.421875 -0.609375,2.703125 -1.765625,2.703125 -0.515625,0 -0.75,-0.34375 -0.75,-0.875 0,-0.546875 0.28125,-1.28125 0.578125,-2.109375 0.078125,-0.171875 0.125,-0.3125 0.125,-0.5 0,-0.4375 -0.3125,-0.8125 -0.8125,-0.8125 -0.9375,0 -1.3125,1.453125 -1.3125,1.53125 0,0.109375 0.09375,0.109375 0.109375,0.109375 0.109375,0 0.109375,-0.03125 0.15625,-0.1875 0.296875,-1 0.71875,-1.234375 1.015625,-1.234375 0.078125,0 0.25,0 0.25,0.3125 0,0.25 -0.109375,0.53125 -0.171875,0.703125 -0.4375,1.15625 -0.5625,1.609375 -0.5625,2.046875 0,1.078125 0.875,1.234375 1.328125,1.234375 1.671875,0 2.25,-3.296875 2.25,-3.8125 z m 0,0"
                 transform="translate(148.712,134.765)"
                 id="path153051"
                 inkscape:connector-curvature="0" />
            </g>
            <g
               style="fill:#000000;fill-opacity:1"
               id="g153057">
              <path
                 style="stroke:none;stroke-width:0"
                 d="m 2.328125,-4.4375 c 0,-0.1875 0,-0.1875 -0.203125,-0.1875 -0.453125,0.4375 -1.078125,0.4375 -1.359375,0.4375 v 0.25 c 0.15625,0 0.625,0 1,-0.1875 v 3.546875 c 0,0.234375 0,0.328125 -0.6875,0.328125 H 0.8125 V 0 c 0.125,0 0.984375,-0.03125 1.234375,-0.03125 0.21875,0 1.09375,0.03125 1.25,0.03125 V -0.25 H 3.03125 c -0.703125,0 -0.703125,-0.09375 -0.703125,-0.328125 z m 0,0"
                 transform="translate(153.541,136.259)"
                 id="path153055"
                 inkscape:connector-curvature="0" />
            </g>
          </g>
        </g>
        <path
           style="fill:none;stroke:#000000;stroke-width:0.49999997;stroke-linecap:round;stroke-linejoin:miter;stroke-miterlimit:4;stroke-dasharray:none;stroke-opacity:1"
           d="m 79.787697,245.60799 v 7.2847"
           id="path153556"
           inkscape:connector-curvature="0" />
        <ellipse
           ry="8.3377924"
           rx="8.3146286"
           style="fill:#ffe571;fill-opacity:1;stroke:#000000;stroke-width:0.49999997;stroke-linejoin:round;stroke-miterlimit:100;stroke-dasharray:none;stroke-opacity:1"
           id="ellipse153558"
           cx="79.78611"
           cy="237.24358" />
        <g
           style="stroke-width:1.04051507"
           transform="matrix(0.69789382,0,0,0.69789382,-27.400915,145.14418)"
           ns1:version="0.11.0"
           ns1:texconverter="pdflatex"
           ns1:pdfconverter="pdf2svg"
           ns1:text="$\\mathcal{A}$"
           ns1:preamble="/Users/jemis/.config/inkscape/extensions/textext/default_packages.tex"
           ns1:scale="2.0584307128"
           ns1:alignment="middle center"
           inkscapeversion="0.92.2"
           ns1:jacobian_sqrt="0.726169"
           id="g153566">
          <g
             style="stroke-width:1.04051507"
             id="g153564">
            <g
               style="fill:#000000;fill-opacity:1;stroke-width:1.04051507"
               id="g153562">
              <path
                 inkscape:connector-curvature="0"
                 style="stroke:none;stroke-width:0"
                 d="m 5.9375,-1.640625 c 0.046875,0.625 0.15625,1.078125 0.21875,1.265625 0.109375,0.453125 0.15625,0.671875 0.578125,0.671875 0.453125,0 1.21875,-0.453125 1.21875,-0.640625 0,-0.0625 -0.03125,-0.078125 -0.09375,-0.078125 -0.125,0 -0.328125,0.109375 -0.359375,0.125 C 7.421875,-0.25 7.40625,-0.25 7.390625,-0.25 7.109375,-0.25 7.046875,-0.515625 6.921875,-1.109375 6.859375,-1.453125 6.765625,-1.84375 6.6875,-3.203125 6.625,-4.234375 6.578125,-5.25 6.578125,-6.265625 6.578125,-6.5 6.59375,-6.765625 6.59375,-7 c 0,-0.15625 0,-0.203125 -0.109375,-0.203125 -0.140625,0 -0.546875,0.171875 -0.734375,0.4375 L 5.6875,-6.65625 c -0.796875,1.6875 -1.53125,2.890625 -2.046875,3.703125 -0.59375,0.90625 -1.625,2.53125 -2.171875,2.53125 -0.359375,0 -0.671875,-0.234375 -0.765625,-0.59375 0,-0.015625 -0.03125,-0.078125 -0.0625,-0.078125 -0.15625,0 -0.375,0.46875 -0.375,0.75 0,0.40625 0.4375,0.84375 0.90625,0.84375 C 1.859375,0.5 3,-1.296875 3.21875,-1.640625 Z M 5.734375,-5.96875 v 0.578125 c 0,0.578125 0.015625,1.15625 0.046875,1.734375 0.015625,0.203125 0.046875,0.9375 0.09375,1.46875 H 4.0625 c -0.171875,0 -0.3125,0 -0.578125,0.15625 0.703125,-1.078125 1.28125,-2.109375 1.34375,-2.21875 0.5,-0.890625 0.765625,-1.46875 0.890625,-1.71875 z m 0,0"
                 transform="translate(148.712,134.765)"
                 id="path153560" />
            </g>
          </g>
        </g>
        <g
           id="g154047"
           ns1:jacobian_sqrt="0.936135"
           inkscapeversion="0.92.2"
           ns1:alignment="middle center"
           ns1:scale="2.65361255169"
           ns1:preamble="/Users/jemis/.config/inkscape/extensions/textext/default_packages.tex"
           ns1:text="$v_2$"
           ns1:pdfconverter="pdf2svg"
           ns1:texconverter="pdflatex"
           ns1:version="0.11.0"
           transform="matrix(0.936135,0,0,0.936135,-85.373902,132.84313)">
          <g
             id="g154045">
            <g
               id="g154039"
               style="fill:#000000;fill-opacity:1">
              <path
                 id="path154037"
                 transform="translate(148.712,134.765)"
                 d="m 4.671875,-3.703125 c 0,-0.546875 -0.265625,-0.703125 -0.4375,-0.703125 -0.25,0 -0.5,0.265625 -0.5,0.484375 0,0.125 0.046875,0.1875 0.15625,0.296875 0.21875,0.203125 0.34375,0.453125 0.34375,0.8125 0,0.421875 -0.609375,2.703125 -1.765625,2.703125 -0.515625,0 -0.75,-0.34375 -0.75,-0.875 0,-0.546875 0.28125,-1.28125 0.578125,-2.109375 0.078125,-0.171875 0.125,-0.3125 0.125,-0.5 0,-0.4375 -0.3125,-0.8125 -0.8125,-0.8125 -0.9375,0 -1.3125,1.453125 -1.3125,1.53125 0,0.109375 0.09375,0.109375 0.109375,0.109375 0.109375,0 0.109375,-0.03125 0.15625,-0.1875 0.296875,-1 0.71875,-1.234375 1.015625,-1.234375 0.078125,0 0.25,0 0.25,0.3125 0,0.25 -0.109375,0.53125 -0.171875,0.703125 -0.4375,1.15625 -0.5625,1.609375 -0.5625,2.046875 0,1.078125 0.875,1.234375 1.328125,1.234375 1.671875,0 2.25,-3.296875 2.25,-3.8125 z m 0,0"
                 style="stroke:none;stroke-width:0"
                 inkscape:connector-curvature="0" />
            </g>
            <g
               id="g154043"
               style="fill:#000000;fill-opacity:1">
              <path
                 id="path154041"
                 transform="translate(153.541,136.259)"
                 d="M 3.515625,-1.265625 H 3.28125 c -0.015625,0.15625 -0.09375,0.5625 -0.1875,0.625 C 3.046875,-0.59375 2.515625,-0.59375 2.40625,-0.59375 H 1.125 c 0.734375,-0.640625 0.984375,-0.84375 1.390625,-1.171875 0.515625,-0.40625 1,-0.84375 1,-1.5 0,-0.84375 -0.734375,-1.359375 -1.625,-1.359375 -0.859375,0 -1.453125,0.609375 -1.453125,1.25 0,0.34375 0.296875,0.390625 0.375,0.390625 0.15625,0 0.359375,-0.125 0.359375,-0.375 0,-0.125 -0.046875,-0.375 -0.40625,-0.375 C 0.984375,-4.21875 1.453125,-4.375 1.78125,-4.375 c 0.703125,0 1.0625,0.546875 1.0625,1.109375 0,0.609375 -0.4375,1.078125 -0.65625,1.328125 L 0.515625,-0.265625 C 0.4375,-0.203125 0.4375,-0.1875 0.4375,0 h 2.875 z m 0,0"
                 style="stroke:none;stroke-width:0"
                 inkscape:connector-curvature="0" />
            </g>
          </g>
        </g>
        <g
           transform="matrix(0.936135,0,0,0.936135,-63.707322,132.7773)"
           ns1:version="0.11.0"
           ns1:texconverter="pdflatex"
           ns1:pdfconverter="pdf2svg"
           ns1:text="$v_3$"
           ns1:preamble="/Users/jemis/.config/inkscape/extensions/textext/default_packages.tex"
           ns1:scale="2.65361255169"
           ns1:alignment="middle center"
           inkscapeversion="0.92.2"
           ns1:jacobian_sqrt="0.936135"
           id="g155953">
          <g
             id="g155951">
            <g
               style="fill:#000000;fill-opacity:1"
               id="g155945">
              <path
                 style="stroke:none;stroke-width:0"
                 d="m 4.671875,-3.703125 c 0,-0.546875 -0.265625,-0.703125 -0.4375,-0.703125 -0.25,0 -0.5,0.265625 -0.5,0.484375 0,0.125 0.046875,0.1875 0.15625,0.296875 0.21875,0.203125 0.34375,0.453125 0.34375,0.8125 0,0.421875 -0.609375,2.703125 -1.765625,2.703125 -0.515625,0 -0.75,-0.34375 -0.75,-0.875 0,-0.546875 0.28125,-1.28125 0.578125,-2.109375 0.078125,-0.171875 0.125,-0.3125 0.125,-0.5 0,-0.4375 -0.3125,-0.8125 -0.8125,-0.8125 -0.9375,0 -1.3125,1.453125 -1.3125,1.53125 0,0.109375 0.09375,0.109375 0.109375,0.109375 0.109375,0 0.109375,-0.03125 0.15625,-0.1875 0.296875,-1 0.71875,-1.234375 1.015625,-1.234375 0.078125,0 0.25,0 0.25,0.3125 0,0.25 -0.109375,0.53125 -0.171875,0.703125 -0.4375,1.15625 -0.5625,1.609375 -0.5625,2.046875 0,1.078125 0.875,1.234375 1.328125,1.234375 1.671875,0 2.25,-3.296875 2.25,-3.8125 z m 0,0"
                 transform="translate(148.712,134.765)"
                 id="path155943"
                 inkscape:connector-curvature="0" />
            </g>
            <g
               style="fill:#000000;fill-opacity:1"
               id="g155949">
              <path
                 style="stroke:none;stroke-width:0"
                 d="m 1.90625,-2.328125 c 0.546875,0 0.9375,0.375 0.9375,1.125 0,0.859375 -0.515625,1.125 -0.90625,1.125 -0.28125,0 -0.90625,-0.078125 -1.1875,-0.5 0.328125,0 0.40625,-0.234375 0.40625,-0.390625 0,-0.21875 -0.171875,-0.375 -0.390625,-0.375 -0.1875,0 -0.390625,0.125 -0.390625,0.40625 0,0.65625 0.71875,1.078125 1.5625,1.078125 0.96875,0 1.640625,-0.65625 1.640625,-1.34375 0,-0.546875 -0.4375,-1.09375 -1.203125,-1.25 0.71875,-0.265625 0.984375,-0.78125 0.984375,-1.21875 0,-0.546875 -0.625,-0.953125 -1.40625,-0.953125 -0.765625,0 -1.359375,0.375 -1.359375,0.9375 0,0.234375 0.15625,0.359375 0.359375,0.359375 0.21875,0 0.359375,-0.15625 0.359375,-0.34375 0,-0.203125 -0.140625,-0.359375 -0.359375,-0.375 0.25,-0.296875 0.71875,-0.375 0.984375,-0.375 0.3125,0 0.75,0.15625 0.75,0.75 0,0.296875 -0.09375,0.625 -0.28125,0.828125 -0.21875,0.265625 -0.421875,0.28125 -0.765625,0.3125 -0.171875,0.015625 -0.1875,0.015625 -0.21875,0.015625 -0.015625,0 -0.078125,0.015625 -0.078125,0.09375 0,0.09375 0.0625,0.09375 0.1875,0.09375 z m 0,0"
                 transform="translate(153.541,136.259)"
                 id="path155947"
                 inkscape:connector-curvature="0" />
            </g>
          </g>
        </g>
        <g
           id="g156887"
           ns1:jacobian_sqrt="0.936135"
           inkscapeversion="0.92.2"
           ns1:alignment="middle center"
           ns1:scale="2.65361255169"
           ns1:preamble="/Users/jemis/.config/inkscape/extensions/textext/default_packages.tex"
           ns1:text="$v_4$"
           ns1:pdfconverter="pdf2svg"
           ns1:texconverter="pdflatex"
           ns1:version="0.11.0"
           transform="matrix(0.936135,0,0,0.936135,-41.533514,132.84313)">
          <g
             id="g156885">
            <g
               id="g156879"
               style="fill:#000000;fill-opacity:1">
              <path
                 id="path156877"
                 transform="translate(148.712,134.765)"
                 d="m 4.671875,-3.703125 c 0,-0.546875 -0.265625,-0.703125 -0.4375,-0.703125 -0.25,0 -0.5,0.265625 -0.5,0.484375 0,0.125 0.046875,0.1875 0.15625,0.296875 0.21875,0.203125 0.34375,0.453125 0.34375,0.8125 0,0.421875 -0.609375,2.703125 -1.765625,2.703125 -0.515625,0 -0.75,-0.34375 -0.75,-0.875 0,-0.546875 0.28125,-1.28125 0.578125,-2.109375 0.078125,-0.171875 0.125,-0.3125 0.125,-0.5 0,-0.4375 -0.3125,-0.8125 -0.8125,-0.8125 -0.9375,0 -1.3125,1.453125 -1.3125,1.53125 0,0.109375 0.09375,0.109375 0.109375,0.109375 0.109375,0 0.109375,-0.03125 0.15625,-0.1875 0.296875,-1 0.71875,-1.234375 1.015625,-1.234375 0.078125,0 0.25,0 0.25,0.3125 0,0.25 -0.109375,0.53125 -0.171875,0.703125 -0.4375,1.15625 -0.5625,1.609375 -0.5625,2.046875 0,1.078125 0.875,1.234375 1.328125,1.234375 1.671875,0 2.25,-3.296875 2.25,-3.8125 z m 0,0"
                 style="stroke:none;stroke-width:0"
                 inkscape:connector-curvature="0" />
            </g>
            <g
               id="g156883"
               style="fill:#000000;fill-opacity:1">
              <path
                 id="path156881"
                 transform="translate(153.541,136.259)"
                 d="m 3.6875,-1.140625 v -0.25 H 2.90625 V -4.5 c 0,-0.140625 0,-0.203125 -0.140625,-0.203125 -0.09375,0 -0.125,0 -0.1875,0.109375 l -2.3125,3.203125 v 0.25 h 2.0625 v 0.5625 c 0,0.25 0,0.328125 -0.578125,0.328125 H 1.5625 V 0 C 1.921875,-0.015625 2.359375,-0.03125 2.609375,-0.03125 2.875,-0.03125 3.3125,-0.015625 3.671875,0 v -0.25 h -0.1875 C 2.90625,-0.25 2.90625,-0.328125 2.90625,-0.578125 v -0.5625 z M 2.375,-3.9375 v 2.546875 H 0.53125 Z m 0,0"
                 style="stroke:none;stroke-width:0"
                 inkscape:connector-curvature="0" />
            </g>
          </g>
        </g>
        <path
           sodipodi:type="star"
           style="fill:#ff7182;fill-opacity:1;stroke:#000000;stroke-width:0.5;stroke-linecap:round;stroke-linejoin:round;stroke-miterlimit:4;stroke-dasharray:none;stroke-dashoffset:6.6500001;stroke-opacity:1"
           id="path157354"
           sodipodi:sides="3"
           sodipodi:cx="15.185494"
           sodipodi:cy="208.98311"
           sodipodi:r1="8.1100988"
           sodipodi:r2="4.0550494"
           sodipodi:arg1="1.5707963"
           sodipodi:arg2="2.6179939"
           inkscape:flatsided="false"
           inkscape:rounded="0"
           inkscape:randomized="0"
           d="m 15.185495,217.09321 -3.511776,-6.08258 -3.5117763,-6.08257 7.0235523,0 7.023551,0 -3.511776,6.08257 z"
           transform="rotate(90,2.7500772,224.5935)"
           inkscape:transform-center-x="2.0275235" />
        <g
           transform="matrix(0.936135,0,0,0.936135,-124.01516,112.85371)"
           ns1:version="0.11.0"
           ns1:texconverter="pdflatex"
           ns1:pdfconverter="pdf2svg"
           ns1:text="$\\alpha$"
           ns1:preamble="/Users/jemis/.config/inkscape/extensions/textext/default_packages.tex"
           ns1:scale="2.65361255169"
           ns1:alignment="middle center"
           inkscapeversion="0.92.2"
           ns1:jacobian_sqrt="0.936135"
           id="g157847">
          <g
             id="g157845">
            <g
               style="fill:#000000;fill-opacity:1"
               id="g157843">
              <path
                 inkscape:connector-curvature="0"
                 style="stroke:none;stroke-width:0"
                 d="m 4.75,-2.359375 c 0,-1.5625 -0.921875,-2.046875 -1.65625,-2.046875 -1.375,0 -2.6875,1.421875 -2.6875,2.828125 0,0.9375 0.59375,1.6875 1.625,1.6875 0.625,0 1.34375,-0.234375 2.09375,-0.84375 0.125,0.53125 0.453125,0.84375 0.90625,0.84375 0.53125,0 0.84375,-0.546875 0.84375,-0.703125 0,-0.078125 -0.0625,-0.109375 -0.125,-0.109375 -0.0625,0 -0.09375,0.03125 -0.125,0.109375 -0.1875,0.484375 -0.546875,0.484375 -0.5625,0.484375 -0.3125,0 -0.3125,-0.78125 -0.3125,-1.015625 0,-0.203125 0,-0.234375 0.109375,-0.34375 C 5.796875,-2.65625 6,-3.8125 6,-3.8125 6,-3.84375 5.984375,-3.921875 5.875,-3.921875 c -0.09375,0 -0.09375,0.03125 -0.140625,0.21875 -0.1875,0.625 -0.515625,1.375 -0.984375,1.96875 z m -0.65625,1.375 c -0.890625,0.765625 -1.65625,0.875 -2.046875,0.875 -0.59375,0 -0.90625,-0.453125 -0.90625,-1.09375 0,-0.484375 0.265625,-1.5625 0.578125,-2.0625 C 2.1875,-4 2.734375,-4.1875 3.078125,-4.1875 c 0.984375,0 0.984375,1.3125 0.984375,2.078125 0,0.375 0,0.953125 0.03125,1.125 z m 0,0"
                 transform="translate(148.712,134.765)"
                 id="path157841" />
            </g>
          </g>
        </g>
        <g
           id="g158807"
           ns1:jacobian_sqrt="0.936135"
           inkscapeversion="0.92.2"
           ns1:alignment="middle center"
           ns1:scale="2.65361255169"
           ns1:preamble="/Users/jemis/.config/inkscape/extensions/textext/default_packages.tex"
           ns1:text="$\\omega$"
           ns1:pdfconverter="pdf2svg"
           ns1:texconverter="pdflatex"
           ns1:version="0.11.0"
           transform="matrix(0.936135,0,0,0.936135,-22.827294,112.85371)">
          <g
             id="g158805">
            <g
               id="g158803"
               style="fill:#000000;fill-opacity:1">
              <path
                 inkscape:connector-curvature="0"
                 id="path158801"
                 transform="translate(148.712,134.765)"
                 d="m 6.03125,-3.703125 c 0,-0.453125 -0.171875,-0.703125 -0.40625,-0.703125 -0.25,0 -0.515625,0.234375 -0.515625,0.46875 0,0.09375 0.046875,0.203125 0.140625,0.296875 0.171875,0.15625 0.359375,0.421875 0.359375,0.84375 0,0.390625 -0.203125,0.96875 -0.5,1.421875 C 4.8125,-0.953125 4.4375,-0.609375 3.96875,-0.609375 3.40625,-0.609375 3.09375,-0.96875 3,-1.5 c 0.109375,-0.265625 0.34375,-0.90625 0.34375,-1.1875 0,-0.109375 -0.046875,-0.21875 -0.1875,-0.21875 -0.078125,0 -0.1875,0.03125 -0.265625,0.171875 C 2.78125,-2.53125 2.65625,-1.890625 2.65625,-1.53125 2.328125,-1.0625 1.9375,-0.609375 1.3125,-0.609375 c -0.671875,0 -0.875,-0.59375 -0.875,-1.140625 0,-1.25 1.015625,-2.296875 1.015625,-2.421875 0,-0.109375 -0.078125,-0.1875 -0.1875,-0.1875 -0.125,0 -0.203125,0.125 -0.265625,0.21875 -0.5,0.734375 -0.875,1.921875 -0.875,2.828125 0,0.6875 0.21875,1.421875 1.046875,1.421875 0.703125,0 1.171875,-0.5 1.53125,-1.046875 0.09375,0.578125 0.484375,1.046875 1.09375,1.046875 0.78125,0 1.25,-0.609375 1.609375,-1.359375 0.25,-0.484375 0.625,-1.84375 0.625,-2.453125 z m 0,0"
                 style="stroke:none;stroke-width:0" />
            </g>
          </g>
        </g>
      </g>
      <path
         style="fill:none;stroke:#000000;stroke-width:0.5;stroke-linecap:butt;stroke-linejoin:miter;stroke-miterlimit:4;stroke-dasharray:none;stroke-opacity:1;marker-end:url(#marker160416)"
         d="m 97.846305,212.43761 c 7.799345,0 9.015165,3.71173 7.622085,7.09031 -1.39308,3.37859 -6.38128,4.78597 -10.812725,6.91306"
         id="path160406"
         inkscape:connector-curvature="0"
         sodipodi:nodetypes="czc" />
      <g
         id="g175616"
         ns1:jacobian_sqrt="0.936136"
         inkscapeversion="0.92.2"
         ns1:alignment="middle center"
         ns1:scale="2.65361255169"
         ns1:preamble="/Users/jemis/.config/inkscape/extensions/textext/default_packages.tex"
         ns1:text="$\\mathcal{A}(v_1, v_2, v_3, v_4) :=$"
         ns1:pdfconverter="pdf2svg"
         ns1:texconverter="pdflatex"
         ns1:version="0.11.0"
         transform="matrix(0.936136,0,0,0.936136,-119.17457,88.341819)">
        <g
           id="g175614">
          <g
             id="g175554"
             style="fill:#000000;fill-opacity:1">
            <path
               inkscape:connector-curvature="0"
               id="path175552"
               transform="translate(148.712,134.765)"
               d="m 5.9375,-1.640625 c 0.046875,0.625 0.15625,1.078125 0.21875,1.265625 0.109375,0.453125 0.15625,0.671875 0.578125,0.671875 0.453125,0 1.21875,-0.453125 1.21875,-0.640625 0,-0.0625 -0.03125,-0.078125 -0.09375,-0.078125 -0.125,0 -0.328125,0.109375 -0.359375,0.125 C 7.421875,-0.25 7.40625,-0.25 7.390625,-0.25 7.109375,-0.25 7.046875,-0.515625 6.921875,-1.109375 6.859375,-1.453125 6.765625,-1.84375 6.6875,-3.203125 6.625,-4.234375 6.578125,-5.25 6.578125,-6.265625 6.578125,-6.5 6.59375,-6.765625 6.59375,-7 c 0,-0.15625 0,-0.203125 -0.109375,-0.203125 -0.140625,0 -0.546875,0.171875 -0.734375,0.4375 L 5.6875,-6.65625 c -0.796875,1.6875 -1.53125,2.890625 -2.046875,3.703125 -0.59375,0.90625 -1.625,2.53125 -2.171875,2.53125 -0.359375,0 -0.671875,-0.234375 -0.765625,-0.59375 0,-0.015625 -0.03125,-0.078125 -0.0625,-0.078125 -0.15625,0 -0.375,0.46875 -0.375,0.75 0,0.40625 0.4375,0.84375 0.90625,0.84375 C 1.859375,0.5 3,-1.296875 3.21875,-1.640625 Z M 5.734375,-5.96875 v 0.578125 c 0,0.578125 0.015625,1.15625 0.046875,1.734375 0.015625,0.203125 0.046875,0.9375 0.09375,1.46875 H 4.0625 c -0.171875,0 -0.3125,0 -0.578125,0.15625 0.703125,-1.078125 1.28125,-2.109375 1.34375,-2.21875 0.5,-0.890625 0.765625,-1.46875 0.890625,-1.71875 z m 0,0"
               style="stroke:none;stroke-width:0" />
          </g>
          <g
             id="g175558"
             style="fill:#000000;fill-opacity:1">
            <path
               inkscape:connector-curvature="0"
               id="path175556"
               transform="translate(156.667,134.765)"
               d="m 3.296875,2.390625 c 0,-0.03125 0,-0.046875 -0.171875,-0.21875 C 1.890625,0.921875 1.5625,-0.96875 1.5625,-2.5 c 0,-1.734375 0.375,-3.46875 1.609375,-4.703125 0.125,-0.125 0.125,-0.140625 0.125,-0.171875 0,-0.078125 -0.03125,-0.109375 -0.09375,-0.109375 -0.109375,0 -1,0.6875 -1.59375,1.953125 -0.5,1.09375 -0.625,2.203125 -0.625,3.03125 0,0.78125 0.109375,1.984375 0.65625,3.125 C 2.25,1.84375 3.09375,2.5 3.203125,2.5 c 0.0625,0 0.09375,-0.03125 0.09375,-0.109375 z m 0,0"
               style="stroke:none;stroke-width:0" />
          </g>
          <g
             id="g175562"
             style="fill:#000000;fill-opacity:1">
            <path
               inkscape:connector-curvature="0"
               id="path175560"
               transform="translate(160.542,134.765)"
               d="m 4.671875,-3.703125 c 0,-0.546875 -0.265625,-0.703125 -0.4375,-0.703125 -0.25,0 -0.5,0.265625 -0.5,0.484375 0,0.125 0.046875,0.1875 0.15625,0.296875 0.21875,0.203125 0.34375,0.453125 0.34375,0.8125 0,0.421875 -0.609375,2.703125 -1.765625,2.703125 -0.515625,0 -0.75,-0.34375 -0.75,-0.875 0,-0.546875 0.28125,-1.28125 0.578125,-2.109375 0.078125,-0.171875 0.125,-0.3125 0.125,-0.5 0,-0.4375 -0.3125,-0.8125 -0.8125,-0.8125 -0.9375,0 -1.3125,1.453125 -1.3125,1.53125 0,0.109375 0.09375,0.109375 0.109375,0.109375 0.109375,0 0.109375,-0.03125 0.15625,-0.1875 0.296875,-1 0.71875,-1.234375 1.015625,-1.234375 0.078125,0 0.25,0 0.25,0.3125 0,0.25 -0.109375,0.53125 -0.171875,0.703125 -0.4375,1.15625 -0.5625,1.609375 -0.5625,2.046875 0,1.078125 0.875,1.234375 1.328125,1.234375 1.671875,0 2.25,-3.296875 2.25,-3.8125 z m 0,0"
               style="stroke:none;stroke-width:0" />
          </g>
          <g
             id="g175566"
             style="fill:#000000;fill-opacity:1">
            <path
               inkscape:connector-curvature="0"
               id="path175564"
               transform="translate(165.371,136.259)"
               d="m 2.328125,-4.4375 c 0,-0.1875 0,-0.1875 -0.203125,-0.1875 -0.453125,0.4375 -1.078125,0.4375 -1.359375,0.4375 v 0.25 c 0.15625,0 0.625,0 1,-0.1875 v 3.546875 c 0,0.234375 0,0.328125 -0.6875,0.328125 H 0.8125 V 0 c 0.125,0 0.984375,-0.03125 1.234375,-0.03125 0.21875,0 1.09375,0.03125 1.25,0.03125 V -0.25 H 3.03125 c -0.703125,0 -0.703125,-0.09375 -0.703125,-0.328125 z m 0,0"
               style="stroke:none;stroke-width:0" />
          </g>
          <g
             id="g175570"
             style="fill:#000000;fill-opacity:1">
            <path
               inkscape:connector-curvature="0"
               id="path175568"
               transform="translate(169.84,134.765)"
               d="m 2.03125,-0.015625 c 0,-0.65625 -0.25,-1.046875 -0.640625,-1.046875 -0.328125,0 -0.53125,0.25 -0.53125,0.53125 C 0.859375,-0.265625 1.0625,0 1.390625,0 1.5,0 1.640625,-0.046875 1.734375,-0.125 1.765625,-0.15625 1.78125,-0.15625 1.78125,-0.15625 c 0.015625,0 0.015625,0 0.015625,0.140625 0,0.75 -0.34375,1.34375 -0.671875,1.671875 -0.109375,0.109375 -0.109375,0.125 -0.109375,0.15625 0,0.078125 0.046875,0.109375 0.09375,0.109375 0.109375,0 0.921875,-0.765625 0.921875,-1.9375 z m 0,0"
               style="stroke:none;stroke-width:0" />
          </g>
          <g
             id="g175574"
             style="fill:#000000;fill-opacity:1">
            <path
               inkscape:connector-curvature="0"
               id="path175572"
               transform="translate(174.27136,134.765)"
               d="m 4.671875,-3.703125 c 0,-0.546875 -0.265625,-0.703125 -0.4375,-0.703125 -0.25,0 -0.5,0.265625 -0.5,0.484375 0,0.125 0.046875,0.1875 0.15625,0.296875 0.21875,0.203125 0.34375,0.453125 0.34375,0.8125 0,0.421875 -0.609375,2.703125 -1.765625,2.703125 -0.515625,0 -0.75,-0.34375 -0.75,-0.875 0,-0.546875 0.28125,-1.28125 0.578125,-2.109375 0.078125,-0.171875 0.125,-0.3125 0.125,-0.5 0,-0.4375 -0.3125,-0.8125 -0.8125,-0.8125 -0.9375,0 -1.3125,1.453125 -1.3125,1.53125 0,0.109375 0.09375,0.109375 0.109375,0.109375 0.109375,0 0.109375,-0.03125 0.15625,-0.1875 0.296875,-1 0.71875,-1.234375 1.015625,-1.234375 0.078125,0 0.25,0 0.25,0.3125 0,0.25 -0.109375,0.53125 -0.171875,0.703125 -0.4375,1.15625 -0.5625,1.609375 -0.5625,2.046875 0,1.078125 0.875,1.234375 1.328125,1.234375 1.671875,0 2.25,-3.296875 2.25,-3.8125 z m 0,0"
               style="stroke:none;stroke-width:0" />
          </g>
          <g
             id="g175578"
             style="fill:#000000;fill-opacity:1">
            <path
               inkscape:connector-curvature="0"
               id="path175576"
               transform="translate(179.097,136.259)"
               d="M 3.515625,-1.265625 H 3.28125 c -0.015625,0.15625 -0.09375,0.5625 -0.1875,0.625 C 3.046875,-0.59375 2.515625,-0.59375 2.40625,-0.59375 H 1.125 c 0.734375,-0.640625 0.984375,-0.84375 1.390625,-1.171875 0.515625,-0.40625 1,-0.84375 1,-1.5 0,-0.84375 -0.734375,-1.359375 -1.625,-1.359375 -0.859375,0 -1.453125,0.609375 -1.453125,1.25 0,0.34375 0.296875,0.390625 0.375,0.390625 0.15625,0 0.359375,-0.125 0.359375,-0.375 0,-0.125 -0.046875,-0.375 -0.40625,-0.375 C 0.984375,-4.21875 1.453125,-4.375 1.78125,-4.375 c 0.703125,0 1.0625,0.546875 1.0625,1.109375 0,0.609375 -0.4375,1.078125 -0.65625,1.328125 L 0.515625,-0.265625 C 0.4375,-0.203125 0.4375,-0.1875 0.4375,0 h 2.875 z m 0,0"
               style="stroke:none;stroke-width:0" />
          </g>
          <g
             id="g175582"
             style="fill:#000000;fill-opacity:1">
            <path
               inkscape:connector-curvature="0"
               id="path175580"
               transform="translate(183.566,134.765)"
               d="m 2.03125,-0.015625 c 0,-0.65625 -0.25,-1.046875 -0.640625,-1.046875 -0.328125,0 -0.53125,0.25 -0.53125,0.53125 C 0.859375,-0.265625 1.0625,0 1.390625,0 1.5,0 1.640625,-0.046875 1.734375,-0.125 1.765625,-0.15625 1.78125,-0.15625 1.78125,-0.15625 c 0.015625,0 0.015625,0 0.015625,0.140625 0,0.75 -0.34375,1.34375 -0.671875,1.671875 -0.109375,0.109375 -0.109375,0.125 -0.109375,0.15625 0,0.078125 0.046875,0.109375 0.09375,0.109375 0.109375,0 0.921875,-0.765625 0.921875,-1.9375 z m 0,0"
               style="stroke:none;stroke-width:0" />
          </g>
          <g
             id="g175586"
             style="fill:#000000;fill-opacity:1">
            <path
               inkscape:connector-curvature="0"
               id="path175584"
               transform="translate(187.99736,134.765)"
               d="m 4.671875,-3.703125 c 0,-0.546875 -0.265625,-0.703125 -0.4375,-0.703125 -0.25,0 -0.5,0.265625 -0.5,0.484375 0,0.125 0.046875,0.1875 0.15625,0.296875 0.21875,0.203125 0.34375,0.453125 0.34375,0.8125 0,0.421875 -0.609375,2.703125 -1.765625,2.703125 -0.515625,0 -0.75,-0.34375 -0.75,-0.875 0,-0.546875 0.28125,-1.28125 0.578125,-2.109375 0.078125,-0.171875 0.125,-0.3125 0.125,-0.5 0,-0.4375 -0.3125,-0.8125 -0.8125,-0.8125 -0.9375,0 -1.3125,1.453125 -1.3125,1.53125 0,0.109375 0.09375,0.109375 0.109375,0.109375 0.109375,0 0.109375,-0.03125 0.15625,-0.1875 0.296875,-1 0.71875,-1.234375 1.015625,-1.234375 0.078125,0 0.25,0 0.25,0.3125 0,0.25 -0.109375,0.53125 -0.171875,0.703125 -0.4375,1.15625 -0.5625,1.609375 -0.5625,2.046875 0,1.078125 0.875,1.234375 1.328125,1.234375 1.671875,0 2.25,-3.296875 2.25,-3.8125 z m 0,0"
               style="stroke:none;stroke-width:0" />
          </g>
          <g
             id="g175590"
             style="fill:#000000;fill-opacity:1">
            <path
               inkscape:connector-curvature="0"
               id="path175588"
               transform="translate(192.823,136.259)"
               d="m 1.90625,-2.328125 c 0.546875,0 0.9375,0.375 0.9375,1.125 0,0.859375 -0.515625,1.125 -0.90625,1.125 -0.28125,0 -0.90625,-0.078125 -1.1875,-0.5 0.328125,0 0.40625,-0.234375 0.40625,-0.390625 0,-0.21875 -0.171875,-0.375 -0.390625,-0.375 -0.1875,0 -0.390625,0.125 -0.390625,0.40625 0,0.65625 0.71875,1.078125 1.5625,1.078125 0.96875,0 1.640625,-0.65625 1.640625,-1.34375 0,-0.546875 -0.4375,-1.09375 -1.203125,-1.25 0.71875,-0.265625 0.984375,-0.78125 0.984375,-1.21875 0,-0.546875 -0.625,-0.953125 -1.40625,-0.953125 -0.765625,0 -1.359375,0.375 -1.359375,0.9375 0,0.234375 0.15625,0.359375 0.359375,0.359375 0.21875,0 0.359375,-0.15625 0.359375,-0.34375 0,-0.203125 -0.140625,-0.359375 -0.359375,-0.375 0.25,-0.296875 0.71875,-0.375 0.984375,-0.375 0.3125,0 0.75,0.15625 0.75,0.75 0,0.296875 -0.09375,0.625 -0.28125,0.828125 -0.21875,0.265625 -0.421875,0.28125 -0.765625,0.3125 -0.171875,0.015625 -0.1875,0.015625 -0.21875,0.015625 -0.015625,0 -0.078125,0.015625 -0.078125,0.09375 0,0.09375 0.0625,0.09375 0.1875,0.09375 z m 0,0"
               style="stroke:none;stroke-width:0" />
          </g>
          <g
             id="g175594"
             style="fill:#000000;fill-opacity:1">
            <path
               inkscape:connector-curvature="0"
               id="path175592"
               transform="translate(197.293,134.765)"
               d="m 2.03125,-0.015625 c 0,-0.65625 -0.25,-1.046875 -0.640625,-1.046875 -0.328125,0 -0.53125,0.25 -0.53125,0.53125 C 0.859375,-0.265625 1.0625,0 1.390625,0 1.5,0 1.640625,-0.046875 1.734375,-0.125 1.765625,-0.15625 1.78125,-0.15625 1.78125,-0.15625 c 0.015625,0 0.015625,0 0.015625,0.140625 0,0.75 -0.34375,1.34375 -0.671875,1.671875 -0.109375,0.109375 -0.109375,0.125 -0.109375,0.15625 0,0.078125 0.046875,0.109375 0.09375,0.109375 0.109375,0 0.921875,-0.765625 0.921875,-1.9375 z m 0,0"
               style="stroke:none;stroke-width:0" />
          </g>
          <g
             id="g175598"
             style="fill:#000000;fill-opacity:1">
            <path
               inkscape:connector-curvature="0"
               id="path175596"
               transform="translate(201.72436,134.765)"
               d="m 4.671875,-3.703125 c 0,-0.546875 -0.265625,-0.703125 -0.4375,-0.703125 -0.25,0 -0.5,0.265625 -0.5,0.484375 0,0.125 0.046875,0.1875 0.15625,0.296875 0.21875,0.203125 0.34375,0.453125 0.34375,0.8125 0,0.421875 -0.609375,2.703125 -1.765625,2.703125 -0.515625,0 -0.75,-0.34375 -0.75,-0.875 0,-0.546875 0.28125,-1.28125 0.578125,-2.109375 0.078125,-0.171875 0.125,-0.3125 0.125,-0.5 0,-0.4375 -0.3125,-0.8125 -0.8125,-0.8125 -0.9375,0 -1.3125,1.453125 -1.3125,1.53125 0,0.109375 0.09375,0.109375 0.109375,0.109375 0.109375,0 0.109375,-0.03125 0.15625,-0.1875 0.296875,-1 0.71875,-1.234375 1.015625,-1.234375 0.078125,0 0.25,0 0.25,0.3125 0,0.25 -0.109375,0.53125 -0.171875,0.703125 -0.4375,1.15625 -0.5625,1.609375 -0.5625,2.046875 0,1.078125 0.875,1.234375 1.328125,1.234375 1.671875,0 2.25,-3.296875 2.25,-3.8125 z m 0,0"
               style="stroke:none;stroke-width:0" />
          </g>
          <g
             id="g175602"
             style="fill:#000000;fill-opacity:1">
            <path
               inkscape:connector-curvature="0"
               id="path175600"
               transform="translate(206.55,136.259)"
               d="m 3.6875,-1.140625 v -0.25 H 2.90625 V -4.5 c 0,-0.140625 0,-0.203125 -0.140625,-0.203125 -0.09375,0 -0.125,0 -0.1875,0.109375 l -2.3125,3.203125 v 0.25 h 2.0625 v 0.5625 c 0,0.25 0,0.328125 -0.578125,0.328125 H 1.5625 V 0 C 1.921875,-0.015625 2.359375,-0.03125 2.609375,-0.03125 2.875,-0.03125 3.3125,-0.015625 3.671875,0 v -0.25 h -0.1875 C 2.90625,-0.25 2.90625,-0.328125 2.90625,-0.578125 v -0.5625 z M 2.375,-3.9375 v 2.546875 H 0.53125 Z m 0,0"
               style="stroke:none;stroke-width:0" />
          </g>
          <g
             id="g175606"
             style="fill:#000000;fill-opacity:1">
            <path
               inkscape:connector-curvature="0"
               id="path175604"
               transform="translate(211.019,134.765)"
               d="m 2.875,-2.5 c 0,-0.765625 -0.109375,-1.96875 -0.65625,-3.109375 -0.59375,-1.21875 -1.453125,-1.875 -1.546875,-1.875 -0.0625,0 -0.109375,0.046875 -0.109375,0.109375 0,0.03125 0,0.046875 0.1875,0.234375 0.984375,0.984375 1.546875,2.5625 1.546875,4.640625 0,1.71875 -0.359375,3.46875 -1.59375,4.71875 C 0.5625,2.34375 0.5625,2.359375 0.5625,2.390625 0.5625,2.453125 0.609375,2.5 0.671875,2.5 0.765625,2.5 1.671875,1.8125 2.25,0.546875 2.765625,-0.546875 2.875,-1.65625 2.875,-2.5 Z m 0,0"
               style="stroke:none;stroke-width:0" />
          </g>
          <g
             id="g175612"
             style="fill:#000000;fill-opacity:1">
            <path
               inkscape:connector-curvature="0"
               id="path175608"
               transform="translate(217.66306,134.765)"
               d="m 1.90625,-3.765625 c 0,-0.296875 -0.234375,-0.53125 -0.515625,-0.53125 -0.296875,0 -0.53125,0.234375 -0.53125,0.53125 0,0.28125 0.234375,0.53125 0.53125,0.53125 0.28125,0 0.515625,-0.25 0.515625,-0.53125 z m 0,3.234375 c 0,-0.28125 -0.234375,-0.53125 -0.515625,-0.53125 -0.296875,0 -0.53125,0.25 -0.53125,0.53125 C 0.859375,-0.234375 1.09375,0 1.390625,0 1.671875,0 1.90625,-0.234375 1.90625,-0.53125 Z m 0,0"
               style="stroke:none;stroke-width:0" />
            <path
               inkscape:connector-curvature="0"
               id="path175610"
               transform="translate(220.43067,134.765)"
               d="m 6.84375,-3.265625 c 0.15625,0 0.34375,0 0.34375,-0.1875 C 7.1875,-3.65625 7,-3.65625 6.859375,-3.65625 h -5.96875 c -0.140625,0 -0.328125,0 -0.328125,0.203125 0,0.1875 0.1875,0.1875 0.328125,0.1875 z m 0.015625,1.9375 c 0.140625,0 0.328125,0 0.328125,-0.203125 0,-0.1875 -0.1875,-0.1875 -0.34375,-0.1875 H 0.890625 c -0.140625,0 -0.328125,0 -0.328125,0.1875 0,0.203125 0.1875,0.203125 0.328125,0.203125 z m 0,0"
               style="stroke:none;stroke-width:0" />
          </g>
        </g>
      </g>
      <g
         style="stroke-width:0.96784419"
         transform="matrix(1.0332242,0,0,1.0332242,-7.9948367,-7.6136674)"
         id="g181575">
        <flowRoot
           xml:space="preserve"
           id="flowRoot67515"
           style="font-style:normal;font-weight:normal;font-size:21.33333397px;line-height:1.25;font-family:sans-serif;letter-spacing:0px;word-spacing:0px;fill:#000000;fill-opacity:1;stroke:none;stroke-width:0.96784419"
           transform="matrix(0.26458333,0,0,0.26458333,-195.79171,227.67919)"><flowRegion
             style="stroke-width:0.96784419"
             id="flowRegion67509"><rect
               style="stroke-width:0.96784419"
               id="rect67507"
               width="414.79153"
               height="63.495754"
               x="819.34973"
               y="158.77832" /></flowRegion><flowPara
             style="font-style:italic;font-variant:normal;font-weight:normal;font-stretch:normal;font-size:24px;font-family:Palatino;-inkscape-font-specification:'Palatino Italic';stroke-width:0.96784419"
             id="flowPara67513">     and      are <flowSpan
   style="font-weight:bold;stroke-width:0.96784419"
   id="flowSpan181560">boundary conditions</flowSpan> used to initialize and terminate hidden state</flowPara></flowRoot>        <g
           id="g181485"
           ns1:jacobian_sqrt="0.936135"
           inkscapeversion="0.92.2"
           ns1:alignment="middle center"
           ns1:scale="2.65361255169"
           ns1:preamble="/Users/jemis/.config/inkscape/extensions/textext/default_packages.tex"
           ns1:text="$\\alpha$"
           ns1:pdfconverter="pdf2svg"
           ns1:texconverter="pdflatex"
           ns1:version="0.11.0"
           transform="matrix(0.84824586,0,0,0.84824586,-104.66907,160.91195)"
           style="stroke-width:1.06812525">
          <g
             id="g181483"
             style="stroke-width:1.06812525">
            <g
               id="g181481"
               style="fill:#000000;fill-opacity:1;stroke-width:1.06812525">
              <path
                 id="path181479"
                 transform="translate(148.712,134.765)"
                 d="m 4.75,-2.359375 c 0,-1.5625 -0.921875,-2.046875 -1.65625,-2.046875 -1.375,0 -2.6875,1.421875 -2.6875,2.828125 0,0.9375 0.59375,1.6875 1.625,1.6875 0.625,0 1.34375,-0.234375 2.09375,-0.84375 0.125,0.53125 0.453125,0.84375 0.90625,0.84375 0.53125,0 0.84375,-0.546875 0.84375,-0.703125 0,-0.078125 -0.0625,-0.109375 -0.125,-0.109375 -0.0625,0 -0.09375,0.03125 -0.125,0.109375 -0.1875,0.484375 -0.546875,0.484375 -0.5625,0.484375 -0.3125,0 -0.3125,-0.78125 -0.3125,-1.015625 0,-0.203125 0,-0.234375 0.109375,-0.34375 C 5.796875,-2.65625 6,-3.8125 6,-3.8125 6,-3.84375 5.984375,-3.921875 5.875,-3.921875 c -0.09375,0 -0.09375,0.03125 -0.140625,0.21875 -0.1875,0.625 -0.515625,1.375 -0.984375,1.96875 z m -0.65625,1.375 c -0.890625,0.765625 -1.65625,0.875 -2.046875,0.875 -0.59375,0 -0.90625,-0.453125 -0.90625,-1.09375 0,-0.484375 0.265625,-1.5625 0.578125,-2.0625 C 2.1875,-4 2.734375,-4.1875 3.078125,-4.1875 c 0.984375,0 0.984375,1.3125 0.984375,2.078125 0,0.375 0,0.953125 0.03125,1.125 z m 0,0"
                 style="stroke:none;stroke-width:0"
                 inkscape:connector-curvature="0" />
            </g>
          </g>
        </g>
        <g
           transform="matrix(0.84824586,0,0,0.84824586,-85.367289,160.91195)"
           ns1:version="0.11.0"
           ns1:texconverter="pdflatex"
           ns1:pdfconverter="pdf2svg"
           ns1:text="$\\omega$"
           ns1:preamble="/Users/jemis/.config/inkscape/extensions/textext/default_packages.tex"
           ns1:scale="2.65361255169"
           ns1:alignment="middle center"
           inkscapeversion="0.92.2"
           ns1:jacobian_sqrt="0.936135"
           id="g181493"
           style="stroke-width:1.06812525">
          <g
             id="g181491"
             style="stroke-width:1.06812525">
            <g
               style="fill:#000000;fill-opacity:1;stroke-width:1.06812525"
               id="g181489">
              <path
                 style="stroke:none;stroke-width:0"
                 d="m 6.03125,-3.703125 c 0,-0.453125 -0.171875,-0.703125 -0.40625,-0.703125 -0.25,0 -0.515625,0.234375 -0.515625,0.46875 0,0.09375 0.046875,0.203125 0.140625,0.296875 0.171875,0.15625 0.359375,0.421875 0.359375,0.84375 0,0.390625 -0.203125,0.96875 -0.5,1.421875 C 4.8125,-0.953125 4.4375,-0.609375 3.96875,-0.609375 3.40625,-0.609375 3.09375,-0.96875 3,-1.5 c 0.109375,-0.265625 0.34375,-0.90625 0.34375,-1.1875 0,-0.109375 -0.046875,-0.21875 -0.1875,-0.21875 -0.078125,0 -0.1875,0.03125 -0.265625,0.171875 C 2.78125,-2.53125 2.65625,-1.890625 2.65625,-1.53125 2.328125,-1.0625 1.9375,-0.609375 1.3125,-0.609375 c -0.671875,0 -0.875,-0.59375 -0.875,-1.140625 0,-1.25 1.015625,-2.296875 1.015625,-2.421875 0,-0.109375 -0.078125,-0.1875 -0.1875,-0.1875 -0.125,0 -0.203125,0.125 -0.265625,0.21875 -0.5,0.734375 -0.875,1.921875 -0.875,2.828125 0,0.6875 0.21875,1.421875 1.046875,1.421875 0.703125,0 1.171875,-0.5 1.53125,-1.046875 0.09375,0.578125 0.484375,1.046875 1.09375,1.046875 0.78125,0 1.25,-0.609375 1.609375,-1.359375 0.25,-0.484375 0.625,-1.84375 0.625,-2.453125 z m 0,0"
                 transform="translate(148.712,134.765)"
                 id="path181487"
                 inkscape:connector-curvature="0" />
            </g>
          </g>
        </g>
      </g>
    </g>
  </g>
</svg>
